SplineFontDB: 3.2
FontName: DayRomanItalic
FullName: Day Roman Italic
FamilyName: Day Roman
Weight: Book
Copyright: 2002, Fredrick Nader. All rights reserved. apostrophe@apostrophiclab.com
Version: 1.0; December 2002
ItalicAngle: 0
UnderlinePosition: -147
UnderlineWidth: 40
Ascent: 800
Descent: 200
InvalidEm: 0
sfntRevision: 0x00010000
LayerCount: 2
Layer: 0 1 "Zur+APwA-ck" 1
Layer: 1 1 "Zeichen" 0
XUID: [1021 307 -1745623860 15556]
StyleMap: 0x0040
FSType: 0
OS2Version: 3
OS2_WeightWidthSlopeOnly: 0
OS2_UseTypoMetrics: 0
CreationTime: 1039457615
ModificationTime: 1598980551
PfmFamily: 17
TTFWeight: 400
TTFWidth: 5
LineGap: 27
VLineGap: 0
Panose: 2 2 5 0 6 4 11 2 4 3
OS2TypoAscent: 797
OS2TypoAOffset: 0
OS2TypoDescent: -274
OS2TypoDOffset: 0
OS2TypoLinegap: 53
OS2WinAscent: 1002
OS2WinAOffset: 0
OS2WinDescent: 291
OS2WinDOffset: 0
HheadAscent: 1002
HheadAOffset: 0
HheadDescent: -291
HheadDOffset: 0
OS2SubXSize: 700
OS2SubYSize: 650
OS2SubXOff: 0
OS2SubYOff: 140
OS2SupXSize: 700
OS2SupYSize: 650
OS2SupXOff: 0
OS2SupYOff: 477
OS2StrikeYSize: 50
OS2StrikeYPos: 250
OS2CapHeight: 724
OS2XHeight: 428
OS2FamilyClass: 258
OS2Vendor: 'APOS'
OS2CodePages: 20000111.00000000
OS2UnicodeRanges: 80000027.4000004a.00000000.00000000
Lookup: 258 0 0 "'kern' Horizontales Kerning in Lateinisch lookup 0" { "'kern' Horizontales Kerning in Lateinisch lookup 0 subtable"  } ['kern' ('DFLT' <'dflt' > 'latn' <'dflt' > ) ]
MarkAttachClasses: 1
DEI: 91125
ShortTable: maxp 16
  1
  0
  248
  236
  7
  0
  0
  1
  0
  0
  0
  0
  0
  0
  0
  0
EndShort
LangName: 1033 "" "" "" "DayRomanItalic: 2002" "" "1.0; December 2002" "" "" "F. M. Nader" "Fredrick Nader" "" "mailto:apostrophe@apostrophiclab.com" "www.apostrophiclab.com" "" "" "" "Day Roman" "Italic" "Day Roman Italic"
GaspTable: 3 8 2 16 1 65535 3 0
Encoding: UnicodeBmp
UnicodeInterp: none
NameList: AGL For New Fonts
DisplaySize: -48
AntiAlias: 1
FitToEm: 0
WinInfo: 64 32 11
BeginChars: 65554 248

StartChar: breve
Encoding: 5 5 3
Width: 431
GlyphClass: 2
Flags: W
LayerCount: 2
Fore
SplineSet
353 572 m 0,0,1
 368 572 368 572 382.5 578 c 128,-1,2
 397 584 397 584 410 594.5 c 128,-1,3
 423 605 423 605 432 618.5 c 128,-1,4
 441 632 441 632 445 648 c 1,5,-1
 483 648 l 1,6,7
 477 622 477 622 462 600 c 128,-1,8
 447 578 447 578 427.5 561.5 c 128,-1,9
 408 545 408 545 385 535.5 c 128,-1,10
 362 526 362 526 338 526 c 0,11,12
 334 526 334 526 330 528 c 0,13,14
 312 529 312 529 297 540.5 c 128,-1,15
 282 552 282 552 272.5 569.5 c 128,-1,16
 263 587 263 587 259.5 607.5 c 128,-1,17
 256 628 256 628 260 648 c 1,18,-1
 303 648 l 1,19,20
 301 635 301 635 303.5 622 c 128,-1,21
 306 609 306 609 311.5 598.5 c 128,-1,22
 317 588 317 588 326.5 581 c 128,-1,23
 336 574 336 574 347 573 c 0,24,25
 349 572 349 572 353 572 c 0,0,1
EndSplineSet
EndChar

StartChar: dotaccent
Encoding: 6 6 4
Width: 416
GlyphClass: 2
Flags: W
LayerCount: 2
Fore
SplineSet
427 623 m 0,0,1
 421 596 421 596 398 577 c 128,-1,2
 375 558 375 558 350 558 c 0,3,4
 346 558 346 558 346 559 c 0,5,6
 336 560 336 560 328 566.5 c 128,-1,7
 320 573 320 573 315.5 582.5 c 128,-1,8
 311 592 311 592 309.5 603.5 c 128,-1,9
 308 615 308 615 310 626 c 0,10,11
 315 649 315 649 336.5 668 c 128,-1,12
 358 687 358 687 379 687 c 0,13,14
 403 687 403 687 418 668 c 128,-1,15
 433 649 433 649 427 623 c 0,0,1
EndSplineSet
EndChar

StartChar: ring
Encoding: 8 8 5
Width: 424
GlyphClass: 2
Flags: W
LayerCount: 2
Fore
SplineSet
416 620 m 256,0,1
 422 645 422 645 409 662.5 c 128,-1,2
 396 680 396 680 374 680 c 0,3,4
 354 680 354 680 334.5 663 c 128,-1,5
 315 646 315 646 310 624 c 0,6,7
 308 614 308 614 309.5 603.5 c 128,-1,8
 311 593 311 593 315.5 584 c 128,-1,9
 320 575 320 575 327 569 c 128,-1,10
 334 563 334 563 343 562 c 0,11,12
 344 561 344 561 347 561 c 0,13,14
 370 561 370 561 390 578 c 128,-1,15
 410 595 410 595 416 620 c 256,0,1
446 620 m 0,16,17
 441 600 441 600 430.5 583 c 128,-1,18
 420 566 420 566 405 553.5 c 128,-1,19
 390 541 390 541 372 533.5 c 128,-1,20
 354 526 354 526 336 526 c 0,21,22
 330 526 330 526 329 528 c 0,23,24
 314 529 314 529 303 538.5 c 128,-1,25
 292 548 292 548 285 562 c 128,-1,26
 278 576 278 576 275.5 592.5 c 128,-1,27
 273 609 273 609 277 625 c 0,28,29
 281 642 281 642 291 658 c 128,-1,30
 301 674 301 674 315.5 686.5 c 128,-1,31
 330 699 330 699 346 706.5 c 128,-1,32
 362 714 362 714 378 714 c 0,33,34
 418 714 418 714 436.5 687 c 128,-1,35
 455 660 455 660 446 620 c 0,16,17
EndSplineSet
EndChar

StartChar: hungarumlaut
Encoding: 10 10 6
Width: 478
GlyphClass: 2
Flags: W
LayerCount: 2
Fore
SplineSet
395 701 m 0,0,1
 399 696 399 696 401.5 694.5 c 128,-1,2
 404 693 404 693 406 691 c 128,-1,3
 408 689 408 689 411.5 686 c 128,-1,4
 415 683 415 683 422 677 c 0,5,6
 429 674 429 674 426.5 666.5 c 128,-1,7
 424 659 424 659 419 655 c 0,8,9
 411 647 411 647 389 624.5 c 128,-1,10
 367 602 367 602 342.5 577.5 c 128,-1,11
 318 553 318 553 297 533 c 128,-1,12
 276 513 276 513 271 510 c 0,13,14
 261 504 261 504 255.5 509.5 c 128,-1,15
 250 515 250 515 258 526 c 0,16,17
 266 539 266 539 281.5 562.5 c 128,-1,18
 297 586 297 586 314 611.5 c 128,-1,19
 331 637 331 637 347 660 c 128,-1,20
 363 683 363 683 372 695 c 0,21,22
 378 703 378 703 383 705 c 128,-1,23
 388 707 388 707 395 701 c 0,0,1
519 701 m 0,24,25
 523 696 523 696 525.5 694.5 c 128,-1,26
 528 693 528 693 530 691 c 128,-1,27
 532 689 532 689 535.5 686 c 128,-1,28
 539 683 539 683 546 677 c 0,29,30
 553 674 553 674 550.5 666.5 c 128,-1,31
 548 659 548 659 543 655 c 0,32,33
 535 647 535 647 512.5 624.5 c 128,-1,34
 490 602 490 602 466 577.5 c 128,-1,35
 442 553 442 553 421 533 c 128,-1,36
 400 513 400 513 395 510 c 0,37,38
 385 504 385 504 379.5 509.5 c 128,-1,39
 374 515 374 515 382 526 c 0,40,41
 390 539 390 539 405.5 562.5 c 128,-1,42
 421 586 421 586 438 611.5 c 128,-1,43
 455 637 455 637 471 660 c 128,-1,44
 487 683 487 683 496 695 c 0,45,46
 502 703 502 703 507 705 c 128,-1,47
 512 707 512 707 519 701 c 0,24,25
EndSplineSet
EndChar

StartChar: ogonek
Encoding: 11 11 7
Width: 434
GlyphClass: 2
Flags: W
LayerCount: 2
Fore
SplineSet
246 -45 m 0,0,1
 255 -20 255 -20 271 -2.5 c 128,-1,2
 287 15 287 15 306.5 25 c 128,-1,3
 326 35 326 35 348 38.5 c 128,-1,4
 370 42 370 42 390 39 c 0,5,6
 393 38 393 38 392.5 32.5 c 128,-1,7
 392 27 392 27 381 1 c 1,8,9
 373 2 373 2 361.5 -2 c 128,-1,10
 350 -6 350 -6 339.5 -13 c 128,-1,11
 329 -20 329 -20 320.5 -30 c 128,-1,12
 312 -40 312 -40 308 -50 c 0,13,14
 300 -73 300 -73 307.5 -92.5 c 128,-1,15
 315 -112 315 -112 351 -113 c 0,16,17
 371 -114 371 -114 389 -112 c 128,-1,18
 407 -110 407 -110 432 -104 c 1,19,20
 435 -110 435 -110 434.5 -115 c 128,-1,21
 434 -120 434 -120 433 -128 c 1,22,23
 410 -137 410 -137 385.5 -145.5 c 128,-1,24
 361 -154 361 -154 338 -155 c 0,25,26
 312 -156 312 -156 291 -148 c 128,-1,27
 270 -140 270 -140 257.5 -125 c 128,-1,28
 245 -110 245 -110 241.5 -89.5 c 128,-1,29
 238 -69 238 -69 246 -45 c 0,0,1
EndSplineSet
EndChar

StartChar: caron
Encoding: 12 12 8
Width: 388
GlyphClass: 2
Flags: W
LayerCount: 2
Fore
SplineSet
462 699 m 0,0,1
 468 699 468 699 466 692 c 0,2,3
 465 689 465 689 456 675 c 128,-1,4
 447 661 447 661 433 642 c 128,-1,5
 419 623 419 623 402 601 c 128,-1,6
 385 579 385 579 370 560 c 128,-1,7
 355 541 355 541 343 527 c 128,-1,8
 331 513 331 513 326 510 c 1,9,10
 319 515 319 515 319 518 c 0,11,12
 303 566 303 566 288 608.5 c 128,-1,13
 273 651 273 651 269 688 c 0,14,15
 269 694 269 694 269 696 c 0,16,17
 271 704 271 704 279 703 c 0,18,19
 283 702 283 702 291 687.5 c 128,-1,20
 299 673 299 673 308 654 c 128,-1,21
 317 635 317 635 327 617.5 c 128,-1,22
 337 600 337 600 346 593 c 1,23,24
 358 600 358 600 374.5 617.5 c 128,-1,25
 391 635 391 635 407 653 c 128,-1,26
 423 671 423 671 438 685 c 128,-1,27
 453 699 453 699 462 699 c 0,0,1
EndSplineSet
EndChar

StartChar: dotlessi
Encoding: 13 13 9
Width: 289
GlyphClass: 2
Flags: W
LayerCount: 2
Fore
SplineSet
255 5 m 0,0,1
 252 -6 252 -6 242.5 -7 c 128,-1,2
 233 -8 233 -8 226 -8 c 0,3,4
 209 -8 209 -8 193.5 -5.5 c 128,-1,5
 178 -3 178 -3 162 -3 c 0,6,7
 138 -3 138 -3 112.5 -5.5 c 128,-1,8
 87 -8 87 -8 63 -8 c 2,9,-1
 52 -8 l 2,10,11
 45 -8 45 -8 39 -6 c 128,-1,12
 33 -4 33 -4 35 7 c 0,13,14
 36 10 36 10 38.5 12 c 128,-1,15
 41 14 41 14 43 16 c 0,16,17
 53 23 53 23 64 24.5 c 128,-1,18
 75 26 75 26 85.5 27.5 c 128,-1,19
 96 29 96 29 105.5 34.5 c 128,-1,20
 115 40 115 40 121 56 c 0,21,22
 125 66 125 66 126 70 c 2,23,-1
 130 85 l 2,24,25
 138 117 138 117 144.5 147.5 c 128,-1,26
 151 178 151 178 159 210 c 0,27,28
 165 234 165 234 172 257.5 c 128,-1,29
 179 281 179 281 185 305 c 0,30,31
 188 317 188 317 190.5 334 c 128,-1,32
 193 351 193 351 188 361 c 0,33,34
 185 367 185 367 177.5 371 c 128,-1,35
 170 375 170 375 162.5 378.5 c 128,-1,36
 155 382 155 382 150 385.5 c 128,-1,37
 145 389 145 389 146 394 c 256,38,39
 147 399 147 399 153.5 403 c 128,-1,40
 160 407 160 407 169 410.5 c 128,-1,41
 178 414 178 414 186 416.5 c 128,-1,42
 194 419 194 419 198 420 c 0,43,44
 205 422 205 422 218.5 429 c 128,-1,45
 232 436 232 436 246.5 443.5 c 128,-1,46
 261 451 261 451 272.5 457 c 128,-1,47
 284 463 284 463 288 463 c 0,48,49
 294 463 294 463 292 458 c 0,50,51
 289 443 289 443 285 428.5 c 128,-1,52
 281 414 281 414 276 399 c 0,53,54
 268 369 268 369 261 338.5 c 128,-1,55
 254 308 254 308 247 278 c 0,56,57
 238 241 238 241 230 204.5 c 128,-1,58
 222 168 222 168 215 131 c 0,59,60
 211 114 211 114 206.5 96.5 c 128,-1,61
 202 79 202 79 200 62 c 0,62,63
 197 41 197 41 206 34 c 128,-1,64
 215 27 215 27 227 24.5 c 128,-1,65
 239 22 239 22 248.5 19.5 c 128,-1,66
 258 17 258 17 255 5 c 0,0,1
EndSplineSet
EndChar

StartChar: fraction
Encoding: 25 25 10
Width: 252
GlyphClass: 2
Flags: W
LayerCount: 2
Fore
SplineSet
538 646 m 1,0,1
 502 604 502 604 464 564.5 c 128,-1,2
 426 525 426 525 387 485 c 0,3,4
 272 365 272 365 158.5 248 c 128,-1,5
 45 131 45 131 -66 7 c 1,6,7
 -70 9 -70 9 -80 18 c 128,-1,8
 -90 27 -90 27 -109 35 c 1,9,10
 41 197 41 197 192 353 c 128,-1,11
 343 509 343 509 493 674 c 1,12,13
 503 674 503 674 516 663 c 128,-1,14
 529 652 529 652 538 646 c 1,0,1
EndSplineSet
EndChar

StartChar: fi
Encoding: 26 26 11
Width: 566
GlyphClass: 2
Flags: W
LayerCount: 2
Fore
SplineSet
532 5 m 0,0,1
 529 -6 529 -6 519 -7 c 128,-1,2
 509 -8 509 -8 503 -8 c 0,3,4
 486 -8 486 -8 470.5 -5.5 c 128,-1,5
 455 -3 455 -3 439 -3 c 0,6,7
 415 -3 415 -3 389 -5.5 c 128,-1,8
 363 -8 363 -8 339 -8 c 2,9,-1
 329 -8 l 2,10,11
 322 -8 322 -8 315.5 -6 c 128,-1,12
 309 -4 309 -4 312 7 c 0,13,14
 313 10 313 10 315 12 c 128,-1,15
 317 14 317 14 319 16 c 0,16,17
 329 23 329 23 340.5 24.5 c 128,-1,18
 352 26 352 26 362.5 27.5 c 128,-1,19
 373 29 373 29 382 34.5 c 128,-1,20
 391 40 391 40 397 56 c 0,21,22
 401 66 401 66 403 70 c 2,23,-1
 406 85 l 2,24,25
 414 117 414 117 421 147.5 c 128,-1,26
 428 178 428 178 436 210 c 0,27,28
 442 234 442 234 449 257.5 c 128,-1,29
 456 281 456 281 461 305 c 0,30,31
 465 321 465 321 466.5 337 c 128,-1,32
 468 353 468 353 464.5 366 c 128,-1,33
 461 379 461 379 451.5 387.5 c 128,-1,34
 442 396 442 396 423 397 c 2,35,-1
 326 397 l 2,36,37
 304 397 304 397 287 396.5 c 128,-1,38
 270 396 270 396 264 396 c 0,39,40
 256 389 256 389 253 374 c 128,-1,41
 250 359 250 359 248 350 c 0,42,43
 232 281 232 281 216 215 c 128,-1,44
 200 149 200 149 184 80 c 0,45,46
 179 58 179 58 183 47 c 128,-1,47
 187 36 187 36 196 30.5 c 128,-1,48
 205 25 205 25 218.5 23.5 c 128,-1,49
 232 22 232 22 248 19 c 0,50,51
 251 15 251 15 249 8 c 256,52,53
 247 1 247 1 242 -1 c 2,54,-1
 240 -4 l 2,55,56
 233 -8 233 -8 222 -8 c 0,57,58
 204 -8 204 -8 187 -5 c 128,-1,59
 170 -2 170 -2 153 -2 c 0,60,61
 126 -2 126 -2 98 -5 c 128,-1,62
 70 -8 70 -8 43 -8 c 0,63,64
 38 -8 38 -8 29 -7 c 128,-1,65
 20 -6 20 -6 21 2 c 0,66,67
 24 16 24 16 36 19 c 128,-1,68
 48 22 48 22 63 25.5 c 128,-1,69
 78 29 78 29 91.5 39.5 c 128,-1,70
 105 50 105 50 112 79 c 2,71,-1
 178 366 l 2,72,73
 181 379 181 379 181 393 c 1,74,75
 159 396 159 396 138 396 c 0,76,77
 131 396 131 396 122 398 c 128,-1,78
 113 400 113 400 116 411 c 0,79,80
 117 415 117 415 118.5 420.5 c 128,-1,81
 120 426 120 426 123 430 c 0,82,83
 127 435 127 435 136.5 437 c 128,-1,84
 146 439 146 439 157 440.5 c 128,-1,85
 168 442 168 442 178.5 443 c 128,-1,86
 189 444 189 444 196 447 c 1,87,88
 208 486 208 486 218 526.5 c 128,-1,89
 228 567 228 567 246 605 c 0,90,91
 263 643 263 643 288 677.5 c 128,-1,92
 313 712 313 712 343.5 738 c 128,-1,93
 374 764 374 764 409.5 779 c 128,-1,94
 445 794 445 794 483 793 c 0,95,96
 503 793 503 793 522 790 c 128,-1,97
 541 787 541 787 555 778.5 c 128,-1,98
 569 770 569 770 576 756 c 128,-1,99
 583 742 583 742 579 721 c 0,100,101
 579 709 579 709 570.5 698 c 128,-1,102
 562 687 562 687 550 680.5 c 128,-1,103
 538 674 538 674 526.5 673 c 128,-1,104
 515 672 515 672 509 679 c 0,105,106
 504 683 504 683 503.5 694 c 128,-1,107
 503 705 503 705 496.5 715.5 c 128,-1,108
 490 726 490 726 473.5 734.5 c 128,-1,109
 457 743 457 743 420 743 c 0,110,111
 400 743 400 743 383.5 730 c 128,-1,112
 367 717 367 717 353 696.5 c 128,-1,113
 339 676 339 676 327.5 650 c 128,-1,114
 316 624 316 624 307 597.5 c 128,-1,115
 298 571 298 571 291.5 547 c 128,-1,116
 285 523 285 523 281 506 c 2,117,-1
 278 492 l 2,118,119
 275 480 275 480 271.5 463.5 c 128,-1,120
 268 447 268 447 272 442 c 1,121,-1
 485 442 l 2,122,123
 500 442 500 442 513 446.5 c 128,-1,124
 526 451 526 451 537 456 c 128,-1,125
 548 461 548 461 555 463.5 c 128,-1,126
 562 466 562 466 564 463 c 0,127,128
 565 461 565 461 567 460.5 c 128,-1,129
 569 460 569 460 568 458 c 0,130,131
 565 443 565 443 561 428.5 c 128,-1,132
 557 414 557 414 553 399 c 0,133,134
 545 369 545 369 537.5 338.5 c 128,-1,135
 530 308 530 308 523 278 c 0,136,137
 514 241 514 241 506.5 204.5 c 128,-1,138
 499 168 499 168 491 131 c 0,139,140
 487 114 487 114 482.5 96.5 c 128,-1,141
 478 79 478 79 476 62 c 0,142,143
 473 41 473 41 482 34 c 128,-1,144
 491 27 491 27 503 24.5 c 128,-1,145
 515 22 515 22 525 19.5 c 128,-1,146
 535 17 535 17 532 5 c 0,0,1
EndSplineSet
EndChar

StartChar: fl
Encoding: 27 27 12
Width: 571
GlyphClass: 2
Flags: W
LayerCount: 2
Fore
SplineSet
537 8 m 0,0,1
 534 -3 534 -3 525 -6 c 0,2,3
 524 -7 524 -7 520 -7 c 2,4,-1
 516 -7 l 2,5,6
 495 -7 495 -7 473.5 -4.5 c 128,-1,7
 452 -2 452 -2 431 -2 c 0,8,9
 404 -2 404 -2 377 -5 c 128,-1,10
 350 -8 350 -8 323 -8 c 0,11,12
 318 -8 318 -8 309.5 -6.5 c 128,-1,13
 301 -5 301 -5 302 3 c 0,14,15
 305 16 305 16 311 17.5 c 128,-1,16
 317 19 317 19 330 23 c 0,17,18
 347 28 347 28 362.5 34.5 c 128,-1,19
 378 41 378 41 389 59 c 0,20,21
 394 67 394 67 397.5 79 c 128,-1,22
 401 91 401 91 403 100 c 0,23,24
 434 235 434 235 464.5 365.5 c 128,-1,25
 495 496 495 496 527 631 c 0,26,27
 536 668 536 668 530 693 c 128,-1,28
 524 718 524 718 508.5 731.5 c 128,-1,29
 493 745 493 745 470 747.5 c 128,-1,30
 447 750 447 750 420 743 c 0,31,32
 388 735 388 735 365 706.5 c 128,-1,33
 342 678 342 678 325.5 642 c 128,-1,34
 309 606 309 606 298 568.5 c 128,-1,35
 287 531 287 531 281 506 c 2,36,-1
 278 492 l 2,37,38
 275 480 275 480 271.5 463.5 c 128,-1,39
 268 447 268 447 272 442 c 1,40,-1
 376 442 l 2,41,42
 388 442 388 442 392 436 c 0,43,44
 391 431 391 431 390.5 427 c 128,-1,45
 390 423 390 423 389 418 c 0,46,47
 386 407 386 407 380 399 c 0,48,49
 375 398 375 398 369.5 397.5 c 128,-1,50
 364 397 364 397 358 397 c 2,51,-1
 300 397 l 2,52,53
 291 397 291 397 282 397 c 0,54,55
 274 397 274 397 264 396 c 1,56,57
 256 389 256 389 253 374 c 128,-1,58
 250 359 250 359 248 350 c 0,59,60
 232 281 232 281 216 215 c 128,-1,61
 200 149 200 149 184 80 c 0,62,63
 179 58 179 58 183 47 c 128,-1,64
 187 36 187 36 196 30.5 c 128,-1,65
 205 25 205 25 218.5 23.5 c 128,-1,66
 232 22 232 22 248 19 c 0,67,68
 251 15 251 15 249 8 c 256,69,70
 247 1 247 1 242 -1 c 2,71,-1
 240 -4 l 2,72,73
 233 -8 233 -8 222 -8 c 0,74,75
 204 -8 204 -8 187 -5 c 128,-1,76
 170 -2 170 -2 153 -2 c 0,77,78
 126 -2 126 -2 98 -5 c 128,-1,79
 70 -8 70 -8 43 -8 c 0,80,81
 38 -8 38 -8 29 -7 c 128,-1,82
 20 -6 20 -6 21 2 c 0,83,84
 24 16 24 16 36 19 c 128,-1,85
 48 22 48 22 63 25.5 c 128,-1,86
 78 29 78 29 91.5 39.5 c 128,-1,87
 105 50 105 50 112 79 c 2,88,-1
 178 366 l 2,89,90
 181 379 181 379 181 393 c 1,91,92
 159 396 159 396 138 396 c 0,93,94
 131 396 131 396 122 398 c 128,-1,95
 113 400 113 400 116 411 c 0,96,97
 117 415 117 415 118.5 420.5 c 128,-1,98
 120 426 120 426 123 430 c 0,99,100
 127 435 127 435 136.5 437 c 128,-1,101
 146 439 146 439 157 440.5 c 128,-1,102
 168 442 168 442 178.5 443 c 128,-1,103
 189 444 189 444 196 447 c 1,104,105
 208 486 208 486 218 526.5 c 128,-1,106
 228 567 228 567 246 605 c 0,107,108
 263 643 263 643 288 677.5 c 128,-1,109
 313 712 313 712 343.5 738 c 128,-1,110
 374 764 374 764 409.5 779 c 128,-1,111
 445 794 445 794 483 793 c 0,112,113
 511 792 511 792 531.5 785.5 c 128,-1,114
 552 779 552 779 564 760 c 1,115,116
 586 768 586 768 604 774 c 0,117,118
 624 781 624 781 630 783 c 1,119,120
 635 779 635 779 634 779 c 0,121,122
 631 765 631 765 628.5 752 c 128,-1,123
 626 739 626 739 623 725 c 0,124,125
 585 561 585 561 547.5 401 c 128,-1,126
 510 241 510 241 472 77 c 0,127,128
 464 44 464 44 478.5 35.5 c 128,-1,129
 493 27 493 27 518 24 c 0,130,131
 519 22 519 22 521.5 22.5 c 128,-1,132
 524 23 524 23 526 23 c 0,133,134
 540 23 540 23 537 8 c 0,0,1
EndSplineSet
EndChar

StartChar: Lslash
Encoding: 28 28 13
Width: 582
GlyphClass: 2
Flags: W
LayerCount: 2
Fore
SplineSet
107 304 m 0,0,1
 107 307 107 307 113.5 311.5 c 128,-1,2
 120 316 120 316 129 320.5 c 128,-1,3
 138 325 138 325 147.5 329.5 c 128,-1,4
 157 334 157 334 163 337 c 0,5,6
 177 343 177 343 192.5 351.5 c 128,-1,7
 208 360 208 360 223 368 c 1,8,-1
 276 600 l 2,9,10
 282 625 282 625 283 645 c 0,11,12
 284 667 284 667 269.5 674.5 c 128,-1,13
 255 682 255 682 237.5 684.5 c 128,-1,14
 220 687 220 687 206.5 689.5 c 128,-1,15
 193 692 193 692 196 706 c 256,16,17
 199 720 199 720 210 722 c 128,-1,18
 221 724 221 724 232 724 c 0,19,20
 265 724 265 724 295 720.5 c 128,-1,21
 325 717 325 717 357 717 c 0,22,23
 391 717 391 717 423 719 c 128,-1,24
 455 721 455 721 494 721 c 1,25,26
 501 713 501 713 499 705 c 0,27,28
 496 693 496 693 484.5 689.5 c 128,-1,29
 473 686 473 686 457.5 684.5 c 128,-1,30
 442 683 442 683 427 681.5 c 128,-1,31
 412 680 412 680 401 672 c 0,32,33
 393 666 393 666 387.5 656 c 128,-1,34
 382 646 382 646 378 635 c 128,-1,35
 374 624 374 624 371 613 c 128,-1,36
 368 602 368 602 366 594 c 0,37,38
 356 549 356 549 345.5 505 c 128,-1,39
 335 461 335 461 324 416 c 1,40,41
 354 430 354 430 383 444 c 128,-1,42
 412 458 412 458 432 467 c 0,43,44
 437 469 437 469 440 453 c 128,-1,45
 443 437 443 437 448 417 c 0,46,47
 448 414 448 414 443.5 410.5 c 128,-1,48
 439 407 439 407 432.5 403 c 128,-1,49
 426 399 426 399 419 396 c 128,-1,50
 412 393 412 393 406 390 c 2,51,-1
 306 341 l 1,52,-1
 273 199 l 2,53,54
 269 181 269 181 264.5 159.5 c 128,-1,55
 260 138 260 138 257.5 118.5 c 128,-1,56
 255 99 255 99 255 83.5 c 128,-1,57
 255 68 255 68 260 62 c 0,58,59
 279 43 279 43 308.5 39 c 128,-1,60
 338 35 338 35 367.5 39.5 c 128,-1,61
 397 44 397 44 422.5 53 c 128,-1,62
 448 62 448 62 458 68 c 0,63,64
 475 77 475 77 496.5 99.5 c 128,-1,65
 518 122 518 122 537.5 146.5 c 128,-1,66
 557 171 557 171 571.5 190.5 c 128,-1,67
 586 210 586 210 590 213 c 0,68,69
 600 220 600 220 609.5 217.5 c 128,-1,70
 619 215 619 215 621 206 c 1,71,72
 589 166 589 166 566.5 126.5 c 128,-1,73
 544 87 544 87 529 55.5 c 128,-1,74
 514 24 514 24 504.5 4.5 c 128,-1,75
 495 -15 495 -15 489 -15 c 0,76,77
 428 -15 428 -15 364.5 -6 c 128,-1,78
 301 3 301 3 240 3 c 0,79,80
 209 3 209 3 186 1 c 128,-1,81
 163 -1 163 -1 141.5 -3 c 128,-1,82
 120 -5 120 -5 96.5 -7 c 128,-1,83
 73 -9 73 -9 43 -9 c 0,84,85
 37 -9 37 -9 34.5 -4 c 128,-1,86
 32 1 32 1 33 7 c 0,87,88
 36 21 36 21 46.5 24.5 c 128,-1,89
 57 28 57 28 71 29 c 128,-1,90
 85 30 85 30 101.5 32.5 c 128,-1,91
 118 35 118 35 134 48 c 0,92,93
 148 60 148 60 158 88 c 128,-1,94
 168 116 168 116 177 151.5 c 128,-1,95
 186 187 186 187 192.5 224.5 c 128,-1,96
 199 262 199 262 205 292 c 1,97,-1
 164 272 l 2,98,99
 160 270 160 270 152 266.5 c 128,-1,100
 144 263 144 263 136 260 c 128,-1,101
 128 257 128 257 122.5 255.5 c 128,-1,102
 117 254 117 254 117 256 c 0,103,104
 114 261 114 261 113 270.5 c 128,-1,105
 112 280 112 280 107 304 c 0,0,1
EndSplineSet
EndChar

StartChar: lslash
Encoding: 29 29 14
Width: 294
GlyphClass: 2
Flags: W
LayerCount: 2
Fore
SplineSet
266 7 m 0,0,1
 263 -4 263 -4 253 -7 c 0,2,3
 252 -8 252 -8 248 -8 c 2,4,-1
 245 -8 l 2,5,6
 224 -8 224 -8 202.5 -5.5 c 128,-1,7
 181 -3 181 -3 159 -3 c 0,8,9
 132 -3 132 -3 105.5 -6 c 128,-1,10
 79 -9 79 -9 52 -9 c 0,11,12
 47 -9 47 -9 38 -7.5 c 128,-1,13
 29 -6 29 -6 31 2 c 0,14,15
 34 15 34 15 40 16.5 c 128,-1,16
 46 18 46 18 59 22 c 0,17,18
 76 27 76 27 91.5 33.5 c 128,-1,19
 107 40 107 40 118 58 c 0,20,21
 123 66 123 66 126.5 78 c 128,-1,22
 130 90 130 90 132 99 c 2,23,-1
 185 328 l 1,24,-1
 134 303 l 2,25,26
 130 301 130 301 121.5 297.5 c 128,-1,27
 113 294 113 294 105.5 291 c 128,-1,28
 98 288 98 288 92 286.5 c 128,-1,29
 86 285 86 285 87 287 c 0,30,31
 84 292 84 292 82.5 301.5 c 128,-1,32
 81 311 81 311 76 335 c 0,33,34
 76 338 76 338 82.5 342.5 c 128,-1,35
 89 347 89 347 98 351.5 c 128,-1,36
 107 356 107 356 117 360.5 c 128,-1,37
 127 365 127 365 132 368 c 0,38,39
 140 371 140 371 153 378 c 128,-1,40
 166 385 166 385 203 402 c 1,41,-1
 216 461 l 2,42,43
 222 489 222 489 229 516 c 128,-1,44
 236 543 236 543 242 570 c 2,45,-1
 256 630 l 2,46,47
 259 645 259 645 262 662.5 c 128,-1,48
 265 680 265 680 257 692 c 0,49,50
 254 696 254 696 248.5 700 c 128,-1,51
 243 704 243 704 236.5 708 c 128,-1,52
 230 712 230 712 225.5 716 c 128,-1,53
 221 720 221 720 222 725 c 0,54,55
 222 727 222 727 223 729 c 0,56,57
 224 732 224 732 226 732 c 0,58,59
 234 732 234 732 255.5 738.5 c 128,-1,60
 277 745 277 745 300 753.5 c 128,-1,61
 323 762 323 762 340 770 c 128,-1,62
 357 778 357 778 358 782 c 2,63,64
 358 782 358 782 363 778 c 1,65,66
 360 764 360 764 357.5 751 c 128,-1,67
 355 738 355 738 351 724 c 2,68,-1
 334 650 l 2,69,70
 326 616 326 616 318 583 c 128,-1,71
 310 550 310 550 302 515 c 2,72,-1
 285 442 l 1,73,74
 298 448 298 448 308 453 c 128,-1,75
 318 458 318 458 328.5 463.5 c 128,-1,76
 339 469 339 469 352 475.5 c 128,-1,77
 365 482 365 482 383 491 c 0,78,79
 388 493 388 493 391.5 477 c 128,-1,80
 395 461 395 461 399 441 c 0,81,82
 399 438 399 438 395 434.5 c 128,-1,83
 391 431 391 431 384.5 427 c 128,-1,84
 378 423 378 423 370.5 420 c 128,-1,85
 363 417 363 417 357 414 c 2,86,-1
 268 369 l 1,87,-1
 201 76 l 2,88,89
 193 43 193 43 207.5 34.5 c 128,-1,90
 222 26 222 26 246 23 c 0,91,92
 247 21 247 21 249.5 21.5 c 128,-1,93
 252 22 252 22 254 22 c 0,94,95
 269 22 269 22 266 7 c 0,0,1
EndSplineSet
EndChar

StartChar: Zcaron
Encoding: 30 30 15
Width: 702
GlyphClass: 2
Flags: W
LayerCount: 2
Fore
SplineSet
685 941 m 0,0,1
 691 941 691 941 689 934 c 0,2,3
 688 931 688 931 678.5 917 c 128,-1,4
 669 903 669 903 655 884 c 128,-1,5
 641 865 641 865 624.5 843 c 128,-1,6
 608 821 608 821 592.5 802 c 128,-1,7
 577 783 577 783 565 769 c 128,-1,8
 553 755 553 755 549 752 c 1,9,10
 542 757 542 757 541 760 c 0,11,12
 525 808 525 808 510.5 850.5 c 128,-1,13
 496 893 496 893 491 930 c 0,14,15
 491 936 491 936 491 938 c 0,16,17
 493 946 493 946 501 945 c 0,18,19
 505 944 505 944 513 929.5 c 128,-1,20
 521 915 521 915 530.5 896 c 128,-1,21
 540 877 540 877 549.5 859.5 c 128,-1,22
 559 842 559 842 568 835 c 1,23,24
 580 842 580 842 596.5 859.5 c 128,-1,25
 613 877 613 877 629.5 895 c 128,-1,26
 646 913 646 913 661 927 c 128,-1,27
 676 941 676 941 685 941 c 0,0,1
252 732 m 0,28,29
 262 732 262 732 266.5 731 c 128,-1,30
 271 730 271 730 274.5 728.5 c 128,-1,31
 278 727 278 727 282.5 725 c 128,-1,32
 287 723 287 723 297 722 c 1,33,34
 304 716 304 716 320.5 714 c 128,-1,35
 337 712 337 712 352 712 c 2,36,-1
 369 712 l 2,37,38
 411 712 411 712 462.5 713 c 128,-1,39
 514 714 514 714 567.5 714.5 c 128,-1,40
 621 715 621 715 673 716 c 128,-1,41
 725 717 725 717 767 717 c 0,42,43
 776 717 776 717 790.5 719.5 c 128,-1,44
 805 722 805 722 817 723 c 128,-1,45
 829 724 829 724 836 720 c 128,-1,46
 843 716 843 716 837 704 c 0,47,48
 837 703 837 703 816.5 682.5 c 128,-1,49
 796 662 796 662 762 629 c 128,-1,50
 728 596 728 596 684 553.5 c 128,-1,51
 640 511 640 511 594 466 c 128,-1,52
 548 421 548 421 502 376.5 c 128,-1,53
 456 332 456 332 418 294.5 c 128,-1,54
 380 257 380 257 353 230.5 c 128,-1,55
 326 204 326 204 317 195 c 0,56,57
 307 184 307 184 287 164.5 c 128,-1,58
 267 145 267 145 246 123.5 c 128,-1,59
 225 102 225 102 208 82.5 c 128,-1,60
 191 63 191 63 186 51 c 0,61,62
 184 43 184 43 189.5 39 c 128,-1,63
 195 35 195 35 203 34 c 128,-1,64
 211 33 211 33 220.5 33.5 c 128,-1,65
 230 34 230 34 237 34 c 0,66,67
 279 34 279 34 328 34.5 c 128,-1,68
 377 35 377 35 419 35 c 0,69,70
 452 35 452 35 490 36.5 c 128,-1,71
 528 38 528 38 563 48 c 0,72,73
 589 58 589 58 605.5 75.5 c 128,-1,74
 622 93 622 93 640 116 c 0,75,76
 648 127 648 127 655 140.5 c 128,-1,77
 662 154 662 154 669.5 164 c 128,-1,78
 677 174 677 174 684.5 176.5 c 128,-1,79
 692 179 692 179 701 169 c 1,80,81
 700 152 700 152 696 137 c 0,82,83
 692 120 692 120 684 102.5 c 128,-1,84
 676 85 676 85 669 68 c 0,85,86
 664 56 664 56 659.5 42.5 c 128,-1,87
 655 29 655 29 649 17.5 c 128,-1,88
 643 6 643 6 633.5 -1 c 128,-1,89
 624 -8 624 -8 610 -8 c 0,90,91
 575 -8 575 -8 540 -6 c 128,-1,92
 505 -4 505 -4 469 -4 c 2,93,-1
 388 -4 l 2,94,95
 303 -4 303 -4 211 -7.5 c 128,-1,96
 119 -11 119 -11 34 -11 c 0,97,98
 19 -11 19 -11 23 4 c 0,99,100
 23 6 23 6 43 26.5 c 128,-1,101
 63 47 63 47 95.5 80.5 c 128,-1,102
 128 114 128 114 170.5 156.5 c 128,-1,103
 213 199 213 199 257.5 244 c 128,-1,104
 302 289 302 289 346.5 333.5 c 128,-1,105
 391 378 391 378 427.5 414.5 c 128,-1,106
 464 451 464 451 490.5 477.5 c 128,-1,107
 517 504 517 504 525 513 c 0,108,109
 534 522 534 522 556.5 543 c 128,-1,110
 579 564 579 564 603 586.5 c 128,-1,111
 627 609 627 609 647 629 c 128,-1,112
 667 649 667 649 672 656 c 0,113,114
 674 658 674 658 678 663.5 c 128,-1,115
 682 669 682 669 684 672 c 0,116,117
 686 676 686 676 679 677.5 c 128,-1,118
 672 679 672 679 662 679 c 0,119,120
 653 679 653 679 643.5 678.5 c 128,-1,121
 634 678 634 678 631 678 c 2,122,-1
 566 678 l 2,123,124
 539 678 539 678 510 677.5 c 128,-1,125
 481 677 481 677 452.5 676.5 c 128,-1,126
 424 676 424 676 397.5 675.5 c 128,-1,127
 371 675 371 675 350 674 c 0,128,129
 320 672 320 672 294 664 c 128,-1,130
 268 656 268 656 241 631 c 0,131,132
 232 623 232 623 222.5 611 c 128,-1,133
 213 599 213 599 204.5 587 c 128,-1,134
 196 575 196 575 187.5 566.5 c 128,-1,135
 179 558 179 558 173 558 c 0,136,137
 168 558 168 558 160 560.5 c 128,-1,138
 152 563 152 563 156 571 c 0,139,140
 168 597 168 597 181.5 623 c 128,-1,141
 195 649 195 649 208 675 c 0,142,143
 221 697 221 697 230 714.5 c 128,-1,144
 239 732 239 732 252 732 c 0,28,29
EndSplineSet
EndChar

StartChar: zcaron
Encoding: 31 31 16
Width: 431
GlyphClass: 2
Flags: W
LayerCount: 2
Fore
SplineSet
469 689 m 0,0,1
 475 689 475 689 473 682 c 0,2,3
 472 679 472 679 463 665 c 128,-1,4
 454 651 454 651 440 632 c 128,-1,5
 426 613 426 613 409 591 c 128,-1,6
 392 569 392 569 377 550 c 128,-1,7
 362 531 362 531 350 517 c 128,-1,8
 338 503 338 503 333 500 c 1,9,10
 326 505 326 505 326 508 c 0,11,12
 310 556 310 556 295 598.5 c 128,-1,13
 280 641 280 641 276 678 c 0,14,15
 276 684 276 684 276 686 c 0,16,17
 278 694 278 694 286 693 c 0,18,19
 290 692 290 692 298 677.5 c 128,-1,20
 306 663 306 663 315 644 c 128,-1,21
 324 625 324 625 334 607.5 c 128,-1,22
 344 590 344 590 353 583 c 1,23,24
 365 590 365 590 381.5 607.5 c 128,-1,25
 398 625 398 625 414 643 c 128,-1,26
 430 661 430 661 445 675 c 128,-1,27
 460 689 460 689 469 689 c 0,0,1
411 86 m 2,28,29
 408 74 408 74 404.5 60 c 128,-1,30
 401 46 401 46 396.5 33.5 c 128,-1,31
 392 21 392 21 388 11.5 c 128,-1,32
 384 2 384 2 381 0 c 0,33,34
 376 -7 376 -7 370.5 -3.5 c 128,-1,35
 365 0 365 0 358 0 c 0,36,37
 288 0 288 0 223 -1 c 128,-1,38
 158 -2 158 -2 88 -2 c 2,39,-1
 75 -2 l 2,40,41
 68 -2 68 -2 59.5 -1.5 c 128,-1,42
 51 -1 51 -1 44 0 c 128,-1,43
 37 1 37 1 32.5 3.5 c 128,-1,44
 28 6 28 6 28 9 c 0,45,46
 29 14 29 14 32 17 c 128,-1,47
 35 20 35 20 38 24 c 0,48,49
 48 36 48 36 59.5 47 c 128,-1,50
 71 58 71 58 82 69 c 0,51,52
 137 126 137 126 189 183.5 c 128,-1,53
 241 241 241 241 294 299 c 0,54,55
 302 308 302 308 316.5 323.5 c 128,-1,56
 331 339 331 339 346 355.5 c 128,-1,57
 361 372 361 372 374 387 c 128,-1,58
 387 402 387 402 392 410 c 0,59,60
 394 414 394 414 386.5 415.5 c 128,-1,61
 379 417 379 417 368.5 417.5 c 128,-1,62
 358 418 358 418 347.5 417.5 c 128,-1,63
 337 417 337 417 332 417 c 2,64,-1
 303 417 l 2,65,66
 279 417 279 417 252.5 416.5 c 128,-1,67
 226 416 226 416 206 411 c 0,68,69
 189 408 189 408 178.5 399 c 128,-1,70
 168 390 168 390 158.5 380 c 128,-1,71
 149 370 149 370 141 362.5 c 128,-1,72
 133 355 133 355 121 355 c 0,73,74
 116 355 116 355 112 356.5 c 128,-1,75
 108 358 108 358 112 365 c 0,76,77
 117 375 117 375 119 379 c 128,-1,78
 121 383 121 383 123 386 c 128,-1,79
 125 389 125 389 127.5 393 c 128,-1,80
 130 397 130 397 135 407 c 0,81,82
 139 415 139 415 143.5 424 c 128,-1,83
 148 433 148 433 152 441 c 0,84,85
 155 447 155 447 160.5 452.5 c 128,-1,86
 166 458 166 458 173 458 c 0,87,88
 186 458 186 458 195 453.5 c 128,-1,89
 204 449 204 449 224 449 c 2,90,-1
 369 449 l 2,91,92
 386 449 386 449 403.5 450 c 128,-1,93
 421 451 421 451 437 451 c 2,94,-1
 451 451 l 2,95,96
 464 451 464 451 479.5 449 c 128,-1,97
 495 447 495 447 499 442 c 0,98,99
 502 435 502 435 496 427 c 0,100,101
 436 361 436 361 378 297.5 c 128,-1,102
 320 234 320 234 260 168 c 0,103,104
 234 139 234 139 201.5 105.5 c 128,-1,105
 169 72 169 72 149 40 c 0,106,107
 146 35 146 35 154 35 c 2,108,-1
 207 35 l 2,109,110
 227 35 227 35 249.5 35.5 c 128,-1,111
 272 36 272 36 293.5 38.5 c 128,-1,112
 315 41 315 41 331.5 44.5 c 128,-1,113
 348 48 348 48 356 54 c 256,114,115
 364 60 364 60 370 70.5 c 128,-1,116
 376 81 376 81 381 91.5 c 128,-1,117
 386 102 386 102 390.5 112 c 128,-1,118
 395 122 395 122 401 127 c 1,119,-1
 405 127 l 2,120,121
 415 128 415 128 416.5 123 c 128,-1,122
 418 118 418 118 416 109 c 2,123,-1
 411 86 l 2,28,29
EndSplineSet
EndChar

StartChar: exclam
Encoding: 33 33 18
Width: 222
GlyphClass: 2
Flags: W
LayerCount: 2
Fore
SplineSet
176 45 m 0,0,1
 170 17 170 17 148 1 c 128,-1,2
 126 -15 126 -15 101 -15 c 0,3,4
 79 -15 79 -15 68.5 4 c 128,-1,5
 58 23 58 23 63 46 c 0,6,7
 69 72 69 72 89.5 90.5 c 128,-1,8
 110 109 110 109 135 109 c 0,9,10
 157 109 157 109 169.5 89 c 128,-1,11
 182 69 182 69 176 45 c 0,0,1
218 700 m 0,12,13
 221 715 221 715 225 720 c 128,-1,14
 229 725 229 725 236 725.5 c 128,-1,15
 243 726 243 726 253.5 724 c 128,-1,16
 264 722 264 722 281 722 c 0,17,18
 295 722 295 722 306.5 723.5 c 128,-1,19
 318 725 318 725 326 725 c 0,20,21
 336 725 336 725 340 720.5 c 128,-1,22
 344 716 344 716 338 700 c 0,23,24
 326 663 326 663 304.5 601.5 c 128,-1,25
 283 540 283 540 259.5 471 c 128,-1,26
 236 402 236 402 211.5 333.5 c 128,-1,27
 187 265 187 265 168 215 c 0,28,29
 166 210 166 210 159.5 211 c 128,-1,30
 153 212 153 212 150 215 c 0,31,32
 158 269 158 269 166 331.5 c 128,-1,33
 174 394 174 394 181.5 458 c 128,-1,34
 189 522 189 522 198.5 584.5 c 128,-1,35
 208 647 208 647 218 700 c 0,12,13
EndSplineSet
EndChar

StartChar: quotedbl
Encoding: 34 34 19
Width: 274
GlyphClass: 2
Flags: W
LayerCount: 2
Fore
SplineSet
368 728 m 2,0,1
 374 728 374 728 380.5 727.5 c 128,-1,2
 387 727 387 727 398 727 c 0,3,4
 406 730 406 730 407.5 722.5 c 128,-1,5
 409 715 409 715 406 710 c 0,6,7
 402 699 402 699 392 670.5 c 128,-1,8
 382 642 382 642 371.5 610.5 c 128,-1,9
 361 579 361 579 351 552.5 c 128,-1,10
 341 526 341 526 337 520 c 0,11,12
 334 515 334 515 329 513 c 128,-1,13
 324 511 324 511 319 511.5 c 128,-1,14
 314 512 314 512 310 515.5 c 128,-1,15
 306 519 306 519 306 525 c 0,16,17
 307 538 307 538 309.5 564 c 128,-1,18
 312 590 312 590 315.5 618 c 128,-1,19
 319 646 319 646 322.5 671.5 c 128,-1,20
 326 697 326 697 329 711 c 0,21,22
 330 720 330 720 333.5 724 c 128,-1,23
 337 728 337 728 347 728 c 2,24,-1
 368 728 l 2,0,1
237 728 m 2,25,26
 243 728 243 728 249 727.5 c 128,-1,27
 255 727 255 727 267 727 c 0,28,29
 275 730 275 730 276.5 722.5 c 128,-1,30
 278 715 278 715 275 710 c 0,31,32
 271 699 271 699 261 670.5 c 128,-1,33
 251 642 251 642 240.5 610.5 c 128,-1,34
 230 579 230 579 220 552.5 c 128,-1,35
 210 526 210 526 206 520 c 0,36,37
 203 515 203 515 198 513 c 128,-1,38
 193 511 193 511 188 511.5 c 128,-1,39
 183 512 183 512 179 515.5 c 128,-1,40
 175 519 175 519 175 525 c 0,41,42
 176 538 176 538 178.5 564 c 128,-1,43
 181 590 181 590 184 618 c 128,-1,44
 187 646 187 646 191 671.5 c 128,-1,45
 195 697 195 697 198 711 c 0,46,47
 199 720 199 720 202 724 c 128,-1,48
 205 728 205 728 216 728 c 2,49,-1
 237 728 l 2,25,26
EndSplineSet
EndChar

StartChar: numbersign
Encoding: 35 35 20
Width: 474
GlyphClass: 2
Flags: W
LayerCount: 2
Fore
SplineSet
369 328 m 1,0,1
 349 328 349 328 326.5 327.5 c 128,-1,2
 304 327 304 327 279 327 c 1,3,4
 265 296 265 296 256 273.5 c 128,-1,5
 247 251 247 251 238 232 c 1,6,-1
 328 232 l 1,7,8
 338 256 338 256 348.5 279.5 c 128,-1,9
 359 303 359 303 369 328 c 1,0,1
529 360 m 2,10,11
 527 352 527 352 524.5 342.5 c 128,-1,12
 522 333 522 333 516 327 c 1,13,14
 507 328 507 328 496 328 c 0,15,16
 487 328 487 328 475 328 c 2,17,-1
 418 328 l 1,18,19
 404 296 404 296 394.5 273.5 c 128,-1,20
 385 251 385 251 376 232 c 1,21,-1
 457 232 l 1,22,23
 465 214 465 214 459.5 199.5 c 128,-1,24
 454 185 454 185 443 168 c 1,25,26
 422 167 422 167 398 166.5 c 128,-1,27
 374 166 374 166 349 166 c 1,28,29
 337 137 337 137 323 100.5 c 128,-1,30
 309 64 309 64 285 2 c 1,31,32
 280 2 280 2 268.5 1 c 128,-1,33
 257 0 257 0 234 2 c 1,34,35
 254 53 254 53 270 92.5 c 128,-1,36
 286 132 286 132 301 166 c 1,37,-1
 211 166 l 1,38,39
 199 137 199 137 184.5 100.5 c 128,-1,40
 170 64 170 64 147 2 c 1,41,42
 142 2 142 2 130 1 c 128,-1,43
 118 0 118 0 95 2 c 1,44,45
 115 53 115 53 131.5 92.5 c 128,-1,46
 148 132 148 132 162 167 c 1,47,48
 137 167 137 167 116 167.5 c 128,-1,49
 95 168 95 168 78 169 c 1,50,51
 80 178 80 178 79.5 185 c 128,-1,52
 79 192 79 192 81 201 c 0,53,54
 82 207 82 207 86.5 216 c 128,-1,55
 91 225 91 225 93 231 c 1,56,57
 110 231 110 231 135 231.5 c 128,-1,58
 160 232 160 232 190 232 c 1,59,60
 200 256 200 256 210 279 c 128,-1,61
 220 302 220 302 230 327 c 1,62,-1
 157 327 l 1,63,64
 151 344 151 344 152.5 356.5 c 128,-1,65
 154 369 154 369 171 391 c 1,66,67
 192 391 192 391 213 390.5 c 128,-1,68
 234 390 234 390 256 390 c 1,69,70
 269 423 269 423 284 462.5 c 128,-1,71
 299 502 299 502 318 551 c 1,72,73
 328 554 328 554 345 554 c 0,74,75
 352 554 352 554 359 553.5 c 128,-1,76
 366 553 366 553 370 552 c 1,77,78
 356 510 356 510 340 470 c 128,-1,79
 324 430 324 430 306 390 c 1,80,81
 330 390 330 390 351.5 389.5 c 128,-1,82
 373 389 373 389 394 389 c 1,83,84
 407 423 407 423 422 461.5 c 128,-1,85
 437 500 437 500 457 551 c 1,86,87
 467 554 467 554 483 554 c 0,88,89
 490 554 490 554 497 553.5 c 128,-1,90
 504 553 504 553 509 552 c 1,91,92
 495 510 495 510 478.5 470.5 c 128,-1,93
 462 431 462 431 444 389 c 1,94,-1
 534 389 l 1,95,96
 534 379 534 379 532 374 c 2,97,-1
 529 360 l 2,10,11
EndSplineSet
EndChar

StartChar: dollar
Encoding: 36 36 21
Width: 482
GlyphClass: 2
Flags: W
LayerCount: 2
Fore
SplineSet
254 587 m 0,0,1
 243 540 243 540 265 507 c 128,-1,2
 287 474 287 474 323 448 c 1,3,4
 340 523 340 523 355 586 c 128,-1,5
 370 649 370 649 383 703 c 1,6,7
 339 697 339 697 302.5 667.5 c 128,-1,8
 266 638 266 638 254 587 c 0,0,1
396 152 m 0,9,10
 408 206 408 206 385.5 240.5 c 128,-1,11
 363 275 363 275 325 303 c 1,12,-1
 259 17 l 1,13,14
 308 25 308 25 346 60 c 128,-1,15
 384 95 384 95 396 152 c 0,9,10
421 800 m 2,16,17
 426 800 426 800 431.5 799.5 c 128,-1,18
 437 799 437 799 439 795 c 0,19,20
 437 789 437 789 435 782 c 0,21,22
 434 776 434 776 432 769 c 256,23,24
 430 762 430 762 429 754 c 0,25,26
 427 747 427 747 425 739 c 1,27,28
 443 737 443 737 462.5 727 c 128,-1,29
 482 717 482 717 495 707 c 0,30,31
 504 701 504 701 510.5 706.5 c 128,-1,32
 517 712 517 712 524 722 c 128,-1,33
 531 732 531 732 540 741 c 128,-1,34
 549 750 549 750 563 750 c 0,35,36
 570 750 570 750 569 740 c 128,-1,37
 568 730 568 730 565 716 c 256,38,39
 562 702 562 702 557 687 c 128,-1,40
 552 672 552 672 550 661 c 0,41,42
 539 609 539 609 523 557 c 0,43,44
 519 548 519 548 515.5 545 c 128,-1,45
 512 542 512 542 508 542 c 256,46,47
 504 542 504 542 501 543 c 128,-1,48
 498 544 498 544 495 544 c 0,49,50
 489 544 489 544 487.5 553 c 128,-1,51
 486 562 486 562 486 574.5 c 128,-1,52
 486 587 486 587 486.5 600.5 c 128,-1,53
 487 614 487 614 484 624 c 0,54,55
 479 657 479 657 460 677 c 128,-1,56
 441 697 441 697 416 702 c 1,57,-1
 353 428 l 1,58,59
 377 413 377 413 400.5 398.5 c 128,-1,60
 424 384 424 384 443 369 c 0,61,62
 476 341 476 341 487.5 296 c 128,-1,63
 499 251 499 251 488 200 c 0,64,65
 465 100 465 100 400.5 44.5 c 128,-1,66
 336 -11 336 -11 250 -21 c 1,67,68
 247 -31 247 -31 245 -39 c 0,69,70
 243 -48 243 -48 241 -56 c 256,71,72
 239 -64 239 -64 238 -71 c 0,73,74
 236 -79 236 -79 233 -86 c 1,75,-1
 215 -86 l 2,76,77
 204 -86 204 -86 201 -85 c 0,78,79
 201 -79 201 -79 203 -72 c 256,80,81
 205 -65 205 -65 206 -57 c 2,82,-1
 214 -24 l 1,83,84
 196 -24 196 -24 182 -19 c 128,-1,85
 168 -14 168 -14 156 -8.5 c 128,-1,86
 144 -3 144 -3 133.5 2 c 128,-1,87
 123 7 123 7 114 7 c 0,88,89
 103 7 103 7 96.5 0.5 c 128,-1,90
 90 -6 90 -6 83.5 -14.5 c 128,-1,91
 77 -23 77 -23 69 -29.5 c 128,-1,92
 61 -36 61 -36 47 -36 c 0,93,94
 40 -36 40 -36 41 -23.5 c 128,-1,95
 42 -11 42 -11 46 6 c 256,96,97
 50 23 50 23 55.5 41 c 128,-1,98
 61 59 61 59 64 70 c 0,99,100
 70 96 70 96 75 117 c 128,-1,101
 80 138 80 138 88 164 c 0,102,103
 91 173 91 173 95 176 c 128,-1,104
 99 179 99 179 103 179 c 256,105,106
 107 179 107 179 109.5 178 c 128,-1,107
 112 177 112 177 115 177 c 0,108,109
 122 177 122 177 123.5 168.5 c 128,-1,110
 125 160 125 160 125 147.5 c 128,-1,111
 125 135 125 135 125 121 c 128,-1,112
 125 107 125 107 127 97 c 0,113,114
 133 60 133 60 160.5 39 c 128,-1,115
 188 18 188 18 223 15 c 1,116,-1
 294 324 l 1,117,118
 266 343 266 343 239 362.5 c 128,-1,119
 212 382 212 382 192.5 406.5 c 128,-1,120
 173 431 173 431 164.5 463 c 128,-1,121
 156 495 156 495 166 539 c 256,122,123
 176 583 176 583 198 618.5 c 128,-1,124
 220 654 220 654 250 679.5 c 128,-1,125
 280 705 280 705 316 720 c 128,-1,126
 352 735 352 735 391 739 c 1,127,-1
 405 798 l 1,128,129
 411 800 411 800 413 800 c 2,130,-1
 421 800 l 2,16,17
EndSplineSet
EndChar

StartChar: percent
Encoding: 37 37 22
Width: 723
GlyphClass: 2
Flags: W
LayerCount: 2
Fore
SplineSet
647 145 m 0,0,1
 658 194 658 194 640.5 223 c 128,-1,2
 623 252 623 252 587 252 c 0,3,4
 558 252 558 252 527.5 224.5 c 128,-1,5
 497 197 497 197 485 152 c 0,6,7
 471 101 471 101 489.5 75.5 c 128,-1,8
 508 50 508 50 543 50 c 0,9,10
 574 50 574 50 604.5 74 c 128,-1,11
 635 98 635 98 647 145 c 0,0,1
399 550 m 0,12,13
 410 599 410 599 392.5 628 c 128,-1,14
 375 657 375 657 340 657 c 0,15,16
 311 657 311 657 280 629.5 c 128,-1,17
 249 602 249 602 237 557 c 0,18,19
 223 506 223 506 241.5 480.5 c 128,-1,20
 260 455 260 455 295 455 c 0,21,22
 326 455 326 455 356.5 479 c 128,-1,23
 387 503 387 503 399 550 c 0,12,13
757 646 m 1,24,25
 721 604 721 604 683.5 564.5 c 128,-1,26
 646 525 646 525 607 485 c 0,27,28
 492 365 492 365 378.5 248 c 128,-1,29
 265 131 265 131 154 7 c 1,30,31
 150 9 150 9 140 18 c 128,-1,32
 130 27 130 27 110 35 c 1,33,34
 260 197 260 197 411.5 353 c 128,-1,35
 563 509 563 509 713 674 c 1,36,37
 723 674 723 674 735.5 663 c 128,-1,38
 748 652 748 652 757 646 c 1,24,25
714 155 m 0,39,40
 706 121 706 121 688.5 91 c 128,-1,41
 671 61 671 61 646 38.5 c 128,-1,42
 621 16 621 16 591 2.5 c 128,-1,43
 561 -11 561 -11 529 -11 c 0,44,45
 496 -11 496 -11 470.5 0 c 128,-1,46
 445 11 445 11 430.5 32 c 128,-1,47
 416 53 416 53 412 82 c 128,-1,48
 408 111 408 111 416 147 c 0,49,50
 424 181 424 181 441.5 211 c 128,-1,51
 459 241 459 241 484 263.5 c 128,-1,52
 509 286 509 286 539 299 c 128,-1,53
 569 312 569 312 601 312 c 0,54,55
 631 312 631 312 655 300 c 128,-1,56
 679 288 679 288 695 267 c 128,-1,57
 711 246 711 246 716.5 217 c 128,-1,58
 722 188 722 188 714 155 c 0,39,40
466 560 m 0,59,60
 458 526 458 526 440.5 496 c 128,-1,61
 423 466 423 466 398 443.5 c 128,-1,62
 373 421 373 421 343 407.5 c 128,-1,63
 313 394 313 394 281 394 c 0,64,65
 248 394 248 394 222.5 405 c 128,-1,66
 197 416 197 416 182.5 437 c 128,-1,67
 168 458 168 458 164 487 c 128,-1,68
 160 516 160 516 168 552 c 0,69,70
 176 586 176 586 193.5 616 c 128,-1,71
 211 646 211 646 236 668.5 c 128,-1,72
 261 691 261 691 291 704 c 128,-1,73
 321 717 321 717 353 717 c 0,74,75
 383 717 383 717 407.5 705 c 128,-1,76
 432 693 432 693 447.5 672 c 128,-1,77
 463 651 463 651 468.5 622 c 128,-1,78
 474 593 474 593 466 560 c 0,59,60
EndSplineSet
EndChar

StartChar: ampersand
Encoding: 38 38 23
Width: 734
GlyphClass: 2
Flags: W
LayerCount: 2
Fore
SplineSet
486 535 m 0,0,1
 495 573 495 573 481.5 598.5 c 128,-1,2
 468 624 468 624 431 624 c 0,3,4
 398 624 398 624 372.5 601 c 128,-1,5
 347 578 347 578 339 543 c 0,6,7
 334 522 334 522 338 503 c 0,8,9
 339 493 339 493 345 480.5 c 128,-1,10
 351 468 351 468 359.5 456 c 128,-1,11
 368 444 368 444 377.5 434 c 128,-1,12
 387 424 387 424 394 419 c 1,13,14
 399 421 399 421 403 423.5 c 128,-1,15
 407 426 407 426 411 428 c 0,16,17
 439 446 439 446 459 474.5 c 128,-1,18
 479 503 479 503 486 535 c 0,0,1
326 356 m 1,19,20
 274 336 274 336 233 293 c 128,-1,21
 192 250 192 250 179 193 c 0,22,23
 172 161 172 161 177 134 c 128,-1,24
 182 107 182 107 196.5 87 c 128,-1,25
 211 67 211 67 234 55.5 c 128,-1,26
 257 44 257 44 287 44 c 0,27,28
 332 44 332 44 368 64 c 128,-1,29
 404 84 404 84 442 117 c 0,30,31
 450 124 450 124 457 132.5 c 128,-1,32
 464 141 464 141 471 149 c 1,33,34
 469 164 469 164 461.5 176 c 128,-1,35
 454 188 454 188 447 202 c 0,36,37
 424 247 424 247 393.5 285.5 c 128,-1,38
 363 324 363 324 326 356 c 1,19,20
431 651 m 0,39,40
 460 651 460 651 484.5 645 c 128,-1,41
 509 639 509 639 525.5 625.5 c 128,-1,42
 542 612 542 612 548.5 590 c 128,-1,43
 555 568 555 568 548 536 c 0,44,45
 542 512 542 512 527.5 492 c 128,-1,46
 513 472 513 472 493.5 455.5 c 128,-1,47
 474 439 474 439 452 426 c 128,-1,48
 430 413 430 413 410 404 c 1,49,50
 417 396 417 396 424 389.5 c 128,-1,51
 431 383 431 383 439 375 c 0,52,53
 453 360 453 360 466.5 341 c 128,-1,54
 480 322 480 322 492 301.5 c 128,-1,55
 504 281 504 281 516.5 260.5 c 128,-1,56
 529 240 529 240 539 222 c 1,57,58
 543 224 543 224 546.5 227.5 c 128,-1,59
 550 231 550 231 552 234 c 0,60,61
 564 247 564 247 578.5 261 c 128,-1,62
 593 275 593 275 605 289 c 128,-1,63
 617 303 617 303 626.5 318 c 128,-1,64
 636 333 636 333 640 349 c 0,65,66
 644 368 644 368 641 374.5 c 128,-1,67
 638 381 638 381 633.5 383 c 128,-1,68
 629 385 629 385 625 387.5 c 128,-1,69
 621 390 621 390 624 402 c 0,70,71
 625 406 625 406 632.5 408 c 128,-1,72
 640 410 640 410 647 410 c 2,73,-1
 707 410 l 2,74,75
 727 410 727 410 748.5 412 c 128,-1,76
 770 414 770 414 791 414 c 0,77,78
 797 414 797 414 800.5 410.5 c 128,-1,79
 804 407 804 407 803 400 c 0,80,81
 801 393 801 393 795.5 389.5 c 128,-1,82
 790 386 790 386 783.5 384 c 128,-1,83
 777 382 777 382 769.5 381.5 c 128,-1,84
 762 381 762 381 756 381 c 0,85,86
 743 381 743 381 725.5 368 c 128,-1,87
 708 355 708 355 690 338 c 128,-1,88
 672 321 672 321 657.5 304.5 c 128,-1,89
 643 288 643 288 635 280 c 0,90,91
 614 258 614 258 592 234 c 128,-1,92
 570 210 570 210 549 189 c 1,93,94
 560 162 560 162 573.5 136.5 c 128,-1,95
 587 111 587 111 603.5 91 c 128,-1,96
 620 71 620 71 640.5 57.5 c 128,-1,97
 661 44 661 44 688 41 c 0,98,99
 694 38 694 38 701.5 35.5 c 128,-1,100
 709 33 709 33 713 29 c 128,-1,101
 717 25 717 25 716 18.5 c 128,-1,102
 715 12 715 12 706 1 c 0,103,104
 700 -1 700 -1 690.5 -2.5 c 128,-1,105
 681 -4 681 -4 671.5 -4.5 c 128,-1,106
 662 -5 662 -5 652.5 -5.5 c 128,-1,107
 643 -6 643 -6 636 -6 c 0,108,109
 591 -6 591 -6 566 8.5 c 128,-1,110
 541 23 541 23 526 43 c 128,-1,111
 511 63 511 63 501.5 84.5 c 128,-1,112
 492 106 492 106 480 120 c 1,113,114
 479 119 479 119 478.5 118 c 128,-1,115
 478 117 478 117 477 116 c 0,116,117
 463 99 463 99 442.5 80.5 c 128,-1,118
 422 62 422 62 399.5 44.5 c 128,-1,119
 377 27 377 27 354 12.5 c 128,-1,120
 331 -2 331 -2 313 -9 c 0,121,122
 273 -25 273 -25 227 -25 c 0,123,124
 197 -25 197 -25 174 -18 c 0,125,126
 148 -11 148 -11 128.5 5 c 128,-1,127
 109 21 109 21 98.5 43.5 c 128,-1,128
 88 66 88 66 85.5 94 c 128,-1,129
 83 122 83 122 90 153 c 2,130,-1
 94 172 l 2,131,132
 106 224 106 224 143.5 264.5 c 128,-1,133
 181 305 181 305 226 332 c 0,134,135
 244 343 244 343 267.5 353.5 c 128,-1,136
 291 364 291 364 307 378 c 0,137,138
 306 381 306 381 299 388 c 0,139,140
 282 409 282 409 270.5 441.5 c 128,-1,141
 259 474 259 474 267 507 c 0,142,143
 274 537 274 537 290 563 c 128,-1,144
 306 589 306 589 327.5 608.5 c 128,-1,145
 349 628 349 628 376 639.5 c 128,-1,146
 403 651 403 651 431 651 c 0,39,40
EndSplineSet
EndChar

StartChar: quotesingle
Encoding: 39 39 24
Width: 143
GlyphClass: 2
Flags: W
LayerCount: 2
Fore
SplineSet
237 728 m 2,0,1
 243 728 243 728 249 727.5 c 128,-1,2
 255 727 255 727 267 727 c 0,3,4
 275 730 275 730 276.5 722.5 c 128,-1,5
 278 715 278 715 275 710 c 0,6,7
 271 699 271 699 261 670.5 c 128,-1,8
 251 642 251 642 240.5 610.5 c 128,-1,9
 230 579 230 579 220 552.5 c 128,-1,10
 210 526 210 526 206 520 c 0,11,12
 203 515 203 515 198 513 c 128,-1,13
 193 511 193 511 188 511.5 c 128,-1,14
 183 512 183 512 179 515.5 c 128,-1,15
 175 519 175 519 175 525 c 0,16,17
 176 538 176 538 178.5 564 c 128,-1,18
 181 590 181 590 184 618 c 128,-1,19
 187 646 187 646 191 671.5 c 128,-1,20
 195 697 195 697 198 711 c 0,21,22
 199 720 199 720 202 724 c 128,-1,23
 205 728 205 728 216 728 c 2,24,-1
 237 728 l 2,0,1
EndSplineSet
EndChar

StartChar: parenleft
Encoding: 40 40 25
Width: 326
GlyphClass: 2
Flags: W
LayerCount: 2
Fore
SplineSet
459 717 m 0,0,1
 457 711 457 711 450 705 c 0,2,3
 408 669 408 669 378 635 c 0,4,5
 306 553 306 553 256.5 458 c 128,-1,6
 207 363 207 363 184 263 c 0,7,8
 176 227 176 227 170.5 187.5 c 128,-1,9
 165 148 165 148 164 108.5 c 128,-1,10
 163 69 163 69 166.5 32 c 128,-1,11
 170 -5 170 -5 179 -36 c 0,12,13
 190 -76 190 -76 202 -117 c 128,-1,14
 214 -158 214 -158 241 -188 c 0,15,16
 245 -197 245 -197 240 -207.5 c 128,-1,17
 235 -218 235 -218 225 -218 c 0,18,19
 217 -218 217 -218 206.5 -206 c 128,-1,20
 196 -194 196 -194 192 -188 c 0,21,22
 129 -95 129 -95 105 13 c 128,-1,23
 81 121 81 121 111 253 c 0,24,25
 124 310 124 310 148.5 368 c 128,-1,26
 173 426 173 426 207 481.5 c 128,-1,27
 241 537 241 537 282.5 587 c 128,-1,28
 324 637 324 637 370 678 c 0,29,30
 375 683 375 683 385.5 692 c 128,-1,31
 396 701 396 701 408 710 c 128,-1,32
 420 719 420 719 430.5 726 c 128,-1,33
 441 733 441 733 447 734 c 1,34,35
 456 728 456 728 459 717 c 0,0,1
EndSplineSet
EndChar

StartChar: parenright
Encoding: 41 41 26
Width: 326
GlyphClass: 2
Flags: W
LayerCount: 2
Fore
SplineSet
330 263 m 0,0,1
 310 176 310 176 265.5 91.5 c 128,-1,2
 221 7 221 7 163 -65 c 0,3,4
 147 -85 147 -85 127.5 -106.5 c 128,-1,5
 108 -128 108 -128 86 -149 c 128,-1,6
 64 -170 64 -170 41.5 -188 c 128,-1,7
 19 -206 19 -206 -3 -218 c 1,8,9
 -19 -213 -19 -213 -18 -197 c 1,10,11
 22 -158 22 -158 60.5 -117 c 128,-1,12
 99 -76 99 -76 131 -30 c 0,13,14
 178 36 178 36 209 108.5 c 128,-1,15
 240 181 240 181 258 256 c 0,16,17
 269 304 269 304 274.5 354.5 c 128,-1,18
 280 405 280 405 278.5 454 c 128,-1,19
 277 503 277 503 268.5 549 c 128,-1,20
 260 595 260 595 242 634 c 0,21,22
 225 673 225 673 214 688.5 c 128,-1,23
 203 704 203 704 198 715 c 0,24,25
 197 719 197 719 205 727.5 c 128,-1,26
 213 736 213 736 218 736 c 0,27,28
 221 736 221 736 225.5 732.5 c 128,-1,29
 230 729 230 729 234.5 724 c 128,-1,30
 239 719 239 719 243 714.5 c 128,-1,31
 247 710 247 710 249 707 c 0,32,33
 313 616 313 616 336.5 505 c 128,-1,34
 360 394 360 394 330 263 c 0,0,1
EndSplineSet
EndChar

StartChar: asterisk
Encoding: 42 42 27
Width: 482
GlyphClass: 2
Flags: W
LayerCount: 2
Fore
SplineSet
586 567 m 0,0,1
 588 557 588 557 584 553.5 c 128,-1,2
 580 550 580 550 572 547 c 0,3,4
 559 542 559 542 534 535 c 128,-1,5
 509 528 509 528 482 520.5 c 128,-1,6
 455 513 455 513 430 506.5 c 128,-1,7
 405 500 405 500 392 497 c 0,8,9
 380 493 380 493 379 501.5 c 128,-1,10
 378 510 378 510 385 517 c 0,11,12
 390 522 390 522 415 535.5 c 128,-1,13
 440 549 440 549 469.5 564.5 c 128,-1,14
 499 580 499 580 526 594 c 128,-1,15
 553 608 553 608 562 614 c 0,16,17
 567 616 567 616 573.5 615.5 c 128,-1,18
 580 615 580 615 578 606 c 0,19,20
 580 596 580 596 581 591 c 128,-1,21
 582 586 582 586 583 583 c 128,-1,22
 584 580 584 580 584.5 577 c 128,-1,23
 585 574 585 574 586 567 c 0,0,1
405 730 m 2,24,25
 408 730 408 730 412.5 729.5 c 128,-1,26
 417 729 417 729 427 729 c 0,27,28
 436 731 436 731 437 724 c 128,-1,29
 438 717 438 717 435 712 c 0,30,31
 431 701 431 701 422 672.5 c 128,-1,32
 413 644 413 644 403 613 c 128,-1,33
 393 582 393 582 384 555.5 c 128,-1,34
 375 529 375 529 370 523 c 0,35,36
 364 513 364 513 356 513 c 0,37,38
 349 513 349 513 350 527 c 0,39,40
 350 540 350 540 352 565.5 c 128,-1,41
 354 591 354 591 357 619 c 128,-1,42
 360 647 360 647 363 673 c 128,-1,43
 366 699 366 699 369 713 c 0,44,45
 372 721 372 721 375 725.5 c 128,-1,46
 378 730 378 730 388 730 c 2,47,-1
 405 730 l 2,24,25
160 324 m 0,48,49
 154 332 154 332 155 335 c 0,50,51
 156 340 156 340 164 347 c 0,52,53
 175 357 175 357 197 375 c 128,-1,54
 219 393 219 393 242.5 411.5 c 128,-1,55
 266 430 266 430 288.5 446.5 c 128,-1,56
 311 463 311 463 323 471 c 0,57,58
 334 480 334 480 339.5 474.5 c 128,-1,59
 345 469 345 469 339 458 c 0,60,61
 336 452 336 452 317 430 c 128,-1,62
 298 408 298 408 275.5 382 c 128,-1,63
 253 356 253 356 232 332.5 c 128,-1,64
 211 309 211 309 204 300 c 0,65,66
 201 295 201 295 193.5 292 c 128,-1,67
 186 289 186 289 183 297 c 0,68,69
 176 304 176 304 173.5 307 c 128,-1,70
 171 310 171 310 169.5 312 c 128,-1,71
 168 314 168 314 166 316.5 c 128,-1,72
 164 319 164 319 160 324 c 0,48,49
431 293 m 0,73,74
 417 283 417 283 408 297 c 0,75,76
 404 308 404 308 397.5 330.5 c 128,-1,77
 391 353 391 353 383 377.5 c 128,-1,78
 375 402 375 402 368.5 424.5 c 128,-1,79
 362 447 362 447 359 459 c 0,80,81
 356 470 356 470 363.5 476 c 128,-1,82
 371 482 371 482 378 476 c 0,83,84
 383 474 383 474 397 455 c 128,-1,85
 411 436 411 436 426 413 c 128,-1,86
 441 390 441 390 454.5 369 c 128,-1,87
 468 348 468 348 473 342 c 0,88,89
 477 338 477 338 476.5 331 c 128,-1,90
 476 324 476 324 468 321 c 0,91,92
 458 313 458 313 453 309 c 128,-1,93
 448 305 448 305 445.5 303 c 128,-1,94
 443 301 443 301 440.5 299 c 128,-1,95
 438 297 438 297 431 293 c 0,73,74
157 566 m 0,96,97
 161 573 161 573 163.5 576 c 128,-1,98
 166 579 166 579 167.5 582 c 128,-1,99
 169 585 169 585 172 589.5 c 128,-1,100
 175 594 175 594 182 605 c 0,101,102
 185 615 185 615 192 615 c 128,-1,103
 199 615 199 615 203 610 c 0,104,105
 210 604 210 604 230 590.5 c 128,-1,106
 250 577 250 577 272 561.5 c 128,-1,107
 294 546 294 546 312 532.5 c 128,-1,108
 330 519 330 519 333 514 c 0,109,110
 338 506 338 506 332 497.5 c 128,-1,111
 326 489 326 489 315 492 c 0,112,113
 305 495 305 495 283 501.5 c 128,-1,114
 261 508 261 508 237 516 c 128,-1,115
 213 524 213 524 191 531.5 c 128,-1,116
 169 539 169 539 160 545 c 0,117,118
 153 548 153 548 151.5 552 c 128,-1,119
 150 556 150 556 157 566 c 0,96,97
EndSplineSet
EndChar

StartChar: plus
Encoding: 43 43 28
Width: 444
GlyphClass: 2
Flags: W
LayerCount: 2
Fore
SplineSet
232 47 m 2,0,1
 225 47 225 47 216.5 47.5 c 128,-1,2
 208 48 208 48 203 53 c 1,3,4
 211 79 211 79 219.5 117 c 128,-1,5
 228 155 228 155 242 217 c 1,6,-1
 94 217 l 1,7,8
 88 234 88 234 90 246.5 c 128,-1,9
 92 259 92 259 109 281 c 1,10,11
 128 280 128 280 147 280 c 256,12,13
 166 280 166 280 184 280 c 2,14,-1
 256 280 l 1,15,-1
 292 439 l 1,16,17
 310 450 310 450 322 451 c 128,-1,18
 334 452 334 452 352 439 c 1,19,20
 346 418 346 418 341 397 c 0,21,22
 336 377 336 377 332 357 c 2,23,-1
 314 279 l 1,24,-1
 471 279 l 1,25,26
 471 269 471 269 469 264 c 2,27,-1
 466 250 l 2,28,29
 464 242 464 242 461.5 232.5 c 128,-1,30
 459 223 459 223 453 217 c 1,31,32
 429 219 429 219 393 218.5 c 128,-1,33
 357 218 357 218 299 218 c 1,34,-1
 260 49 l 1,35,36
 250 47 250 47 245 47 c 2,37,-1
 232 47 l 2,0,1
EndSplineSet
EndChar

StartChar: comma
Encoding: 44 44 29
Width: 237
GlyphClass: 2
Flags: W
LayerCount: 2
Fore
SplineSet
194 -9 m 0,0,1
 186 -44 186 -44 164.5 -75 c 128,-1,2
 143 -106 143 -106 114 -130 c 0,3,4
 92 -149 92 -149 64.5 -165.5 c 128,-1,5
 37 -182 37 -182 18 -185 c 0,6,7
 13 -186 13 -186 9.5 -180 c 128,-1,8
 6 -174 6 -174 8 -169 c 0,9,10
 11 -162 11 -162 28 -152.5 c 128,-1,11
 45 -143 45 -143 64.5 -128.5 c 128,-1,12
 84 -114 84 -114 102 -94.5 c 128,-1,13
 120 -75 120 -75 126 -49 c 0,14,15
 130 -33 130 -33 128 -24.5 c 128,-1,16
 126 -16 126 -16 120.5 -11.5 c 128,-1,17
 115 -7 115 -7 106 -4 c 128,-1,18
 97 -1 97 -1 87 4 c 0,19,20
 73 12 73 12 64 22.5 c 128,-1,21
 55 33 55 33 60 53 c 0,22,23
 63 68 63 68 71.5 78.5 c 128,-1,24
 80 89 80 89 91 95.5 c 128,-1,25
 102 102 102 102 114.5 105 c 128,-1,26
 127 108 127 108 139 108 c 0,27,28
 159 108 159 108 171.5 96.5 c 128,-1,29
 184 85 184 85 190.5 67.5 c 128,-1,30
 197 50 197 50 197.5 29.5 c 128,-1,31
 198 9 198 9 194 -9 c 0,0,1
EndSplineSet
EndChar

StartChar: hyphen
Encoding: 45 45 30
Width: 348
GlyphClass: 2
Flags: W
LayerCount: 2
Fore
SplineSet
105 271 m 0,0,1
 106 276 106 276 120.5 277 c 128,-1,2
 135 278 135 278 148 278 c 2,3,-1
 164 278 l 2,4,5
 217 278 217 278 269.5 277 c 128,-1,6
 322 276 322 276 376 279 c 0,7,8
 382 279 382 279 377 261 c 2,9,-1
 368 221 l 2,10,11
 367 216 367 216 357 214.5 c 128,-1,12
 347 213 347 213 336 213 c 2,13,-1
 125 213 l 2,14,15
 114 213 114 213 103 214 c 128,-1,16
 92 215 92 215 93 218 c 0,17,18
 94 225 94 225 96.5 235 c 128,-1,19
 99 245 99 245 105 271 c 0,0,1
EndSplineSet
EndChar

StartChar: period
Encoding: 46 46 31
Width: 230
GlyphClass: 2
Flags: W
LayerCount: 2
Fore
SplineSet
173 43 m 256,0,1
 167 17 167 17 147.5 1 c 128,-1,2
 128 -15 128 -15 104 -15 c 256,3,4
 80 -15 80 -15 67.5 1.5 c 128,-1,5
 55 18 55 18 61 45 c 256,6,7
 67 72 67 72 88.5 89.5 c 128,-1,8
 110 107 110 107 134 107 c 0,9,10
 160 107 160 107 169.5 88 c 128,-1,11
 179 69 179 69 173 43 c 256,0,1
EndSplineSet
EndChar

StartChar: slash
Encoding: 47 47 32
Width: 350
GlyphClass: 2
Flags: W
LayerCount: 2
Fore
SplineSet
494 727 m 1,0,1
 470 678 470 678 442.5 631.5 c 128,-1,2
 415 585 415 585 387 537 c 0,3,4
 304 394 304 394 222.5 254.5 c 128,-1,5
 141 115 141 115 62 -30 c 1,6,7
 57 -30 57 -30 45.5 -31 c 128,-1,8
 34 -32 34 -32 11 -30 c 1,9,10
 119 161 119 161 228 347 c 128,-1,11
 337 533 337 533 442 726 c 1,12,13
 452 729 452 729 468 729 c 0,14,15
 475 729 475 729 482.5 728.5 c 128,-1,16
 490 728 490 728 494 727 c 1,0,1
EndSplineSet
EndChar

StartChar: zero
Encoding: 48 48 33
Width: 535
GlyphClass: 2
Flags: W
LayerCount: 2
Fore
SplineSet
461 213 m 0,0,1
 469 247 469 247 469 281.5 c 128,-1,2
 469 316 469 316 458.5 344 c 128,-1,3
 448 372 448 372 423.5 389.5 c 128,-1,4
 399 407 399 407 359 407 c 0,5,6
 324 408 324 408 294 391 c 128,-1,7
 264 374 264 374 241 347 c 128,-1,8
 218 320 218 320 202 286.5 c 128,-1,9
 186 253 186 253 177 221 c 0,10,11
 168 186 168 186 168 153 c 128,-1,12
 168 120 168 120 179 94 c 128,-1,13
 190 68 190 68 214 52 c 128,-1,14
 238 36 238 36 277 35 c 0,15,16
 314 34 314 34 344 49.5 c 128,-1,17
 374 65 374 65 397 90.5 c 128,-1,18
 420 116 420 116 436 148 c 128,-1,19
 452 180 452 180 461 213 c 0,0,1
543 228 m 0,20,21
 531 177 531 177 504 131.5 c 128,-1,22
 477 86 477 86 440.5 52 c 128,-1,23
 404 18 404 18 358.5 -2 c 128,-1,24
 313 -22 313 -22 265 -22 c 0,25,26
 216 -22 216 -22 178 -5 c 128,-1,27
 140 12 140 12 117.5 43.5 c 128,-1,28
 95 75 95 75 89 118.5 c 128,-1,29
 83 162 83 162 95 216 c 0,30,31
 107 267 107 267 133.5 312 c 128,-1,32
 160 357 160 357 197.5 390.5 c 128,-1,33
 235 424 235 424 280 444 c 128,-1,34
 325 464 325 464 373 464 c 0,35,36
 419 464 419 464 455 446 c 128,-1,37
 491 428 491 428 514.5 396.5 c 128,-1,38
 538 365 538 365 546.5 321.5 c 128,-1,39
 555 278 555 278 543 228 c 0,20,21
EndSplineSet
EndChar

StartChar: one
Encoding: 49 49 34
Width: 337
GlyphClass: 2
Flags: W
LayerCount: 2
Fore
SplineSet
406 431 m 0,0,1
 403 417 403 417 392.5 414 c 128,-1,2
 382 411 382 411 369 411 c 0,3,4
 344 411 344 411 328.5 406 c 128,-1,5
 313 401 313 401 304.5 392 c 128,-1,6
 296 383 296 383 292 369 c 128,-1,7
 288 355 288 355 284 337 c 0,8,9
 271 280 271 280 256.5 224 c 128,-1,10
 242 168 242 168 229 111 c 2,11,-1
 225 97 l 1,12,-1
 229 111 l 1,13,-1
 223 87 l 1,14,-1
 225 97 l 2,15,16
 223 83 223 83 222.5 68 c 128,-1,17
 222 53 222 53 229 44 c 0,18,19
 236 36 236 36 249.5 33 c 128,-1,20
 263 30 263 30 276 27.5 c 128,-1,21
 289 25 289 25 298.5 22 c 128,-1,22
 308 19 308 19 306 10 c 0,23,24
 303 -5 303 -5 289 -6.5 c 128,-1,25
 275 -8 275 -8 261 -8 c 0,26,27
 235 -8 235 -8 209.5 -5 c 128,-1,28
 184 -2 184 -2 158 -2 c 0,29,30
 144 -2 144 -2 133.5 -3 c 128,-1,31
 123 -4 123 -4 114 -5.5 c 128,-1,32
 105 -7 105 -7 94.5 -8 c 128,-1,33
 84 -9 84 -9 70 -9 c 2,34,-1
 57 -9 l 2,35,36
 48 -9 48 -9 39.5 -5.5 c 128,-1,37
 31 -2 31 -2 34 10 c 0,38,39
 36 19 36 19 46 22.5 c 128,-1,40
 56 26 56 26 69.5 28.5 c 128,-1,41
 83 31 83 31 97.5 34.5 c 128,-1,42
 112 38 112 38 124 47 c 0,43,44
 135 55 135 55 142 75.5 c 128,-1,45
 149 96 149 96 153 115 c 2,46,-1
 158 136 l 1,47,-1
 175 207 l 2,48,49
 181 233 181 233 187.5 258 c 128,-1,50
 194 283 194 283 200 308 c 2,51,-1
 204 327 l 2,52,53
 208 344 208 344 210 364 c 128,-1,54
 212 384 212 384 208 392 c 0,55,56
 200 403 200 403 186.5 405.5 c 128,-1,57
 173 408 173 408 160.5 409 c 128,-1,58
 148 410 148 410 140 414 c 128,-1,59
 132 418 132 418 135 432 c 0,60,61
 137 442 137 442 146.5 443.5 c 128,-1,62
 156 445 156 445 163 445 c 2,63,-1
 174 445 l 2,64,65
 201 445 201 445 220.5 442 c 128,-1,66
 240 439 240 439 267 439 c 0,67,68
 280 439 280 439 294.5 440.5 c 128,-1,69
 309 442 309 442 322 442 c 2,70,-1
 403 442 l 1,71,72
 407 436 407 436 406 431 c 0,0,1
EndSplineSet
EndChar

StartChar: two
Encoding: 50 50 35
Width: 422
GlyphClass: 2
Flags: W
LayerCount: 2
Fore
SplineSet
124 354 m 0,0,1
 125 358 125 358 129.5 365.5 c 128,-1,2
 134 373 134 373 141 380.5 c 128,-1,3
 148 388 148 388 154.5 395 c 128,-1,4
 161 402 161 402 164 405 c 0,5,6
 188 427 188 427 206.5 438.5 c 128,-1,7
 225 450 225 450 240.5 455 c 128,-1,8
 256 460 256 460 269.5 461 c 128,-1,9
 283 462 283 462 297 462 c 0,10,11
 364 462 364 462 384.5 416.5 c 128,-1,12
 405 371 405 371 368 296 c 0,13,14
 359 276 359 276 339.5 250.5 c 128,-1,15
 320 225 320 225 295.5 197.5 c 128,-1,16
 271 170 271 170 244.5 143.5 c 128,-1,17
 218 117 218 117 194.5 95.5 c 128,-1,18
 171 74 171 74 153.5 59.5 c 128,-1,19
 136 45 136 45 131 42 c 1,20,21
 142 36 142 36 169.5 34 c 128,-1,22
 197 32 197 32 228.5 33.5 c 128,-1,23
 260 35 260 35 288 41 c 128,-1,24
 316 47 316 47 326 57 c 0,25,26
 338 70 338 70 352.5 86 c 128,-1,27
 367 102 367 102 380 117 c 128,-1,28
 393 132 393 132 403 143.5 c 128,-1,29
 413 155 413 155 416 158 c 0,30,31
 426 169 426 169 435.5 164.5 c 128,-1,32
 445 160 445 160 447 151 c 1,33,34
 415 111 415 111 398.5 79.5 c 128,-1,35
 382 48 382 48 374.5 27 c 128,-1,36
 367 6 367 6 363.5 -5 c 128,-1,37
 360 -16 360 -16 353 -15 c 0,38,39
 327 -13 327 -13 289.5 -6.5 c 128,-1,40
 252 0 252 0 194 2 c 0,41,42
 170 2 170 2 139.5 1.5 c 128,-1,43
 109 1 109 1 85 1 c 0,44,45
 81 1 81 1 73 -7.5 c 128,-1,46
 65 -16 65 -16 62 -14 c 0,47,48
 53 -14 53 -14 49 -10 c 128,-1,49
 45 -6 45 -6 48 7 c 0,50,51
 49 12 49 12 55 17 c 0,52,53
 88 48 88 48 122.5 84 c 128,-1,54
 157 120 157 120 188 156 c 128,-1,55
 219 192 219 192 244.5 225.5 c 128,-1,56
 270 259 270 259 286 286 c 0,57,58
 318 341 318 341 306 373 c 128,-1,59
 294 405 294 405 247 405 c 0,60,61
 218 405 218 405 200 396.5 c 128,-1,62
 182 388 182 388 170 376.5 c 128,-1,63
 158 365 158 365 150.5 355 c 128,-1,64
 143 345 143 345 137 342 c 256,65,66
 131 339 131 339 126.5 343 c 128,-1,67
 122 347 122 347 124 354 c 0,0,1
EndSplineSet
EndChar

StartChar: three
Encoding: 51 51 36
Width: 376
GlyphClass: 2
Flags: W
LayerCount: 2
Fore
SplineSet
123 370 m 0,0,1
 125 383 125 383 140 399 c 128,-1,2
 155 415 155 415 177 429 c 128,-1,3
 199 443 199 443 224 453 c 128,-1,4
 249 463 249 463 271 463 c 128,-1,5
 293 463 293 463 312.5 457 c 128,-1,6
 332 451 332 451 345.5 437.5 c 128,-1,7
 359 424 359 424 364.5 403 c 128,-1,8
 370 382 370 382 363 351 c 0,9,10
 358 330 358 330 339 303.5 c 128,-1,11
 320 277 320 277 296 252.5 c 128,-1,12
 272 228 272 228 248 207.5 c 128,-1,13
 224 187 224 187 208 177 c 1,14,15
 250 181 250 181 280.5 169.5 c 128,-1,16
 311 158 311 158 328.5 134.5 c 128,-1,17
 346 111 346 111 350.5 78 c 128,-1,18
 355 45 355 45 346 7 c 0,19,20
 333 -50 333 -50 293 -101.5 c 128,-1,21
 253 -153 253 -153 201.5 -192 c 128,-1,22
 150 -231 150 -231 93 -254 c 128,-1,23
 36 -277 36 -277 -13 -278 c 0,24,25
 -19 -278 -19 -278 -20.5 -274.5 c 128,-1,26
 -22 -271 -22 -271 -20.5 -266.5 c 128,-1,27
 -19 -262 -19 -262 -15.5 -258.5 c 128,-1,28
 -12 -255 -12 -255 -9 -255 c 0,29,30
 37 -242 37 -242 81 -221.5 c 128,-1,31
 125 -201 125 -201 161 -172.5 c 128,-1,32
 197 -144 197 -144 222.5 -107 c 128,-1,33
 248 -70 248 -70 259 -24 c 0,34,35
 265 0 265 0 263.5 24 c 128,-1,36
 262 48 262 48 255 68.5 c 128,-1,37
 248 89 248 89 233 103 c 128,-1,38
 218 117 218 117 196 122 c 0,39,40
 178 126 178 126 158 128 c 128,-1,41
 138 130 138 130 116 119 c 0,42,43
 109 116 109 116 95.5 107.5 c 128,-1,44
 82 99 82 99 77 99 c 0,45,46
 63 99 63 99 67 116 c 0,47,48
 69 125 69 125 83 131.5 c 128,-1,49
 97 138 97 138 103 141 c 0,50,51
 126 153 126 153 155.5 172.5 c 128,-1,52
 185 192 185 192 212.5 216.5 c 128,-1,53
 240 241 240 241 260.5 268.5 c 128,-1,54
 281 296 281 296 288 323 c 0,55,56
 299 371 299 371 282 394 c 128,-1,57
 265 417 265 417 235 417 c 256,58,59
 205 417 205 417 183.5 401 c 128,-1,60
 162 385 162 385 134 359 c 0,61,62
 129 355 129 355 126 359.5 c 128,-1,63
 123 364 123 364 123 370 c 0,0,1
EndSplineSet
EndChar

StartChar: four
Encoding: 52 52 37
Width: 537
GlyphClass: 2
Flags: W
LayerCount: 2
Fore
SplineSet
532 23 m 0,0,1
 527 2 527 2 507 2 c 0,2,3
 496 2 496 2 485 3 c 128,-1,4
 474 4 474 4 462 4 c 2,5,-1
 444 4 l 2,6,7
 427 4 427 4 413.5 4.5 c 128,-1,8
 400 5 400 5 390 3.5 c 128,-1,9
 380 2 380 2 373 -3 c 128,-1,10
 366 -8 366 -8 364 -19 c 2,11,-1
 318 -218 l 2,12,13
 316 -226 316 -226 314 -233.5 c 128,-1,14
 312 -241 312 -241 312 -249 c 0,15,16
 306 -265 306 -265 291 -271.5 c 128,-1,17
 276 -278 276 -278 260 -278 c 0,18,19
 247 -278 247 -278 238 -274 c 128,-1,20
 229 -270 229 -270 230 -264 c 0,21,22
 236 -247 236 -247 242.5 -220 c 128,-1,23
 249 -193 249 -193 256 -165 c 2,24,-1
 277 -74 l 2,25,26
 279 -67 279 -67 281 -58 c 128,-1,27
 283 -49 283 -49 285 -40 c 0,28,29
 290 -19 290 -19 286 -9.5 c 128,-1,30
 282 0 282 0 272.5 3 c 128,-1,31
 263 6 263 6 251.5 5 c 128,-1,32
 240 4 240 4 230 4 c 0,33,34
 177 4 177 4 124.5 0 c 128,-1,35
 72 -4 72 -4 19 -4 c 0,36,37
 12 -4 12 -4 10 4.5 c 128,-1,38
 8 13 8 13 16 21 c 0,39,40
 31 39 31 39 55 66 c 128,-1,41
 79 93 79 93 107 124 c 128,-1,42
 135 155 135 155 165.5 188.5 c 128,-1,43
 196 222 196 222 224 252.5 c 128,-1,44
 252 283 252 283 276 309 c 128,-1,45
 300 335 300 335 316 351 c 0,46,47
 333 369 333 369 341 379 c 128,-1,48
 349 389 349 389 355 397.5 c 128,-1,49
 361 406 361 406 368.5 416 c 128,-1,50
 376 426 376 426 393 445 c 0,51,52
 402 455 402 455 415.5 459 c 128,-1,53
 429 463 429 463 442 463 c 256,54,55
 455 463 455 463 463 458 c 128,-1,56
 471 453 471 453 468 445 c 0,57,58
 467 442 467 442 466 432 c 128,-1,59
 465 422 465 422 457 387 c 2,60,-1
 383 70 l 2,61,62
 380 56 380 56 400 56 c 2,63,-1
 444 56 l 2,64,65
 464 56 464 56 481.5 56.5 c 128,-1,66
 499 57 499 57 508 57 c 0,67,68
 521 57 521 57 528 47 c 128,-1,69
 535 37 535 37 532 23 c 0,0,1
104 67 m 0,70,71
 102 59 102 59 108 56.5 c 128,-1,72
 114 54 114 54 119 54 c 0,73,74
 128 54 128 54 152.5 55 c 128,-1,75
 177 56 177 56 204.5 56.5 c 128,-1,76
 232 57 232 57 254.5 58 c 128,-1,77
 277 59 277 59 282 59 c 0,78,79
 301 59 301 59 306 64.5 c 128,-1,80
 311 70 311 70 314 83 c 2,81,-1
 327 140 l 2,82,83
 335 174 335 174 343.5 213 c 128,-1,84
 352 252 352 252 361 292 c 2,85,-1
 378 367 l 1,86,87
 331 316 331 316 269 252 c 128,-1,88
 207 188 207 188 139 112 c 0,89,90
 131 103 131 103 119 90.5 c 128,-1,91
 107 78 107 78 104 67 c 0,70,71
EndSplineSet
EndChar

StartChar: five
Encoding: 53 53 38
Width: 451
GlyphClass: 2
Flags: W
LayerCount: 2
Fore
SplineSet
512 537 m 0,0,1
 514 534 514 534 511 525 c 128,-1,2
 508 516 508 516 501.5 502.5 c 128,-1,3
 495 489 495 489 486.5 471.5 c 128,-1,4
 478 454 478 454 470 434 c 0,5,6
 465 424 465 424 459 413 c 128,-1,7
 453 402 453 402 445 392.5 c 128,-1,8
 437 383 437 383 425.5 377 c 128,-1,9
 414 371 414 371 399 371 c 0,10,11
 387 371 387 371 360 371 c 0,12,13
 334 371 334 371 305 371 c 256,14,15
 276 371 276 371 252.5 369.5 c 128,-1,16
 229 368 229 368 224 365 c 0,17,18
 217 365 217 365 205 345 c 128,-1,19
 193 325 193 325 180 299.5 c 128,-1,20
 167 274 167 274 155 249.5 c 128,-1,21
 143 225 143 225 136 215 c 1,22,23
 152 222 152 222 171 233 c 128,-1,24
 190 244 190 244 214 253.5 c 128,-1,25
 238 263 238 263 266 268.5 c 128,-1,26
 294 274 294 274 327 269 c 0,27,28
 366 262 366 262 391.5 241.5 c 128,-1,29
 417 221 417 221 429 191 c 128,-1,30
 441 161 441 161 439.5 122.5 c 128,-1,31
 438 84 438 84 424 41 c 0,32,33
 401 -26 401 -26 352.5 -82 c 128,-1,34
 304 -138 304 -138 245 -178 c 0,35,36
 223 -193 223 -193 214 -193 c 0,37,38
 206 -193 206 -193 198 -177 c 0,39,40
 196 -174 196 -174 210.5 -162 c 128,-1,41
 225 -150 225 -150 247 -128 c 128,-1,42
 269 -106 269 -106 293.5 -72.5 c 128,-1,43
 318 -39 318 -39 335 9 c 0,44,45
 348 47 348 47 354 76.5 c 128,-1,46
 360 106 360 106 355 128.5 c 128,-1,47
 350 151 350 151 334 168.5 c 128,-1,48
 318 186 318 186 288 200 c 0,49,50
 277 205 277 205 256.5 203.5 c 128,-1,51
 236 202 236 202 212.5 196.5 c 128,-1,52
 189 191 189 191 166.5 182.5 c 128,-1,53
 144 174 144 174 131 166 c 0,54,55
 123 163 123 163 117 156 c 128,-1,56
 111 149 111 149 104.5 143 c 128,-1,57
 98 137 98 137 89 134.5 c 128,-1,58
 80 132 80 132 68 138 c 0,59,60
 61 145 61 145 63 155 c 0,61,62
 67 172 67 172 79.5 187 c 128,-1,63
 92 202 92 202 96 210 c 0,64,65
 107 229 107 229 122.5 257 c 128,-1,66
 138 285 138 285 153.5 316 c 128,-1,67
 169 347 169 347 182.5 377 c 128,-1,68
 196 407 196 407 203 429 c 0,69,70
 205 434 205 434 207.5 438.5 c 128,-1,71
 210 443 210 443 217 443 c 0,72,73
 227 444 227 444 245.5 443.5 c 128,-1,74
 264 443 264 443 290.5 442.5 c 128,-1,75
 317 442 317 442 350 442.5 c 128,-1,76
 383 443 383 443 420 446 c 1,77,-1
 489 538 l 2,78,79
 495 545 495 545 501.5 542 c 128,-1,80
 508 539 508 539 512 537 c 0,0,1
EndSplineSet
EndChar

StartChar: six
Encoding: 54 54 39
Width: 529
GlyphClass: 2
Flags: W
LayerCount: 2
Fore
SplineSet
531 229 m 0,0,1
 520 182 520 182 495 138.5 c 128,-1,2
 470 95 470 95 435.5 61 c 128,-1,3
 401 27 401 27 359.5 7 c 128,-1,4
 318 -13 318 -13 272 -13 c 0,5,6
 227 -13 227 -13 187 7 c 0,7,8
 155 24 155 24 135.5 50.5 c 128,-1,9
 116 77 116 77 107.5 110.5 c 128,-1,10
 99 144 99 144 100 182.5 c 128,-1,11
 101 221 101 221 110 261 c 0,12,13
 128 340 128 340 168.5 411.5 c 128,-1,14
 209 483 209 483 265 544 c 128,-1,15
 321 605 321 605 388 653.5 c 128,-1,16
 455 702 455 702 526 734 c 0,17,18
 537 739 537 739 552.5 745 c 128,-1,19
 568 751 568 751 578 752 c 0,20,21
 582 749 582 749 586 744 c 128,-1,22
 590 739 590 739 588 732 c 0,23,24
 587 727 587 727 578.5 721 c 128,-1,25
 570 715 570 715 560 710 c 128,-1,26
 550 705 550 705 540 700.5 c 128,-1,27
 530 696 530 696 526 694 c 0,28,29
 508 684 508 684 490.5 672.5 c 128,-1,30
 473 661 473 661 456 648 c 0,31,32
 381 591 381 591 324.5 516.5 c 128,-1,33
 268 442 268 442 232 357 c 1,34,35
 246 369 246 369 265 382 c 128,-1,36
 284 395 284 395 306.5 406 c 128,-1,37
 329 417 329 417 353 424 c 128,-1,38
 377 431 377 431 403 431 c 0,39,40
 443 431 443 431 471.5 415.5 c 128,-1,41
 500 400 500 400 517 373 c 128,-1,42
 534 346 534 346 537.5 309 c 128,-1,43
 541 272 541 272 531 229 c 0,0,1
356 386 m 0,44,45
 336 386 336 386 315.5 377.5 c 128,-1,46
 295 369 295 369 276 357 c 128,-1,47
 257 345 257 345 240.5 331.5 c 128,-1,48
 224 318 224 318 213 307 c 1,49,50
 207 288 207 288 202 273 c 128,-1,51
 197 258 197 258 193 239 c 0,52,53
 185 204 185 204 182 165.5 c 128,-1,54
 179 127 179 127 186 94 c 128,-1,55
 193 61 193 61 214.5 39.5 c 128,-1,56
 236 18 236 18 276 18 c 0,57,58
 310 18 310 18 338 36 c 128,-1,59
 366 54 366 54 387 82 c 128,-1,60
 408 110 408 110 422.5 143.5 c 128,-1,61
 437 177 437 177 444 208 c 0,62,63
 452 241 452 241 452 273 c 128,-1,64
 452 305 452 305 442 330 c 128,-1,65
 432 355 432 355 411 370.5 c 128,-1,66
 390 386 390 386 356 386 c 0,44,45
EndSplineSet
EndChar

StartChar: seven
Encoding: 55 55 40
Width: 448
GlyphClass: 2
Flags: W
LayerCount: 2
Fore
SplineSet
529 429 m 0,0,1
 528 426 528 426 520 412.5 c 128,-1,2
 512 399 512 399 499.5 380 c 128,-1,3
 487 361 487 361 472.5 338.5 c 128,-1,4
 458 316 458 316 444 295.5 c 128,-1,5
 430 275 430 275 419 259 c 128,-1,6
 408 243 408 243 404 237 c 0,7,8
 318 105 318 105 233.5 -23 c 128,-1,9
 149 -151 149 -151 53 -277 c 0,10,11
 49 -282 49 -282 41.5 -281.5 c 128,-1,12
 34 -281 34 -281 27.5 -277 c 128,-1,13
 21 -273 21 -273 18 -267 c 128,-1,14
 15 -261 15 -261 18 -256 c 0,15,16
 85 -157 85 -157 151 -62 c 128,-1,17
 217 33 217 33 284 132 c 0,18,19
 317 183 317 183 350.5 232 c 128,-1,20
 384 281 384 281 414 332 c 0,21,22
 416 337 416 337 418 342 c 128,-1,23
 420 347 420 347 421 352 c 0,24,25
 423 362 423 362 415 363.5 c 128,-1,26
 407 365 407 365 400 365 c 2,27,-1
 117 365 l 2,28,29
 109 365 109 365 102.5 367.5 c 128,-1,30
 96 370 96 370 101 378 c 0,31,32
 115 402 115 402 127.5 427.5 c 128,-1,33
 140 453 140 453 150 474 c 128,-1,34
 160 495 160 495 168.5 508.5 c 128,-1,35
 177 522 177 522 182 522 c 256,36,37
 187 522 187 522 194 520 c 128,-1,38
 201 518 201 518 199 510 c 0,39,40
 194 491 194 491 191 475.5 c 128,-1,41
 188 460 188 460 183 443 c 1,42,-1
 219 442 l 1,43,-1
 293 442 l 2,44,45
 312 442 312 442 331 442 c 0,46,47
 351 442 351 442 369 443 c 0,48,49
 399 444 399 444 429.5 445.5 c 128,-1,50
 460 447 460 447 490 447 c 2,51,-1
 502 447 l 2,52,53
 512 447 512 447 522 443.5 c 128,-1,54
 532 440 532 440 529 429 c 0,0,1
EndSplineSet
EndChar

StartChar: eight
Encoding: 56 56 41
Width: 459
GlyphClass: 2
Flags: W
LayerCount: 2
Fore
SplineSet
462 182 m 0,0,1
 453 141 453 141 431.5 105.5 c 128,-1,2
 410 70 410 70 379 43.5 c 128,-1,3
 348 17 348 17 311 2 c 128,-1,4
 274 -13 274 -13 237 -13 c 0,5,6
 201 -13 201 -13 168 -4.5 c 128,-1,7
 135 4 135 4 112 23 c 128,-1,8
 89 42 89 42 79 73.5 c 128,-1,9
 69 105 69 105 79 151 c 0,10,11
 85 182 85 182 100 208 c 128,-1,12
 115 234 115 234 137 256 c 128,-1,13
 159 278 159 278 184.5 295.5 c 128,-1,14
 210 313 210 313 236 327 c 2,15,-1
 259 339 l 1,16,17
 256 344 256 344 251.5 347.5 c 128,-1,18
 247 351 247 351 244 355 c 0,19,20
 226 370 226 370 209 387 c 128,-1,21
 192 404 192 404 180.5 424.5 c 128,-1,22
 169 445 169 445 163.5 469 c 128,-1,23
 158 493 158 493 164 523 c 0,24,25
 173 566 173 566 196.5 600.5 c 128,-1,26
 220 635 220 635 251.5 659.5 c 128,-1,27
 283 684 283 684 320.5 697 c 128,-1,28
 358 710 358 710 395 710 c 0,29,30
 428 710 428 710 458.5 699.5 c 128,-1,31
 489 689 489 689 510 669 c 128,-1,32
 531 649 531 649 540.5 618.5 c 128,-1,33
 550 588 550 588 541 549 c 0,34,35
 534 513 534 513 517 486.5 c 128,-1,36
 500 460 500 460 476 440.5 c 128,-1,37
 452 421 452 421 423.5 405.5 c 128,-1,38
 395 390 395 390 366 376 c 1,39,40
 370 371 370 371 375.5 367 c 128,-1,41
 381 363 381 363 387 359 c 0,42,43
 405 345 405 345 421.5 326.5 c 128,-1,44
 438 308 438 308 449.5 285.5 c 128,-1,45
 461 263 461 263 465 237 c 128,-1,46
 469 211 469 211 462 182 c 0,0,1
379 147 m 0,47,48
 386 182 386 182 381 210 c 128,-1,49
 376 238 376 238 362 259 c 128,-1,50
 348 280 348 280 327 296 c 128,-1,51
 306 312 306 312 282 323 c 1,52,53
 232 304 232 304 197 261 c 128,-1,54
 162 218 162 218 152 166 c 0,55,56
 146 137 146 137 146 110.5 c 128,-1,57
 146 84 146 84 153.5 63.5 c 128,-1,58
 161 43 161 43 178.5 30.5 c 128,-1,59
 196 18 196 18 225 18 c 0,60,61
 244 18 244 18 260 20 c 128,-1,62
 276 22 276 22 295 31 c 0,63,64
 331 48 331 48 351.5 78.5 c 128,-1,65
 372 109 372 109 379 147 c 0,47,48
471 544 m 0,66,67
 477 572 477 572 473.5 597.5 c 128,-1,68
 470 623 470 623 459 641.5 c 128,-1,69
 448 660 448 660 428.5 671 c 128,-1,70
 409 682 409 682 381 682 c 0,71,72
 332 682 332 682 293 646.5 c 128,-1,73
 254 611 254 611 242 558 c 0,74,75
 234 520 234 520 249 485 c 0,76,77
 254 474 254 474 264.5 459.5 c 128,-1,78
 275 445 275 445 288 431 c 128,-1,79
 301 417 301 417 315 406.5 c 128,-1,80
 329 396 329 396 341 393 c 1,81,82
 365 400 365 400 386.5 416 c 128,-1,83
 408 432 408 432 424.5 452.5 c 128,-1,84
 441 473 441 473 453.5 497 c 128,-1,85
 466 521 466 521 471 544 c 0,66,67
EndSplineSet
EndChar

StartChar: nine
Encoding: 57 57 42
Width: 529
GlyphClass: 2
Flags: W
LayerCount: 2
Fore
SplineSet
272 45 m 0,0,1
 292 45 292 45 312 53.5 c 128,-1,2
 332 62 332 62 351 74 c 128,-1,3
 370 86 370 86 386.5 99.5 c 128,-1,4
 403 113 403 113 414 124 c 1,5,6
 420 143 420 143 425 158 c 128,-1,7
 430 173 430 173 435 192 c 0,8,9
 443 226 443 226 446 265 c 128,-1,10
 449 304 449 304 441.5 337 c 128,-1,11
 434 370 434 370 413 391.5 c 128,-1,12
 392 413 392 413 352 413 c 0,13,14
 318 413 318 413 290 395 c 128,-1,15
 262 377 262 377 240.5 349 c 128,-1,16
 219 321 219 321 205 287.5 c 128,-1,17
 191 254 191 254 183 223 c 0,18,19
 175 190 175 190 175.5 158 c 128,-1,20
 176 126 176 126 185.5 101 c 128,-1,21
 195 76 195 76 216.5 60.5 c 128,-1,22
 238 45 238 45 272 45 c 0,0,1
97 202 m 0,23,24
 108 249 108 249 132.5 292.5 c 128,-1,25
 157 336 157 336 191.5 370 c 128,-1,26
 226 404 226 404 268 424 c 128,-1,27
 310 444 310 444 355 444 c 128,-1,28
 400 444 400 444 440 424 c 0,29,30
 472 407 472 407 491.5 380.5 c 128,-1,31
 511 354 511 354 519.5 320.5 c 128,-1,32
 528 287 528 287 527 248.5 c 128,-1,33
 526 210 526 210 517 170 c 0,34,35
 499 91 499 91 462 22.5 c 128,-1,36
 425 -46 425 -46 377.5 -101 c 128,-1,37
 330 -156 330 -156 274.5 -196.5 c 128,-1,38
 219 -237 219 -237 163 -259 c 0,39,40
 152 -264 152 -264 137 -270 c 128,-1,41
 122 -276 122 -276 112 -277 c 0,42,43
 108 -274 108 -274 104 -269 c 128,-1,44
 100 -264 100 -264 101 -257 c 0,45,46
 102 -254 102 -254 115 -246 c 128,-1,47
 128 -238 128 -238 145 -228.5 c 128,-1,48
 162 -219 162 -219 179 -209.5 c 128,-1,49
 196 -200 196 -200 205 -193 c 0,50,51
 273 -141 273 -141 316 -75.5 c 128,-1,52
 359 -10 359 -10 395 74 c 1,53,54
 381 62 381 62 362 49 c 128,-1,55
 343 36 343 36 321 25 c 128,-1,56
 299 14 299 14 274.5 7 c 128,-1,57
 250 0 250 0 225 0 c 0,58,59
 184 0 184 0 155.5 15.5 c 128,-1,60
 127 31 127 31 110.5 58 c 128,-1,61
 94 85 94 85 90.5 122 c 128,-1,62
 87 159 87 159 97 202 c 0,23,24
EndSplineSet
EndChar

StartChar: colon
Encoding: 58 58 43
Width: 236
GlyphClass: 2
Flags: W
LayerCount: 2
Fore
SplineSet
260 396 m 0,0,1
 254 369 254 369 231.5 350 c 128,-1,2
 209 331 209 331 184 331 c 0,3,4
 180 331 180 331 180 332 c 0,5,6
 170 333 170 333 162 339.5 c 128,-1,7
 154 346 154 346 149.5 355.5 c 128,-1,8
 145 365 145 365 143 376.5 c 128,-1,9
 141 388 141 388 144 399 c 0,10,11
 149 422 149 422 170.5 441 c 128,-1,12
 192 460 192 460 213 460 c 0,13,14
 237 460 237 460 251.5 441 c 128,-1,15
 266 422 266 422 260 396 c 0,0,1
181 50 m 0,16,17
 175 24 175 24 152.5 3 c 128,-1,18
 130 -18 130 -18 104 -18 c 0,19,20
 92 -18 92 -18 83 -12 c 128,-1,21
 74 -6 74 -6 68.5 3.5 c 128,-1,22
 63 13 63 13 61.5 25 c 128,-1,23
 60 37 60 37 63 50 c 0,24,25
 69 76 69 76 90 93.5 c 128,-1,26
 111 111 111 111 135 111 c 0,27,28
 157 111 157 111 172 93 c 128,-1,29
 187 75 187 75 181 50 c 0,16,17
EndSplineSet
EndChar

StartChar: semicolon
Encoding: 59 59 44
Width: 238
GlyphClass: 2
Flags: W
LayerCount: 2
Fore
SplineSet
268 396 m 0,0,1
 262 369 262 369 240.5 350 c 128,-1,2
 219 331 219 331 194 331 c 0,3,4
 191 331 191 331 190 332 c 0,5,6
 167 334 167 334 159 353 c 128,-1,7
 151 372 151 372 156 395 c 0,8,9
 162 423 162 423 181.5 440.5 c 128,-1,10
 201 458 201 458 227 458 c 0,11,12
 249 458 249 458 261 438.5 c 128,-1,13
 273 419 273 419 268 396 c 0,0,1
193 -12 m 0,14,15
 184 -49 184 -49 164 -78.5 c 128,-1,16
 144 -108 144 -108 114 -132 c 0,17,18
 108 -136 108 -136 95 -144.5 c 128,-1,19
 82 -153 82 -153 67.5 -162 c 128,-1,20
 53 -171 53 -171 39.5 -177.5 c 128,-1,21
 26 -184 26 -184 21 -184 c 0,22,23
 14 -184 14 -184 15 -177 c 1,24,25
 11 -175 11 -175 12 -168 c 0,26,27
 12 -167 12 -167 16.5 -163.5 c 128,-1,28
 21 -160 21 -160 25.5 -156.5 c 128,-1,29
 30 -153 30 -153 34.5 -150 c 128,-1,30
 39 -147 39 -147 41 -146 c 0,31,32
 57 -136 57 -136 71 -126 c 128,-1,33
 85 -116 85 -116 96 -104.5 c 128,-1,34
 107 -93 107 -93 115 -78.5 c 128,-1,35
 123 -64 123 -64 127 -44 c 0,36,37
 131 -26 131 -26 126.5 -17.5 c 128,-1,38
 122 -9 122 -9 112 -4.5 c 128,-1,39
 102 0 102 0 90.5 3 c 128,-1,40
 79 6 79 6 71 13 c 0,41,42
 53 27 53 27 58 51 c 0,43,44
 64 78 64 78 89 93 c 128,-1,45
 114 108 114 108 136 108 c 256,46,47
 158 108 158 108 171.5 97 c 128,-1,48
 185 86 185 86 192 68.5 c 128,-1,49
 199 51 199 51 198.5 30 c 128,-1,50
 198 9 198 9 193 -12 c 0,14,15
EndSplineSet
EndChar

StartChar: less
Encoding: 60 60 45
Width: 424
GlyphClass: 2
Flags: W
LayerCount: 2
Fore
SplineSet
175 225 m 1,0,1
 211 188 211 188 236.5 162 c 128,-1,2
 262 136 262 136 285.5 114 c 128,-1,3
 309 92 309 92 334.5 69.5 c 128,-1,4
 360 47 360 47 394 16 c 1,5,6
 392 7 392 7 390 3 c 128,-1,7
 388 -1 388 -1 385 -4.5 c 128,-1,8
 382 -8 382 -8 380 -12 c 128,-1,9
 378 -16 378 -16 375 -25 c 1,10,11
 328 5 328 5 296 28.5 c 128,-1,12
 264 52 264 52 233.5 76 c 128,-1,13
 203 100 203 100 170 127.5 c 128,-1,14
 137 155 137 155 89 193 c 1,15,-1
 103 255 l 1,16,17
 148 279 148 279 182 298.5 c 128,-1,18
 216 318 216 318 244 335.5 c 128,-1,19
 272 353 272 353 297.5 369.5 c 128,-1,20
 323 386 323 386 350.5 402.5 c 128,-1,21
 378 419 378 419 411 437.5 c 128,-1,22
 444 456 444 456 487 478 c 1,23,24
 485 469 485 469 485 465 c 128,-1,25
 485 461 485 461 485 458 c 128,-1,26
 485 455 485 455 485.5 451.5 c 128,-1,27
 486 448 486 448 484 439 c 1,28,29
 433 405 433 405 393.5 378 c 128,-1,30
 354 351 354 351 319 326 c 128,-1,31
 284 301 284 301 250 277 c 128,-1,32
 216 253 216 253 175 225 c 1,0,1
EndSplineSet
EndChar

StartChar: equal
Encoding: 61 61 46
Width: 474
GlyphClass: 2
Flags: W
LayerCount: 2
Fore
SplineSet
496 332 m 2,0,1
 494 324 494 324 491.5 314.5 c 128,-1,2
 489 305 489 305 483 299 c 1,3,4
 473 300 473 300 461 300 c 0,5,6
 450 300 450 300 436 300 c 2,7,-1
 366 300 l 2,8,9
 324 300 324 300 265 299.5 c 128,-1,10
 206 299 206 299 124 299 c 1,11,12
 118 316 118 316 119.5 328.5 c 128,-1,13
 121 341 121 341 139 363 c 1,14,15
 225 363 225 363 302 362 c 128,-1,16
 379 361 379 361 436 361 c 2,17,-1
 501 361 l 1,18,19
 501 351 501 351 499 346 c 2,20,-1
 496 332 l 2,0,1
98 203 m 1,21,22
 118 203 118 203 143 203.5 c 128,-1,23
 168 204 168 204 210 204 c 2,24,-1
 462 204 l 1,25,26
 470 186 470 186 464 171.5 c 128,-1,27
 458 157 458 157 447 140 c 1,28,29
 427 139 427 139 405 139 c 256,30,31
 383 139 383 139 357 139 c 2,32,-1
 255 139 l 2,33,34
 205 139 205 139 159 139.5 c 128,-1,35
 113 140 113 140 83 141 c 1,36,37
 85 150 85 150 84 157 c 128,-1,38
 83 164 83 164 85 173 c 0,39,40
 86 179 86 179 91 188 c 128,-1,41
 96 197 96 197 98 203 c 1,21,22
EndSplineSet
EndChar

StartChar: greater
Encoding: 62 62 47
Width: 424
GlyphClass: 2
Flags: W
LayerCount: 2
Fore
SplineSet
363 225 m 1,0,1
 334 253 334 253 311 277 c 128,-1,2
 288 301 288 301 264.5 325.5 c 128,-1,3
 241 350 241 350 214 377.5 c 128,-1,4
 187 405 187 405 152 439 c 1,5,6
 154 448 154 448 156 451.5 c 128,-1,7
 158 455 158 455 159.5 458 c 128,-1,8
 161 461 161 461 163 465 c 128,-1,9
 165 469 165 469 167 478 c 1,10,11
 216 445 216 445 247.5 419.5 c 128,-1,12
 279 394 279 394 306.5 369.5 c 128,-1,13
 334 345 334 345 365.5 318 c 128,-1,14
 397 291 397 291 448 255 c 1,15,-1
 433 193 l 1,16,17
 389 168 389 168 354.5 147.5 c 128,-1,18
 320 127 320 127 290.5 109.5 c 128,-1,19
 261 92 261 92 234.5 76.5 c 128,-1,20
 208 61 208 61 179.5 45 c 128,-1,21
 151 29 151 29 118.5 12 c 128,-1,22
 86 -5 86 -5 46 -25 c 1,23,24
 48 -16 48 -16 47.5 -12 c 128,-1,25
 47 -8 47 -8 46 -4.5 c 128,-1,26
 45 -1 45 -1 44.5 3 c 128,-1,27
 44 7 44 7 46 16 c 1,28,29
 95 47 95 47 131.5 71 c 128,-1,30
 168 95 168 95 202 117.5 c 128,-1,31
 236 140 236 140 273.5 165.5 c 128,-1,32
 311 191 311 191 363 225 c 1,0,1
EndSplineSet
EndChar

StartChar: question
Encoding: 63 63 48
Width: 332
GlyphClass: 2
Flags: W
LayerCount: 2
Fore
SplineSet
166 39 m 0,0,1
 160 14 160 14 138 -3 c 128,-1,2
 116 -20 116 -20 94 -15 c 0,3,4
 73 -13 73 -13 65.5 4 c 128,-1,5
 58 21 58 21 63 43 c 0,6,7
 69 68 69 68 86.5 84.5 c 128,-1,8
 104 101 104 101 129 101 c 0,9,10
 152 101 152 101 161.5 81.5 c 128,-1,11
 171 62 171 62 166 39 c 0,0,1
405 468 m 0,12,13
 396 430 396 430 378 404 c 128,-1,14
 360 378 360 378 337.5 359.5 c 128,-1,15
 315 341 315 341 290 328 c 128,-1,16
 265 315 265 315 242.5 303.5 c 128,-1,17
 220 292 220 292 202.5 279.5 c 128,-1,18
 185 267 185 267 176 249 c 0,19,20
 172 246 172 246 168 233 c 2,21,-1
 162 207 l 2,22,23
 159 194 159 194 153.5 182.5 c 128,-1,24
 148 171 148 171 137 170 c 0,25,26
 126 173 126 173 128 186 c 0,27,28
 128 190 128 190 128.5 194.5 c 128,-1,29
 129 199 129 199 130 205 c 2,30,-1
 136 231 l 2,31,32
 139 245 139 245 142.5 257 c 128,-1,33
 146 269 146 269 148 277 c 0,34,35
 152 296 152 296 154.5 309.5 c 128,-1,36
 157 323 157 323 159.5 333 c 128,-1,37
 162 343 162 343 166 349.5 c 128,-1,38
 170 356 170 356 177 361 c 0,39,40
 205 372 205 372 234 385.5 c 128,-1,41
 263 399 263 399 289.5 417.5 c 128,-1,42
 316 436 316 436 335 461 c 128,-1,43
 354 486 354 486 362 521 c 0,44,45
 368 545 368 545 365.5 568 c 128,-1,46
 363 591 363 591 353 609.5 c 128,-1,47
 343 628 343 628 326.5 639.5 c 128,-1,48
 310 651 310 651 286 651 c 0,49,50
 270 651 270 651 253 645 c 128,-1,51
 236 639 236 639 220 639 c 256,52,53
 204 639 204 639 195 649.5 c 128,-1,54
 186 660 186 660 190 677 c 0,55,56
 193 692 193 692 201 701 c 128,-1,57
 209 710 209 710 219.5 715.5 c 128,-1,58
 230 721 230 721 241.5 722.5 c 128,-1,59
 253 724 253 724 264 724 c 0,60,61
 303 724 303 724 333.5 698.5 c 128,-1,62
 364 673 364 673 383 635 c 128,-1,63
 402 597 402 597 408 552 c 128,-1,64
 414 507 414 507 405 468 c 0,12,13
EndSplineSet
EndChar

StartChar: at
Encoding: 64 64 49
Width: 813
GlyphClass: 2
Flags: W
LayerCount: 2
Fore
SplineSet
485 91 m 0,0,1
 492 98 492 98 503 111 c 128,-1,2
 514 124 514 124 519 135 c 2,3,-1
 529 170 l 1,4,-1
 536 198 l 2,5,6
 538 206 538 206 539 213 c 128,-1,7
 540 220 540 220 540 225 c 1,8,9
 531 223 531 223 519 219.5 c 128,-1,10
 507 216 507 216 494.5 211.5 c 128,-1,11
 482 207 482 207 470 202.5 c 128,-1,12
 458 198 458 198 449 195 c 0,13,14
 422 185 422 185 396.5 166 c 128,-1,15
 371 147 371 147 364 116 c 0,16,17
 358 88 358 88 366 71.5 c 128,-1,18
 374 55 374 55 404 55 c 0,19,20
 424 55 424 55 446.5 65.5 c 128,-1,21
 469 76 469 76 485 91 c 0,0,1
502 79 m 1,22,23
 488 64 488 64 470 50 c 128,-1,24
 452 36 452 36 430.5 24.5 c 128,-1,25
 409 13 409 13 387.5 6.5 c 128,-1,26
 366 0 366 0 348 0 c 0,27,28
 301 0 301 0 288 28 c 128,-1,29
 275 56 275 56 285 101 c 0,30,31
 290 123 290 123 305 141.5 c 128,-1,32
 320 160 320 160 340 175 c 128,-1,33
 360 190 360 190 381.5 201 c 128,-1,34
 403 212 403 212 421 219 c 0,35,36
 457 232 457 232 485.5 241.5 c 128,-1,37
 514 251 514 251 550 260 c 1,38,-1
 567 333 l 2,39,40
 577 375 577 375 568.5 401 c 128,-1,41
 560 427 560 427 518 427 c 0,42,43
 490 427 490 427 471 417.5 c 128,-1,44
 452 408 452 408 439 395 c 128,-1,45
 426 382 426 382 419.5 369 c 128,-1,46
 413 356 413 356 410 349 c 0,47,48
 402 333 402 333 384 321.5 c 128,-1,49
 366 310 366 310 348 310 c 0,50,51
 338 310 338 310 338.5 319.5 c 128,-1,52
 339 329 339 329 341 337 c 0,53,54
 347 361 347 361 371 385.5 c 128,-1,55
 395 410 395 410 426.5 430.5 c 128,-1,56
 458 451 458 451 492.5 464 c 128,-1,57
 527 477 527 477 553 477 c 0,58,59
 560 477 560 477 569.5 475.5 c 128,-1,60
 579 474 579 474 588.5 472 c 128,-1,61
 598 470 598 470 607 467 c 128,-1,62
 616 464 616 464 620 461 c 0,63,64
 647 444 647 444 648 416.5 c 128,-1,65
 649 389 649 389 642 355 c 0,66,67
 632 313 632 313 621.5 271.5 c 128,-1,68
 611 230 611 230 601 188 c 2,69,-1
 594 159 l 2,70,71
 589 136 589 136 585 112.5 c 128,-1,72
 581 89 581 89 584 81 c 0,73,74
 586 74 586 74 593 71.5 c 128,-1,75
 600 69 600 69 607 69 c 0,76,77
 635 69 635 69 662.5 93 c 128,-1,78
 690 117 690 117 713 151 c 128,-1,79
 736 185 736 185 752.5 221 c 128,-1,80
 769 257 769 257 774 281 c 0,81,82
 789 344 789 344 778.5 397 c 128,-1,83
 768 450 768 450 737.5 488 c 128,-1,84
 707 526 707 526 660.5 547 c 128,-1,85
 614 568 614 568 558 568 c 0,86,87
 489 568 489 568 427 539.5 c 128,-1,88
 365 511 365 511 315 463 c 128,-1,89
 265 415 265 415 229 351 c 128,-1,90
 193 287 193 287 177 217 c 0,91,92
 161 148 161 148 168.5 91 c 128,-1,93
 176 34 176 34 203 -11 c 0,94,95
 234 -60 234 -60 285 -87 c 128,-1,96
 336 -114 336 -114 406 -114 c 0,97,98
 432 -114 432 -114 464.5 -108.5 c 128,-1,99
 497 -103 497 -103 530 -91.5 c 128,-1,100
 563 -80 563 -80 593.5 -63.5 c 128,-1,101
 624 -47 624 -47 647 -25 c 1,102,103
 657 -28 657 -28 666.5 -31 c 128,-1,104
 676 -34 676 -34 686 -36 c 1,105,106
 618 -99 618 -99 542.5 -131.5 c 128,-1,107
 467 -164 467 -164 388 -164 c 0,108,109
 330 -164 330 -164 280 -146.5 c 128,-1,110
 230 -129 230 -129 192 -96 c 128,-1,111
 154 -63 154 -63 128.5 -16.5 c 128,-1,112
 103 30 103 30 97 89 c 0,113,114
 93 123 93 123 96.5 159 c 128,-1,115
 100 195 100 195 108 231 c 0,116,117
 126 309 126 309 172.5 380.5 c 128,-1,118
 219 452 219 452 285 506 c 0,119,120
 350 560 350 560 423 586.5 c 128,-1,121
 496 613 496 613 568 613 c 0,122,123
 614 613 614 613 657 600.5 c 128,-1,124
 700 588 700 588 734.5 563 c 128,-1,125
 769 538 769 538 794 502 c 128,-1,126
 819 466 819 466 827 419 c 0,127,128
 833 388 833 388 833 355.5 c 128,-1,129
 833 323 833 323 825 289 c 0,130,131
 815 245 815 245 792 199.5 c 128,-1,132
 769 154 769 154 737 114.5 c 128,-1,133
 705 75 705 75 665 46.5 c 128,-1,134
 625 18 625 18 581 9 c 0,135,136
 576 8 576 8 570.5 7.5 c 128,-1,137
 565 7 565 7 560 7 c 0,138,139
 529 7 529 7 516.5 28 c 128,-1,140
 504 49 504 49 503 79 c 1,141,-1
 502 79 l 1,22,23
EndSplineSet
EndChar

StartChar: A
Encoding: 65 65 50
Width: 723
GlyphClass: 2
Flags: W
LayerCount: 2
Fore
SplineSet
12 11 m 0,0,1
 15 24 15 24 23 28 c 128,-1,2
 31 32 31 32 42.5 34 c 128,-1,3
 54 36 54 36 66.5 40 c 128,-1,4
 79 44 79 44 90 58 c 0,5,6
 94 62 94 62 102.5 75.5 c 128,-1,7
 111 89 111 89 121 104 c 128,-1,8
 131 119 131 119 139 133.5 c 128,-1,9
 147 148 147 148 152 155 c 0,10,11
 184 209 184 209 216 261.5 c 128,-1,12
 248 314 248 314 281 368 c 0,13,14
 336 459 336 459 391.5 549 c 128,-1,15
 447 639 447 639 502 730 c 0,16,17
 505 736 505 736 508.5 739.5 c 128,-1,18
 512 743 512 743 519 743 c 128,-1,19
 526 743 526 743 528.5 737.5 c 128,-1,20
 531 732 531 732 531 727 c 0,21,22
 539 670 539 670 548 611 c 128,-1,23
 557 552 557 552 565 495 c 0,24,25
 579 386 579 386 597 279 c 128,-1,26
 615 172 615 172 638 66 c 0,27,28
 642 47 642 47 656 41 c 128,-1,29
 670 35 670 35 684 32 c 128,-1,30
 698 29 698 29 708.5 25.5 c 128,-1,31
 719 22 719 22 716 9 c 0,32,33
 714 0 714 0 703.5 -3.5 c 128,-1,34
 693 -7 693 -7 684 -7 c 2,35,-1
 673 -7 l 2,36,37
 651 -7 651 -7 629.5 -4 c 128,-1,38
 608 -1 608 -1 585 -1 c 0,39,40
 552 -1 552 -1 519.5 -4 c 128,-1,41
 487 -7 487 -7 455 -7 c 0,42,43
 447 -7 447 -7 441.5 -1 c 128,-1,44
 436 5 436 5 438 14 c 0,45,46
 441 25 441 25 454.5 27 c 128,-1,47
 468 29 468 29 484.5 30 c 128,-1,48
 501 31 501 31 515 35 c 128,-1,49
 529 39 529 39 533 56 c 0,50,51
 534 59 534 59 533.5 62.5 c 128,-1,52
 533 66 533 66 533 69 c 0,53,54
 533 79 533 79 530 99.5 c 128,-1,55
 527 120 527 120 523 148 c 128,-1,56
 519 176 519 176 514 210 c 128,-1,57
 509 244 509 244 503 280 c 0,58,59
 501 290 501 290 499.5 298 c 128,-1,60
 498 306 498 306 497 308 c 0,61,62
 491 316 491 316 476.5 317.5 c 128,-1,63
 462 319 462 319 446 319 c 2,64,-1
 429 319 l 2,65,66
 418 319 418 319 400 319.5 c 128,-1,67
 382 320 382 320 362 320 c 0,68,69
 343 320 343 320 325 319 c 128,-1,70
 307 318 307 318 294 315 c 1,71,72
 268 273 268 273 243.5 231.5 c 128,-1,73
 219 190 219 190 201 156 c 128,-1,74
 183 122 183 122 172 99 c 128,-1,75
 161 76 161 76 159 71 c 0,76,77
 154 50 154 50 168 44 c 128,-1,78
 182 38 182 38 199.5 36 c 128,-1,79
 217 34 217 34 231 30.5 c 128,-1,80
 245 27 245 27 242 12 c 0,81,82
 240 4 240 4 233 -1.5 c 128,-1,83
 226 -7 226 -7 219 -7 c 0,84,85
 189 -7 189 -7 159 -3.5 c 128,-1,86
 129 0 129 0 99 0 c 0,87,88
 78 0 78 0 60 -2.5 c 128,-1,89
 42 -5 42 -5 21 -5 c 0,90,91
 14 -5 14 -5 12.5 0 c 128,-1,92
 11 5 11 5 12 11 c 0,0,1
470 600 m 1,93,94
 450 568 450 568 435 544.5 c 128,-1,95
 420 521 420 521 405 496 c 128,-1,96
 390 471 390 471 371 440 c 128,-1,97
 352 409 352 409 322 361 c 1,98,-1
 347 361 l 2,99,100
 363 361 363 361 395 361.5 c 128,-1,101
 427 362 427 362 486 362 c 1,102,103
 486 363 486 363 489.5 363.5 c 128,-1,104
 493 364 493 364 495 365 c 0,105,106
 491 400 491 400 487 439.5 c 128,-1,107
 483 479 483 479 480 513.5 c 128,-1,108
 477 548 477 548 474.5 572 c 128,-1,109
 472 596 472 596 470 600 c 1,93,94
EndSplineSet
EndChar

StartChar: B
Encoding: 66 66 51
Width: 639
GlyphClass: 2
Flags: W
LayerCount: 2
Fore
SplineSet
583 557 m 0,0,1
 598 624 598 624 567.5 659 c 128,-1,2
 537 694 537 694 478 694 c 2,3,-1
 465 694 l 2,4,5
 455 694 455 694 442.5 693.5 c 128,-1,6
 430 693 430 693 417.5 689.5 c 128,-1,7
 405 686 405 686 395 679 c 128,-1,8
 385 672 385 672 380 659 c 0,9,10
 376 648 376 648 373 636.5 c 128,-1,11
 370 625 370 625 367 614 c 2,12,-1
 323 423 l 2,13,14
 322 418 322 418 328 412 c 128,-1,15
 334 406 334 406 350 406 c 2,16,-1
 381 406 l 2,17,18
 414 406 414 406 446.5 414 c 128,-1,19
 479 422 479 422 506 440 c 128,-1,20
 533 458 533 458 553.5 487 c 128,-1,21
 574 516 574 516 583 557 c 0,0,1
544 201 m 0,22,23
 555 248 555 248 543 285 c 0,24,25
 533 316 533 316 513.5 333.5 c 128,-1,26
 494 351 494 351 468.5 360 c 128,-1,27
 443 369 443 369 413 371 c 128,-1,28
 383 373 383 373 353 373 c 2,29,-1
 337 373 l 2,30,31
 327 373 327 373 317 368 c 128,-1,32
 307 363 307 363 304 348 c 2,33,-1
 257 144 l 2,34,35
 252 121 252 121 249 96 c 128,-1,36
 246 71 246 71 260 54 c 0,37,38
 272 40 272 40 295.5 37 c 128,-1,39
 319 34 319 34 337 34 c 0,40,41
 423 34 423 34 475 80.5 c 128,-1,42
 527 127 527 127 544 201 c 0,22,23
644 211 m 0,43,44
 631 155 631 155 602.5 114.5 c 128,-1,45
 574 74 574 74 536 47.5 c 128,-1,46
 498 21 498 21 452 8 c 128,-1,47
 406 -5 406 -5 358 -6 c 0,48,49
 353 -7 353 -7 349 -7 c 256,50,51
 345 -7 345 -7 341 -7 c 2,52,-1
 67 -7 l 2,53,54
 57 -7 57 -7 44 -4.5 c 128,-1,55
 31 -2 31 -2 35 13 c 0,56,57
 37 23 37 23 52 25.5 c 128,-1,58
 67 28 67 28 85.5 31 c 128,-1,59
 104 34 104 34 121.5 41 c 128,-1,60
 139 48 139 48 145 65 c 0,61,62
 146 67 146 67 154.5 97 c 128,-1,63
 163 127 163 127 174 174.5 c 128,-1,64
 185 222 185 222 200 281.5 c 128,-1,65
 215 341 215 341 229.5 403 c 128,-1,66
 244 465 244 465 258 524 c 256,67,68
 272 583 272 583 282 628 c 0,69,70
 286 647 286 647 285 658.5 c 128,-1,71
 284 670 284 670 278 676 c 128,-1,72
 272 682 272 682 261 684.5 c 128,-1,73
 250 687 250 687 235 689 c 0,74,75
 232 689 232 689 226 690 c 128,-1,76
 220 691 220 691 215 693 c 128,-1,77
 210 695 210 695 206 698 c 128,-1,78
 202 701 202 701 203 705 c 0,79,80
 205 715 205 715 217 719 c 128,-1,81
 229 723 229 723 245.5 724 c 128,-1,82
 262 725 262 725 279 724 c 128,-1,83
 296 723 296 723 308 723 c 0,84,85
 350 723 350 723 392 727 c 128,-1,86
 434 731 434 731 477 731 c 0,87,88
 515 731 515 731 554.5 722 c 128,-1,89
 594 713 594 713 624 692.5 c 128,-1,90
 654 672 654 672 668.5 638 c 128,-1,91
 683 604 683 604 671 555 c 0,92,93
 658 498 658 498 617 461.5 c 128,-1,94
 576 425 576 425 525 408 c 1,95,96
 529 404 529 404 542 399.5 c 128,-1,97
 555 395 555 395 561 392 c 0,98,99
 611 369 611 369 635 323 c 128,-1,100
 659 277 659 277 644 211 c 0,43,44
EndSplineSet
EndChar

StartChar: C
Encoding: 67 67 52
Width: 674
GlyphClass: 2
Flags: W
LayerCount: 2
Fore
SplineSet
793 758 m 0,0,1
 800 758 800 758 799.5 748 c 128,-1,2
 799 738 799 738 796 724 c 256,3,4
 793 710 793 710 788 695 c 128,-1,5
 783 680 783 680 780 669 c 0,6,7
 774 643 774 643 767 617 c 128,-1,8
 760 591 760 591 752 565 c 0,9,10
 748 556 748 556 744.5 553 c 128,-1,11
 741 550 741 550 738 550 c 0,12,13
 734 550 734 550 731 551 c 128,-1,14
 728 552 728 552 725 552 c 0,15,16
 719 552 719 552 717.5 561 c 128,-1,17
 716 570 716 570 716 582.5 c 128,-1,18
 716 595 716 595 716 608.5 c 128,-1,19
 716 622 716 622 713 632 c 0,20,21
 691 667 691 667 652 685.5 c 128,-1,22
 613 704 613 704 568 704 c 0,23,24
 504 704 504 704 452 677 c 128,-1,25
 400 650 400 650 361 605 c 128,-1,26
 322 560 322 560 294.5 500.5 c 128,-1,27
 267 441 267 441 252 377 c 0,28,29
 236 308 236 308 234.5 243 c 128,-1,30
 233 178 233 178 251.5 127.5 c 128,-1,31
 270 77 270 77 310 46 c 128,-1,32
 350 15 350 15 418 15 c 0,33,34
 440 15 440 15 465.5 20.5 c 128,-1,35
 491 26 491 26 516.5 36.5 c 128,-1,36
 542 47 542 47 565.5 62 c 128,-1,37
 589 77 589 77 608 97 c 0,38,39
 614 104 614 104 623 116 c 128,-1,40
 632 128 632 128 641 140 c 128,-1,41
 650 152 650 152 658 161 c 128,-1,42
 666 170 666 170 670 170 c 0,43,44
 680 170 680 170 683.5 166 c 128,-1,45
 687 162 687 162 685 151 c 0,46,47
 683 143 683 143 676.5 125 c 128,-1,48
 670 107 670 107 661.5 87.5 c 128,-1,49
 653 68 653 68 645 52 c 128,-1,50
 637 36 637 36 631 31 c 0,51,52
 612 16 612 16 583.5 5.5 c 128,-1,53
 555 -5 555 -5 523.5 -12 c 128,-1,54
 492 -19 492 -19 460 -22 c 128,-1,55
 428 -25 428 -25 403 -25 c 0,56,57
 321 -25 321 -25 263 7.5 c 128,-1,58
 205 40 205 40 172 95 c 128,-1,59
 139 150 139 150 131 223 c 128,-1,60
 123 296 123 296 141 376 c 0,61,62
 161 463 161 463 202.5 530.5 c 128,-1,63
 244 598 244 598 299.5 644.5 c 128,-1,64
 355 691 355 691 424 715 c 128,-1,65
 493 739 493 739 568 739 c 0,66,67
 600 739 600 739 630 735 c 128,-1,68
 660 731 660 731 690 724 c 0,69,70
 697 722 697 722 706 718.5 c 128,-1,71
 715 715 715 715 725 712 c 1,72,73
 730 706 730 706 736 712.5 c 128,-1,74
 742 719 742 719 750 729 c 128,-1,75
 758 739 758 739 768.5 748.5 c 128,-1,76
 779 758 779 758 793 758 c 0,0,1
EndSplineSet
EndChar

StartChar: D
Encoding: 68 68 53
Width: 772
GlyphClass: 2
Flags: W
LayerCount: 2
Fore
SplineSet
695 359 m 0,0,1
 723 480 723 480 685.5 565.5 c 128,-1,2
 648 651 648 651 546 686 c 0,3,4
 528 692 528 692 508.5 696.5 c 128,-1,5
 489 701 489 701 468 701 c 2,6,-1
 442 701 l 2,7,8
 443 701 443 701 437 700.5 c 128,-1,9
 431 700 431 700 421.5 697 c 128,-1,10
 412 694 412 694 402 687.5 c 128,-1,11
 392 681 392 681 384 669 c 0,12,13
 379 659 379 659 376 649.5 c 128,-1,14
 373 640 373 640 371 630 c 0,15,16
 365 604 365 604 359 577 c 128,-1,17
 353 550 353 550 347 524 c 0,18,19
 327 436 327 436 306 349.5 c 128,-1,20
 285 263 285 263 265 175 c 0,21,22
 255 131 255 131 253 102 c 128,-1,23
 251 73 251 73 259 56 c 128,-1,24
 267 39 267 39 283 32 c 128,-1,25
 299 25 299 25 324 25 c 0,26,27
 389 25 389 25 449.5 51 c 128,-1,28
 510 77 510 77 559 122.5 c 128,-1,29
 608 168 608 168 643.5 229 c 128,-1,30
 679 290 679 290 695 359 c 0,0,1
799 352 m 0,31,32
 779 266 779 266 730.5 199 c 128,-1,33
 682 132 682 132 616.5 86 c 128,-1,34
 551 40 551 40 474.5 16 c 128,-1,35
 398 -8 398 -8 325 -8 c 0,36,37
 303 -8 303 -8 288.5 -7 c 128,-1,38
 274 -6 274 -6 261.5 -5 c 128,-1,39
 249 -4 249 -4 234.5 -3 c 128,-1,40
 220 -2 220 -2 198 -2 c 0,41,42
 159 -2 159 -2 122.5 -4.5 c 128,-1,43
 86 -7 86 -7 47 -7 c 0,44,45
 39 -7 39 -7 41 2 c 0,46,47
 43 12 43 12 49.5 17 c 128,-1,48
 56 22 56 22 63.5 25 c 128,-1,49
 71 28 71 28 79 29 c 128,-1,50
 87 30 87 30 94 32 c 0,51,52
 125 39 125 39 135.5 53.5 c 128,-1,53
 146 68 146 68 155 98 c 0,54,55
 158 108 158 108 161.5 121 c 128,-1,56
 165 134 165 134 170.5 156.5 c 128,-1,57
 176 179 176 179 185 215 c 128,-1,58
 194 251 194 251 207 309 c 2,59,-1
 261 542 l 2,60,61
 265 558 265 558 269 577 c 128,-1,62
 273 596 273 596 276 613.5 c 128,-1,63
 279 631 279 631 280.5 644.5 c 128,-1,64
 282 658 282 658 282 663 c 0,65,66
 279 678 279 678 266 681.5 c 128,-1,67
 253 685 253 685 239 685 c 0,68,69
 232 685 232 685 224.5 684.5 c 128,-1,70
 217 684 217 684 209 684 c 128,-1,71
 201 684 201 684 195 689 c 0,72,73
 191 693 191 693 194 701 c 128,-1,74
 197 709 197 709 202 713 c 256,75,76
 207 717 207 717 226 720.5 c 128,-1,77
 245 724 245 724 272.5 726.5 c 128,-1,78
 300 729 300 729 330.5 730.5 c 128,-1,79
 361 732 361 732 389.5 733 c 128,-1,80
 418 734 418 734 440.5 734.5 c 128,-1,81
 463 735 463 735 472 735 c 0,82,83
 565 735 565 735 636 709 c 128,-1,84
 707 683 707 683 750 633.5 c 128,-1,85
 793 584 793 584 806.5 513 c 128,-1,86
 820 442 820 442 799 352 c 0,31,32
EndSplineSet
EndChar

StartChar: E
Encoding: 69 69 54
Width: 623
GlyphClass: 2
Flags: W
LayerCount: 2
Fore
SplineSet
652 568 m 0,0,1
 643 568 643 568 640 580.5 c 128,-1,2
 637 593 637 593 635.5 610 c 128,-1,3
 634 627 634 627 631 643.5 c 128,-1,4
 628 660 628 660 617 668 c 0,5,6
 610 673 610 673 594.5 676.5 c 128,-1,7
 579 680 579 680 560 682 c 128,-1,8
 541 684 541 684 520.5 684.5 c 128,-1,9
 500 685 500 685 481 685 c 2,10,-1
 440 685 l 2,11,12
 419 685 419 685 405.5 675.5 c 128,-1,13
 392 666 392 666 383.5 651 c 128,-1,14
 375 636 375 636 370 617.5 c 128,-1,15
 365 599 365 599 361 582 c 0,16,17
 353 548 353 548 345.5 514 c 128,-1,18
 338 480 338 480 330 446 c 2,19,-1
 325 423 l 2,20,21
 322 410 322 410 322 402 c 0,22,23
 325 397 325 397 331.5 395 c 128,-1,24
 338 393 338 393 347 392.5 c 128,-1,25
 356 392 356 392 364.5 392.5 c 128,-1,26
 373 393 373 393 378 393 c 0,27,28
 403 393 403 393 429.5 393.5 c 128,-1,29
 456 394 456 394 482 398 c 0,30,31
 511 403 511 403 527.5 423 c 128,-1,32
 544 443 544 443 553 472 c 0,33,34
 557 478 557 478 561.5 483.5 c 128,-1,35
 566 489 566 489 573 489 c 0,36,37
 583 489 583 489 582 479 c 128,-1,38
 581 469 581 469 578 458 c 0,39,40
 573 437 573 437 567.5 416 c 128,-1,41
 562 395 562 395 557 374 c 256,42,43
 552 353 552 353 548.5 332.5 c 128,-1,44
 545 312 545 312 540 291 c 0,45,46
 539 286 539 286 537.5 278.5 c 128,-1,47
 536 271 536 271 533.5 264 c 128,-1,48
 531 257 531 257 526.5 252.5 c 128,-1,49
 522 248 522 248 516 248 c 0,50,51
 509 248 509 248 507.5 257 c 128,-1,52
 506 266 506 266 506.5 277.5 c 128,-1,53
 507 289 507 289 507.5 300.5 c 128,-1,54
 508 312 508 312 507 317 c 0,55,56
 508 336 508 336 494.5 345.5 c 128,-1,57
 481 355 481 355 461 358.5 c 128,-1,58
 441 362 441 362 418 361.5 c 128,-1,59
 395 361 395 361 377 361 c 0,60,61
 372 361 372 361 365 360.5 c 128,-1,62
 358 360 358 360 349.5 359.5 c 128,-1,63
 341 359 341 359 332.5 358 c 128,-1,64
 324 357 324 357 320 356 c 0,65,66
 314 355 314 355 310.5 347 c 128,-1,67
 307 339 307 339 304 329 c 128,-1,68
 301 319 301 319 299 309 c 128,-1,69
 297 299 297 299 296 295 c 2,70,-1
 260 137 l 2,71,72
 257 126 257 126 254.5 112.5 c 128,-1,73
 252 99 252 99 251 85.5 c 128,-1,74
 250 72 250 72 252.5 60.5 c 128,-1,75
 255 49 255 49 264 43 c 0,76,77
 271 39 271 39 289 36.5 c 128,-1,78
 307 34 307 34 327.5 33 c 128,-1,79
 348 32 348 32 367.5 31.5 c 128,-1,80
 387 31 387 31 395 31 c 2,81,-1
 424 31 l 2,82,83
 436 31 436 31 451 32 c 128,-1,84
 466 33 466 33 480 34.5 c 128,-1,85
 494 36 494 36 506.5 39 c 128,-1,86
 519 42 519 42 527 47 c 0,87,88
 542 56 542 56 557.5 75 c 128,-1,89
 573 94 573 94 587.5 113 c 128,-1,90
 602 132 602 132 614 146.5 c 128,-1,91
 626 161 626 161 634 161 c 0,92,93
 645 161 645 161 644.5 153 c 128,-1,94
 644 145 644 145 638 137 c 0,95,96
 638 136 638 136 634 127 c 128,-1,97
 630 118 630 118 629 116 c 0,98,99
 627 113 627 113 619.5 95.5 c 128,-1,100
 612 78 612 78 603 58.5 c 128,-1,101
 594 39 594 39 587 23 c 2,102,-1
 580 7 l 1,103,104
 570 -5 570 -5 554 -5 c 2,105,-1
 115 -5 l 2,106,107
 102 -5 102 -5 88.5 -6 c 128,-1,108
 75 -7 75 -7 61 -7 c 0,109,110
 51 -7 51 -7 41 -6 c 128,-1,111
 31 -5 31 -5 34 10 c 0,112,113
 36 18 36 18 48.5 22 c 128,-1,114
 61 26 61 26 78 30 c 128,-1,115
 95 34 95 34 112.5 40.5 c 128,-1,116
 130 47 130 47 141 60 c 0,117,118
 151 72 151 72 160.5 99 c 128,-1,119
 170 126 170 126 177 158 c 0,120,121
 185 191 185 191 191.5 224.5 c 128,-1,122
 198 258 198 258 204 283 c 0,123,124
 223 364 223 364 240.5 444 c 128,-1,125
 258 524 258 524 277 605 c 2,126,-1
 281 623 l 2,127,128
 282 628 282 628 283 632 c 256,129,130
 284 636 284 636 284 641 c 0,131,132
 288 667 288 667 274.5 675.5 c 128,-1,133
 261 684 261 684 243.5 686.5 c 128,-1,134
 226 689 226 689 212.5 691.5 c 128,-1,135
 199 694 199 694 202 707 c 0,136,137
 204 716 204 716 212.5 719.5 c 128,-1,138
 221 723 221 723 232 724.5 c 128,-1,139
 243 726 243 726 255 725.5 c 128,-1,140
 267 725 267 725 275 725 c 0,141,142
 307 725 307 725 338.5 723.5 c 128,-1,143
 370 722 370 722 402 722 c 0,144,145
 466 722 466 722 528.5 723.5 c 128,-1,146
 591 725 591 725 655 725 c 2,147,-1
 665 725 l 2,148,149
 675 725 675 725 685 723 c 128,-1,150
 695 721 695 721 695 713 c 0,151,152
 694 693 694 693 690 676 c 0,153,154
 688 667 688 667 684.5 654.5 c 128,-1,155
 681 642 681 642 677 624 c 0,156,157
 672 604 672 604 666 586.5 c 128,-1,158
 660 569 660 569 652 568 c 0,0,1
EndSplineSet
EndChar

StartChar: F
Encoding: 70 70 55
Width: 564
GlyphClass: 2
Flags: W
LayerCount: 2
Fore
SplineSet
199 703 m 0,0,1
 200 709 200 709 203 713 c 128,-1,2
 206 717 206 717 213.5 719.5 c 128,-1,3
 221 722 221 722 234.5 722.5 c 128,-1,4
 248 723 248 723 272 723 c 0,5,6
 294 723 294 723 314 722.5 c 128,-1,7
 334 722 334 722 342 722 c 2,8,-1
 486 722 l 2,9,10
 529 722 529 722 571 722.5 c 128,-1,11
 613 723 613 723 655 723 c 2,12,-1
 676 723 l 2,13,14
 683 723 683 723 688.5 722.5 c 128,-1,15
 694 722 694 722 696 722 c 0,16,17
 700 721 700 721 698.5 705.5 c 128,-1,18
 697 690 697 690 693 670.5 c 128,-1,19
 689 651 689 651 684 632 c 128,-1,20
 679 613 679 613 677 605 c 0,21,22
 676 599 676 599 674 592 c 256,23,24
 672 585 672 585 670 579 c 128,-1,25
 668 573 668 573 664.5 569 c 128,-1,26
 661 565 661 565 655 565 c 0,27,28
 641 565 641 565 640.5 579 c 128,-1,29
 640 593 640 593 641 611.5 c 128,-1,30
 642 630 642 630 638.5 648.5 c 128,-1,31
 635 667 635 667 616 675 c 0,32,33
 608 679 608 679 591.5 681 c 128,-1,34
 575 683 575 683 557.5 684.5 c 128,-1,35
 540 686 540 686 523 686.5 c 128,-1,36
 506 687 506 687 495 687 c 2,37,-1
 475 687 l 2,38,39
 456 687 456 687 433.5 684 c 128,-1,40
 411 681 411 681 401 675 c 0,41,42
 381 663 381 663 374.5 645.5 c 128,-1,43
 368 628 368 628 364 608 c 0,44,45
 354 563 354 563 344 518 c 128,-1,46
 334 473 334 473 323 428 c 0,47,48
 319 412 319 412 321.5 404.5 c 128,-1,49
 324 397 324 397 330.5 394.5 c 128,-1,50
 337 392 337 392 346 392.5 c 128,-1,51
 355 393 355 393 365 393 c 2,52,-1
 399 393 l 2,53,54
 415 393 415 393 432.5 393.5 c 128,-1,55
 450 394 450 394 467 396.5 c 128,-1,56
 484 399 484 399 497.5 403 c 128,-1,57
 511 407 511 407 519 414 c 0,58,59
 531 424 531 424 538 438 c 128,-1,60
 545 452 545 452 551 464 c 128,-1,61
 557 476 557 476 563.5 484.5 c 128,-1,62
 570 493 570 493 581 493 c 0,63,64
 588 493 588 493 587 484 c 128,-1,65
 586 475 586 475 585 470 c 0,66,67
 580 448 580 448 574 427 c 128,-1,68
 568 406 568 406 563 384 c 256,69,70
 558 362 558 362 554.5 341 c 128,-1,71
 551 320 551 320 546 298 c 0,72,73
 545 292 545 292 543.5 284.5 c 128,-1,74
 542 277 542 277 539 269.5 c 128,-1,75
 536 262 536 262 531.5 257 c 128,-1,76
 527 252 527 252 521 252 c 0,77,78
 512 252 512 252 511 266 c 128,-1,79
 510 280 510 280 509.5 297.5 c 128,-1,80
 509 315 509 315 503.5 332 c 128,-1,81
 498 349 498 349 479 355 c 0,82,83
 467 360 467 360 441.5 361.5 c 128,-1,84
 416 363 416 363 395 363 c 2,85,-1
 370 363 l 2,86,87
 363 363 363 363 353 363.5 c 128,-1,88
 343 364 343 364 333 362.5 c 128,-1,89
 323 361 323 361 314.5 356 c 128,-1,90
 306 351 306 351 304 341 c 0,91,92
 294 296 294 296 282.5 252 c 128,-1,93
 271 208 271 208 261 163 c 2,94,-1
 256 142 l 2,95,96
 254 132 254 132 251 119 c 0,97,98
 248 107 248 107 246.5 95.5 c 128,-1,99
 245 84 245 84 243 75 c 128,-1,100
 241 66 241 66 243 63 c 0,101,102
 247 44 247 44 263.5 38 c 128,-1,103
 280 32 280 32 298 30 c 128,-1,104
 316 28 316 28 329.5 24.5 c 128,-1,105
 343 21 343 21 339 7 c 0,106,107
 337 -2 337 -2 327.5 -5.5 c 128,-1,108
 318 -9 318 -9 309 -9 c 2,109,-1
 299 -9 l 2,110,111
 265 -9 265 -9 231.5 -5.5 c 128,-1,112
 198 -2 198 -2 163 -2 c 0,113,114
 136 -2 136 -2 110 -5.5 c 128,-1,115
 84 -9 84 -9 58 -9 c 0,116,117
 51 -9 51 -9 40.5 -7.5 c 128,-1,118
 30 -6 30 -6 33 5 c 0,119,120
 35 13 35 13 44.5 17.5 c 128,-1,121
 54 22 54 22 65.5 24 c 128,-1,122
 77 26 77 26 89 27.5 c 128,-1,123
 101 29 101 29 107 31 c 0,124,125
 128 35 128 35 140 55 c 0,126,127
 144 61 144 61 150 77 c 128,-1,128
 156 93 156 93 161.5 113.5 c 128,-1,129
 167 134 167 134 172.5 155.5 c 128,-1,130
 178 177 178 177 182 195 c 2,131,-1
 191 232 l 2,132,133
 214 332 214 332 235 429 c 128,-1,134
 256 526 256 526 279 626 c 0,135,136
 285 650 285 650 280 662.5 c 128,-1,137
 275 675 275 675 265.5 680.5 c 128,-1,138
 256 686 256 686 244 687 c 128,-1,139
 232 688 232 688 221 688.5 c 128,-1,140
 210 689 210 689 203.5 691.5 c 128,-1,141
 197 694 197 694 199 703 c 0,0,1
EndSplineSet
EndChar

StartChar: G
Encoding: 71 71 56
Width: 747
GlyphClass: 2
Flags: W
LayerCount: 2
Fore
SplineSet
791 739 m 0,0,1
 798 739 798 739 797 729 c 128,-1,2
 796 719 796 719 793 705 c 256,3,4
 790 691 790 691 785 676 c 128,-1,5
 780 661 780 661 778 650 c 0,6,7
 772 624 772 624 765 598 c 128,-1,8
 758 572 758 572 750 546 c 0,9,10
 746 537 746 537 742.5 534 c 128,-1,11
 739 531 739 531 735 531 c 256,12,13
 731 531 731 531 728 532 c 128,-1,14
 725 533 725 533 723 533 c 0,15,16
 717 533 717 533 714.5 541 c 128,-1,17
 712 549 712 549 711.5 561 c 128,-1,18
 711 573 711 573 711.5 586.5 c 128,-1,19
 712 600 712 600 711 611 c 0,20,21
 707 632 707 632 693.5 649 c 128,-1,22
 680 666 680 666 659.5 678 c 128,-1,23
 639 690 639 690 614.5 696.5 c 128,-1,24
 590 703 590 703 565 703 c 0,25,26
 496 703 496 703 444.5 674.5 c 128,-1,27
 393 646 393 646 355 599 c 128,-1,28
 317 552 317 552 292 491.5 c 128,-1,29
 267 431 267 431 252 368 c 0,30,31
 237 302 237 302 235 241.5 c 128,-1,32
 233 181 233 181 249.5 134.5 c 128,-1,33
 266 88 266 88 301.5 60.5 c 128,-1,34
 337 33 337 33 398 33 c 128,-1,35
 459 33 459 33 496 44.5 c 128,-1,36
 533 56 533 56 553.5 77.5 c 128,-1,37
 574 99 574 99 584 130.5 c 128,-1,38
 594 162 594 162 604 203 c 0,39,40
 617 258 617 258 622 289 c 128,-1,41
 627 320 627 320 623 335.5 c 128,-1,42
 619 351 619 351 605 354.5 c 128,-1,43
 591 358 591 358 565 358 c 0,44,45
 553 358 553 358 543.5 360 c 128,-1,46
 534 362 534 362 538 379 c 0,47,48
 540 386 540 386 546 389.5 c 128,-1,49
 552 393 552 393 559 394.5 c 128,-1,50
 566 396 566 396 573.5 396.5 c 128,-1,51
 581 397 581 397 585 397 c 0,52,53
 613 397 613 397 631.5 395 c 128,-1,54
 650 393 650 393 678 393 c 0,55,56
 709 393 709 393 732.5 395.5 c 128,-1,57
 756 398 756 398 786 398 c 0,58,59
 796 398 796 398 807.5 396 c 128,-1,60
 819 394 819 394 816 380 c 0,61,62
 814 370 814 370 805 367.5 c 128,-1,63
 796 365 796 365 784 364.5 c 128,-1,64
 772 364 772 364 758.5 362 c 128,-1,65
 745 360 745 360 733 351 c 0,66,67
 729 349 729 349 724 341 c 128,-1,68
 719 333 719 333 715 321.5 c 128,-1,69
 711 310 711 310 707 297 c 128,-1,70
 703 284 703 284 701 273 c 2,71,-1
 696 253 l 2,72,73
 693 240 693 240 688.5 218 c 128,-1,74
 684 196 684 196 679 172.5 c 128,-1,75
 674 149 674 149 669.5 127 c 128,-1,76
 665 105 665 105 662 92 c 0,77,78
 660 85 660 85 657.5 75 c 128,-1,79
 655 65 655 65 649 60 c 0,80,81
 627 37 627 37 591 24.5 c 128,-1,82
 555 12 555 12 516 5.5 c 128,-1,83
 477 -1 477 -1 440.5 -2.5 c 128,-1,84
 404 -4 404 -4 383 -4 c 0,85,86
 310 -4 310 -4 254 17.5 c 128,-1,87
 198 39 198 39 165 83 c 128,-1,88
 132 127 132 127 123.5 194 c 128,-1,89
 115 261 115 261 136 351 c 0,90,91
 157 442 157 442 199 514 c 128,-1,92
 241 586 241 586 299 636.5 c 128,-1,93
 357 687 357 687 428.5 713.5 c 128,-1,94
 500 740 500 740 580 740 c 0,95,96
 620 740 620 740 661.5 728 c 128,-1,97
 703 716 703 716 730 693 c 0,98,99
 735 688 735 688 742 694.5 c 128,-1,100
 749 701 749 701 757 711 c 128,-1,101
 765 721 765 721 774 730 c 128,-1,102
 783 739 783 739 791 739 c 0,0,1
EndSplineSet
EndChar

StartChar: H
Encoding: 72 72 57
Width: 803
GlyphClass: 2
Flags: W
LayerCount: 2
Fore
SplineSet
932 698 m 0,0,1
 928 692 928 692 916 690.5 c 128,-1,2
 904 689 904 689 889.5 688 c 128,-1,3
 875 687 875 687 861 684 c 128,-1,4
 847 681 847 681 838 672 c 0,5,6
 828 663 828 663 822.5 648 c 128,-1,7
 817 633 817 633 813 616 c 2,8,-1
 809 599 l 2,9,10
 780 473 780 473 750.5 349.5 c 128,-1,11
 721 226 721 226 692 100 c 0,12,13
 686 75 686 75 690.5 61.5 c 128,-1,14
 695 48 695 48 704.5 41.5 c 128,-1,15
 714 35 714 35 726.5 33 c 128,-1,16
 739 31 739 31 750 29 c 128,-1,17
 761 27 761 27 767.5 23 c 128,-1,18
 774 19 774 19 771 8 c 0,19,20
 768 -7 768 -7 758 -8 c 128,-1,21
 748 -9 748 -9 737 -9 c 0,22,23
 706 -9 706 -9 675.5 -6 c 128,-1,24
 645 -3 645 -3 614 -3 c 0,25,26
 584 -3 584 -3 553.5 -6 c 128,-1,27
 523 -9 523 -9 493 -9 c 0,28,29
 473 -9 473 -9 477 7 c 0,30,31
 480 22 480 22 490.5 25 c 128,-1,32
 501 28 501 28 515 28 c 256,33,34
 529 28 529 28 545 30.5 c 128,-1,35
 561 33 561 33 575 47 c 0,36,37
 588 61 588 61 595.5 82 c 128,-1,38
 603 103 603 103 607 120 c 2,39,-1
 649 302 l 2,40,41
 652 317 652 317 648.5 323.5 c 128,-1,42
 645 330 645 330 637 332 c 128,-1,43
 629 334 629 334 619 333.5 c 128,-1,44
 609 333 609 333 601 333 c 2,45,-1
 374 333 l 2,46,47
 363 333 363 333 350 333.5 c 128,-1,48
 337 334 337 334 325.5 331.5 c 128,-1,49
 314 329 314 329 305.5 322.5 c 128,-1,50
 297 316 297 316 294 301 c 2,51,-1
 249 105 l 2,52,53
 244 85 244 85 243.5 81.5 c 128,-1,54
 243 78 243 78 243 75 c 0,55,56
 240 48 240 48 253.5 39.5 c 128,-1,57
 267 31 267 31 284 29 c 128,-1,58
 301 27 301 27 315 25.5 c 128,-1,59
 329 24 329 24 326 10 c 0,60,61
 323 -5 323 -5 312.5 -6.5 c 128,-1,62
 302 -8 302 -8 290 -8 c 0,63,64
 266 -8 266 -8 241.5 -5.5 c 128,-1,65
 217 -3 217 -3 193 -3 c 2,66,-1
 157 -3 l 2,67,68
 132 -3 132 -3 107 -6 c 128,-1,69
 82 -9 82 -9 58 -9 c 0,70,71
 51 -9 51 -9 40.5 -8 c 128,-1,72
 30 -7 30 -7 33 4 c 0,73,74
 36 19 36 19 51.5 22.5 c 128,-1,75
 67 26 67 26 85 29 c 128,-1,76
 103 32 103 32 121.5 41.5 c 128,-1,77
 140 51 140 51 150 78 c 0,78,79
 158 100 158 100 164 123 c 128,-1,80
 170 146 170 146 175 168 c 2,81,-1
 276 607 l 2,82,83
 283 637 283 637 280 653 c 128,-1,84
 277 669 277 669 267.5 676.5 c 128,-1,85
 258 684 258 684 246 686 c 128,-1,86
 234 688 234 688 223.5 689.5 c 128,-1,87
 213 691 213 691 206.5 694.5 c 128,-1,88
 200 698 200 698 203 710 c 0,89,90
 205 719 205 719 214.5 721.5 c 128,-1,91
 224 724 224 724 233 724 c 2,92,-1
 244 724 l 2,93,94
 268 724 268 724 291 722.5 c 128,-1,95
 314 721 314 721 338 721 c 0,96,97
 371 721 371 721 405.5 722 c 128,-1,98
 440 723 440 723 473 723 c 0,99,100
 479 723 479 723 483.5 720 c 128,-1,101
 488 717 488 717 487 710 c 0,102,103
 482 690 482 690 466.5 687.5 c 128,-1,104
 451 685 451 685 433 685 c 0,105,106
 424 685 424 685 415 683 c 128,-1,107
 406 681 406 681 397.5 675.5 c 128,-1,108
 389 670 389 670 382.5 659.5 c 128,-1,109
 376 649 376 649 372 632 c 0,110,111
 369 618 369 618 365.5 604 c 128,-1,112
 362 590 362 590 358 576 c 2,113,-1
 319 406 l 2,114,115
 313 378 313 378 337 378 c 0,116,117
 376 378 376 378 406 377.5 c 128,-1,118
 436 377 436 377 465 377 c 256,119,120
 494 377 494 377 524 376.5 c 128,-1,121
 554 376 554 376 593 376 c 0,122,123
 602 376 602 376 613.5 375.5 c 128,-1,124
 625 375 625 375 636.5 375.5 c 128,-1,125
 648 376 648 376 656.5 378.5 c 128,-1,126
 665 381 665 381 668 387 c 0,127,128
 670 390 670 390 674 405.5 c 128,-1,129
 678 421 678 421 683 443 c 0,130,131
 688 466 688 466 694.5 491.5 c 128,-1,132
 701 517 701 517 706 540 c 2,133,-1
 721 605 l 2,134,135
 723 612 723 612 724.5 621.5 c 128,-1,136
 726 631 726 631 727 640.5 c 128,-1,137
 728 650 728 650 727 658.5 c 128,-1,138
 726 667 726 667 722 672 c 0,139,140
 717 676 717 676 709.5 678.5 c 128,-1,141
 702 681 702 681 692.5 682 c 128,-1,142
 683 683 683 683 676 684.5 c 128,-1,143
 669 686 669 686 667 689 c 0,144,145
 658 689 658 689 652.5 691 c 128,-1,146
 647 693 647 693 649 705 c 0,147,148
 651 713 651 713 655.5 716.5 c 128,-1,149
 660 720 660 720 667 721.5 c 128,-1,150
 674 723 674 723 681 722.5 c 128,-1,151
 688 722 688 722 695 722 c 0,152,153
 719 722 719 722 742 719.5 c 128,-1,154
 765 717 765 717 788 717 c 0,155,156
 817 717 817 717 846 719 c 128,-1,157
 875 721 875 721 904 721 c 0,158,159
 925 721 925 721 930 717 c 128,-1,160
 935 713 935 713 932 698 c 0,0,1
EndSplineSet
EndChar

StartChar: I
Encoding: 73 73 58
Width: 351
GlyphClass: 2
Flags: W
LayerCount: 2
Fore
SplineSet
483 706 m 0,0,1
 480 692 480 692 469.5 689 c 128,-1,2
 459 686 459 686 446 686 c 0,3,4
 421 686 421 686 406 682 c 128,-1,5
 391 678 391 678 382.5 669 c 128,-1,6
 374 660 374 660 370 647 c 128,-1,7
 366 634 366 634 362 616 c 0,8,9
 347 553 347 553 331.5 491 c 128,-1,10
 316 429 316 429 301 366 c 2,11,-1
 243 111 l 2,12,13
 239 95 239 95 236.5 75 c 128,-1,14
 234 55 234 55 243 44 c 0,15,16
 250 36 250 36 263.5 33 c 128,-1,17
 277 30 277 30 290 27.5 c 128,-1,18
 303 25 303 25 312.5 22 c 128,-1,19
 322 19 322 19 320 10 c 0,20,21
 317 -5 317 -5 303 -6.5 c 128,-1,22
 289 -8 289 -8 275 -8 c 0,23,24
 249 -8 249 -8 223.5 -5 c 128,-1,25
 198 -2 198 -2 172 -2 c 0,26,27
 144 -2 144 -2 121 -5.5 c 128,-1,28
 98 -9 98 -9 70 -9 c 2,29,-1
 57 -9 l 2,30,31
 48 -9 48 -9 39.5 -5.5 c 128,-1,32
 31 -2 31 -2 34 10 c 0,33,34
 36 19 36 19 46 22.5 c 128,-1,35
 56 26 56 26 69.5 28.5 c 128,-1,36
 83 31 83 31 97.5 34.5 c 128,-1,37
 112 38 112 38 124 47 c 0,38,39
 135 55 135 55 142 75.5 c 128,-1,40
 149 96 149 96 153 115 c 2,41,-1
 158 136 l 1,42,-1
 240 486 l 2,43,44
 246 512 246 512 252 537 c 128,-1,45
 258 562 258 562 264 587 c 2,46,-1
 268 606 l 2,47,48
 272 623 272 623 274 643 c 128,-1,49
 276 663 276 663 272 671 c 0,50,51
 264 682 264 682 251 684.5 c 128,-1,52
 238 687 238 687 225 688 c 128,-1,53
 212 689 212 689 204 693 c 128,-1,54
 196 697 196 697 200 711 c 0,55,56
 202 721 202 721 211 722.5 c 128,-1,57
 220 724 220 724 228 724 c 2,58,-1
 238 724 l 2,59,60
 265 724 265 724 292 721 c 128,-1,61
 319 718 319 718 345 718 c 0,62,63
 358 718 358 718 372.5 719.5 c 128,-1,64
 387 721 387 721 400 721 c 2,65,-1
 481 721 l 2,66,67
 482 719 482 719 483 714 c 128,-1,68
 484 709 484 709 483 706 c 0,0,1
EndSplineSet
EndChar

StartChar: J
Encoding: 74 74 59
Width: 331
GlyphClass: 2
Flags: W
LayerCount: 2
Fore
SplineSet
474 704 m 0,0,1
 473 699 473 699 466.5 694.5 c 128,-1,2
 460 690 460 690 441 688 c 0,3,4
 402 689 402 689 384 671 c 128,-1,5
 366 653 366 653 357 611 c 0,6,7
 354 600 354 600 352 589.5 c 128,-1,8
 350 579 350 579 348 568 c 0,9,10
 321 453 321 453 294.5 340.5 c 128,-1,11
 268 228 268 228 242 113 c 0,12,13
 229 57 229 57 206.5 -1.5 c 128,-1,14
 184 -60 184 -60 150.5 -110.5 c 128,-1,15
 117 -161 117 -161 70.5 -198 c 128,-1,16
 24 -235 24 -235 -38 -249 c 0,17,18
 -44 -250 -44 -250 -46 -245 c 128,-1,19
 -48 -240 -48 -240 -47 -233 c 0,20,21
 -45 -226 -45 -226 -40.5 -219.5 c 128,-1,22
 -36 -213 -36 -213 -30 -212 c 0,23,24
 -3 -209 -3 -209 19.5 -188 c 128,-1,25
 42 -167 42 -167 61 -136 c 128,-1,26
 80 -105 80 -105 94.5 -68 c 128,-1,27
 109 -31 109 -31 120 5 c 128,-1,28
 131 41 131 41 139 71 c 128,-1,29
 147 101 147 101 152 118 c 0,30,31
 167 178 167 178 181 238 c 128,-1,32
 195 298 195 298 209 358 c 2,33,-1
 265 602 l 2,34,35
 270 625 270 625 273 649 c 0,36,37
 276 672 276 672 261.5 678 c 128,-1,38
 247 684 247 684 228 685 c 128,-1,39
 209 686 209 686 194 688.5 c 128,-1,40
 179 691 179 691 183 707 c 0,41,42
 185 715 185 715 191.5 719 c 128,-1,43
 198 723 198 723 205 723 c 0,44,45
 248 723 248 723 289.5 720 c 128,-1,46
 331 717 331 717 374 717 c 0,47,48
 394 717 394 717 415 719.5 c 128,-1,49
 436 722 436 722 457 722 c 0,50,51
 464 722 464 722 470 718 c 128,-1,52
 476 714 476 714 474 704 c 0,0,1
EndSplineSet
EndChar

StartChar: K
Encoding: 75 75 60
Width: 743
GlyphClass: 2
Flags: W
LayerCount: 2
Fore
SplineSet
370 718 m 2,0,1
 391 718 391 718 412 720.5 c 128,-1,2
 433 723 433 723 455 723 c 2,3,-1
 463 723 l 2,4,5
 470 723 470 723 478 720 c 128,-1,6
 486 717 486 717 484 711 c 0,7,8
 481 707 481 707 479 701.5 c 128,-1,9
 477 696 477 696 475 693 c 0,10,11
 469 685 469 685 454.5 686.5 c 128,-1,12
 440 688 440 688 424 686 c 128,-1,13
 408 684 408 684 394 672 c 128,-1,14
 380 660 380 660 371 624 c 2,15,-1
 359 571 l 2,16,17
 353 547 353 547 348.5 524.5 c 128,-1,18
 344 502 344 502 338 478 c 2,19,-1
 326 425 l 2,20,21
 326 423 326 423 323 416.5 c 128,-1,22
 320 410 320 410 322 409 c 0,23,24
 332 409 332 409 343.5 415 c 128,-1,25
 355 421 355 421 366 429 c 128,-1,26
 377 437 377 437 386.5 445 c 128,-1,27
 396 453 396 453 402 458 c 0,28,29
 410 465 410 465 431 482 c 128,-1,30
 452 499 452 499 478.5 520.5 c 128,-1,31
 505 542 505 542 534 566 c 128,-1,32
 563 590 563 590 587.5 611.5 c 128,-1,33
 612 633 612 633 628.5 649 c 128,-1,34
 645 665 645 665 646 671 c 0,35,36
 648 681 648 681 635.5 683 c 128,-1,37
 623 685 623 685 608 685.5 c 128,-1,38
 593 686 593 686 580.5 688 c 128,-1,39
 568 690 568 690 570 700 c 2,40,-1
 572 708 l 1,41,42
 580 721 580 721 594 721.5 c 128,-1,43
 608 722 608 722 621 722 c 0,44,45
 646 722 646 722 671 720.5 c 128,-1,46
 696 719 696 719 722 719 c 0,47,48
 745 719 745 719 768.5 720.5 c 128,-1,49
 792 722 792 722 815 722 c 0,50,51
 822 722 822 722 828 718 c 128,-1,52
 834 714 834 714 832 705 c 0,53,54
 829 694 829 694 818 690 c 128,-1,55
 807 686 807 686 791.5 684 c 128,-1,56
 776 682 776 682 759 679.5 c 128,-1,57
 742 677 742 677 729 670 c 0,58,59
 721 666 721 666 695.5 648 c 128,-1,60
 670 630 670 630 637.5 605.5 c 128,-1,61
 605 581 605 581 568.5 552.5 c 128,-1,62
 532 524 532 524 501.5 499 c 128,-1,63
 471 474 471 474 449.5 456 c 128,-1,64
 428 438 428 438 425 433 c 0,65,66
 426 428 426 428 437.5 408 c 128,-1,67
 449 388 449 388 465.5 360.5 c 128,-1,68
 482 333 482 333 501.5 301.5 c 128,-1,69
 521 270 521 270 538.5 242 c 128,-1,70
 556 214 556 214 570 192.5 c 128,-1,71
 584 171 584 171 589 164 c 0,72,73
 600 145 600 145 612 123.5 c 128,-1,74
 624 102 624 102 637.5 83 c 128,-1,75
 651 64 651 64 667.5 49.5 c 128,-1,76
 684 35 684 35 706 29 c 0,77,78
 718 27 718 27 728.5 23.5 c 128,-1,79
 739 20 739 20 734 4 c 0,80,81
 731 -4 731 -4 722 -5.5 c 128,-1,82
 713 -7 713 -7 707 -7 c 0,83,84
 677 -7 677 -7 649 -4.5 c 128,-1,85
 621 -2 621 -2 591 -2 c 0,86,87
 556 -2 556 -2 519 -4.5 c 128,-1,88
 482 -7 482 -7 447 -7 c 0,89,90
 438 -7 438 -7 433 -4.5 c 128,-1,91
 428 -2 428 -2 430 10 c 0,92,93
 432 20 432 20 443 25 c 128,-1,94
 454 30 454 30 467.5 32 c 128,-1,95
 481 34 481 34 493 33.5 c 128,-1,96
 505 33 505 33 510 33 c 0,97,98
 517 33 517 33 525 36 c 128,-1,99
 533 39 533 39 528 51 c 0,100,101
 528 53 528 53 524.5 59.5 c 128,-1,102
 521 66 521 66 517.5 74 c 128,-1,103
 514 82 514 82 510.5 89 c 128,-1,104
 507 96 507 96 506 99 c 0,105,106
 499 112 499 112 486 135 c 128,-1,107
 473 158 473 158 457 186 c 128,-1,108
 441 214 441 214 423.5 243 c 128,-1,109
 406 272 406 272 389 297.5 c 128,-1,110
 372 323 372 323 358 341.5 c 128,-1,111
 344 360 344 360 334 366 c 1,112,113
 324 367 324 367 319.5 369 c 128,-1,114
 315 371 315 371 311 363 c 0,115,116
 309 358 309 358 305.5 345.5 c 128,-1,117
 302 333 302 333 299 319 c 2,118,-1
 289 274 l 2,119,120
 280 237 280 237 271 201 c 128,-1,121
 262 165 262 165 254 128 c 0,122,123
 251 113 251 113 248 95 c 128,-1,124
 245 77 245 77 246.5 62 c 128,-1,125
 248 47 248 47 257 38 c 128,-1,126
 266 29 266 29 286 31 c 0,127,128
 289 28 289 28 297 28.5 c 128,-1,129
 305 29 305 29 313.5 28.5 c 128,-1,130
 322 28 322 28 327.5 25.5 c 128,-1,131
 333 23 333 23 331 14 c 0,132,133
 328 3 328 3 318.5 -1.5 c 128,-1,134
 309 -6 309 -6 300 -6 c 2,135,-1
 288 -6 l 2,136,137
 268 -6 268 -6 250 -3.5 c 128,-1,138
 232 -1 232 -1 212 -1 c 0,139,140
 173 -1 173 -1 136 -4 c 128,-1,141
 99 -7 99 -7 60 -7 c 0,142,143
 52 -7 52 -7 41.5 -5 c 128,-1,144
 31 -3 31 -3 34 8 c 0,145,146
 37 20 37 20 47 24.5 c 128,-1,147
 57 29 57 29 70 30.5 c 128,-1,148
 83 32 83 32 96 32.5 c 128,-1,149
 109 33 109 33 118 37 c 128,-1,150
 127 41 127 41 134 50.5 c 128,-1,151
 141 60 141 60 146.5 71 c 128,-1,152
 152 82 152 82 155.5 93.5 c 128,-1,153
 159 105 159 105 161 114 c 0,154,155
 184 214 184 214 208.5 312.5 c 128,-1,156
 233 411 233 411 256 511 c 2,157,-1
 284 633 l 2,158,159
 288 649 288 649 287.5 665.5 c 128,-1,160
 287 682 287 682 270 685 c 0,161,162
 261 687 261 687 249.5 686.5 c 128,-1,163
 238 686 238 686 227.5 687.5 c 128,-1,164
 217 689 217 689 211 694 c 128,-1,165
 205 699 205 699 208 711 c 0,166,167
 210 719 210 719 219.5 721.5 c 128,-1,168
 229 724 229 724 237 724 c 2,169,-1
 247 724 l 2,170,171
 271 724 271 724 294 721 c 128,-1,172
 317 718 317 718 341 718 c 2,173,-1
 370 718 l 2,0,1
EndSplineSet
EndChar

StartChar: L
Encoding: 76 76 61
Width: 582
GlyphClass: 2
Flags: W
LayerCount: 2
Fore
SplineSet
357 717 m 0,0,1
 391 717 391 717 423 719 c 128,-1,2
 455 721 455 721 494 721 c 1,3,4
 501 713 501 713 499 705 c 0,5,6
 496 693 496 693 484.5 689.5 c 128,-1,7
 473 686 473 686 457.5 684.5 c 128,-1,8
 442 683 442 683 427 681.5 c 128,-1,9
 412 680 412 680 401 672 c 0,10,11
 393 666 393 666 387.5 656 c 128,-1,12
 382 646 382 646 378 635 c 128,-1,13
 374 624 374 624 371 613 c 128,-1,14
 368 602 368 602 366 594 c 0,15,16
 345 503 345 503 324 415.5 c 128,-1,17
 303 328 303 328 282 237 c 2,18,-1
 273 199 l 2,19,20
 269 181 269 181 264.5 159.5 c 128,-1,21
 260 138 260 138 257.5 118.5 c 128,-1,22
 255 99 255 99 255 83.5 c 128,-1,23
 255 68 255 68 260 62 c 0,24,25
 279 43 279 43 308.5 39 c 128,-1,26
 338 35 338 35 367.5 39.5 c 128,-1,27
 397 44 397 44 422.5 53 c 128,-1,28
 448 62 448 62 458 68 c 0,29,30
 475 77 475 77 496.5 99.5 c 128,-1,31
 518 122 518 122 537.5 146.5 c 128,-1,32
 557 171 557 171 571.5 190.5 c 128,-1,33
 586 210 586 210 590 213 c 0,34,35
 600 220 600 220 609.5 217.5 c 128,-1,36
 619 215 619 215 621 206 c 1,37,38
 589 166 589 166 566.5 126.5 c 128,-1,39
 544 87 544 87 529 55.5 c 128,-1,40
 514 24 514 24 504.5 4.5 c 128,-1,41
 495 -15 495 -15 489 -15 c 0,42,43
 428 -15 428 -15 364.5 -6 c 128,-1,44
 301 3 301 3 240 3 c 0,45,46
 209 3 209 3 186 1 c 128,-1,47
 163 -1 163 -1 141.5 -3 c 128,-1,48
 120 -5 120 -5 96.5 -7 c 128,-1,49
 73 -9 73 -9 43 -9 c 0,50,51
 37 -9 37 -9 34.5 -4 c 128,-1,52
 32 1 32 1 33 7 c 0,53,54
 36 21 36 21 46.5 24.5 c 128,-1,55
 57 28 57 28 71 29 c 128,-1,56
 85 30 85 30 101.5 32.5 c 128,-1,57
 118 35 118 35 134 48 c 0,58,59
 148 60 148 60 159 92 c 128,-1,60
 170 124 170 124 179 162 c 0,61,62
 188 201 188 201 195.5 240.5 c 128,-1,63
 203 280 203 280 209 308 c 2,64,-1
 276 600 l 2,65,66
 282 625 282 625 283 645 c 0,67,68
 284 667 284 667 269.5 674.5 c 128,-1,69
 255 682 255 682 237.5 684.5 c 128,-1,70
 220 687 220 687 206.5 689.5 c 128,-1,71
 193 692 193 692 196 706 c 256,72,73
 199 720 199 720 210 722 c 128,-1,74
 221 724 221 724 232 724 c 0,75,76
 265 724 265 724 294.5 720.5 c 128,-1,77
 324 717 324 717 357 717 c 0,0,1
EndSplineSet
EndChar

StartChar: M
Encoding: 77 77 62
Width: 929
GlyphClass: 2
Flags: W
LayerCount: 2
Fore
SplineSet
1053 699 m 0,0,1
 1051 691 1051 691 1042.5 686.5 c 128,-1,2
 1034 682 1034 682 1023 680 c 128,-1,3
 1012 678 1012 678 1002 677.5 c 128,-1,4
 992 677 992 677 986 677 c 0,5,6
 967 677 967 677 955.5 669.5 c 128,-1,7
 944 662 944 662 936.5 650 c 128,-1,8
 929 638 929 638 924.5 622 c 128,-1,9
 920 606 920 606 916 590 c 2,10,-1
 910 565 l 2,11,12
 886 451 886 451 865.5 343 c 128,-1,13
 845 235 845 235 823 117 c 0,14,15
 820 99 820 99 818 77 c 128,-1,16
 816 55 816 55 829 44 c 0,17,18
 833 41 833 41 843.5 37.5 c 128,-1,19
 854 34 854 34 866 30.5 c 128,-1,20
 878 27 878 27 889.5 23.5 c 128,-1,21
 901 20 901 20 907 16 c 0,22,23
 912 13 912 13 910 5 c 0,24,25
 908 -5 908 -5 898.5 -6.5 c 128,-1,26
 889 -8 889 -8 880 -8 c 2,27,-1
 871 -8 l 2,28,29
 844 -8 844 -8 817.5 -4.5 c 128,-1,30
 791 -1 791 -1 764 -1 c 0,31,32
 734 -1 734 -1 703 -4.5 c 128,-1,33
 672 -8 672 -8 642 -8 c 0,34,35
 635 -8 635 -8 624 -6 c 128,-1,36
 613 -4 613 -4 616 6 c 0,37,38
 618 15 618 15 626.5 19.5 c 128,-1,39
 635 24 635 24 641 28 c 1,40,41
 666 28 666 28 682.5 33 c 128,-1,42
 699 38 699 38 709 49 c 128,-1,43
 719 60 719 60 725.5 77.5 c 128,-1,44
 732 95 732 95 738 121 c 2,45,-1
 803 454 l 2,46,47
 808 480 808 480 812 501 c 128,-1,48
 816 522 816 522 820 536 c 0,49,50
 827 566 827 566 820 571 c 1,51,52
 816 568 816 568 810 560.5 c 128,-1,53
 804 553 804 553 798.5 544 c 128,-1,54
 793 535 793 535 787.5 526.5 c 128,-1,55
 782 518 782 518 779 514 c 0,56,57
 712 410 712 410 648.5 313 c 128,-1,58
 585 216 585 216 521 111 c 0,59,60
 514 99 514 99 502.5 79.5 c 128,-1,61
 491 60 491 60 479 42 c 128,-1,62
 467 24 467 24 456.5 10.5 c 128,-1,63
 446 -3 446 -3 440 -3 c 0,64,65
 430 -3 430 -3 428 11 c 128,-1,66
 426 25 426 25 426 33 c 0,67,68
 417 127 417 127 404 218 c 128,-1,69
 391 309 391 309 372 399 c 0,70,71
 370 408 370 408 366 436 c 128,-1,72
 362 464 362 464 356.5 495 c 128,-1,73
 351 526 351 526 345.5 550 c 128,-1,74
 340 574 340 574 336 574 c 0,75,76
 334 574 334 574 325.5 544.5 c 128,-1,77
 317 515 317 515 305 468 c 128,-1,78
 293 421 293 421 278.5 363.5 c 128,-1,79
 264 306 264 306 251 251 c 128,-1,80
 238 196 238 196 226.5 149 c 128,-1,81
 215 102 215 102 210 77 c 0,82,83
 206 60 206 60 211.5 51 c 128,-1,84
 217 42 217 42 227.5 37 c 128,-1,85
 238 32 238 32 251.5 30 c 128,-1,86
 265 28 265 28 276.5 26 c 128,-1,87
 288 24 288 24 294.5 19.5 c 128,-1,88
 301 15 301 15 299 5 c 0,89,90
 296 -6 296 -6 284.5 -7 c 128,-1,91
 273 -8 273 -8 266 -8 c 0,92,93
 242 -8 242 -8 219 -6 c 128,-1,94
 196 -4 196 -4 171 -4 c 0,95,96
 141 -4 141 -4 111.5 -6 c 128,-1,97
 82 -8 82 -8 52 -8 c 0,98,99
 46 -8 46 -8 36.5 -5.5 c 128,-1,100
 27 -3 27 -3 28 5 c 0,101,102
 32 21 32 21 46 24.5 c 128,-1,103
 60 28 60 28 77 30.5 c 128,-1,104
 94 33 94 33 112 38.5 c 128,-1,105
 130 44 130 44 143 64 c 0,106,107
 152 79 152 79 158.5 97 c 128,-1,108
 165 115 165 115 171 132 c 0,109,110
 208 250 208 250 244.5 370 c 128,-1,111
 281 490 281 490 308 608 c 0,112,113
 316 643 316 643 305 660 c 128,-1,114
 294 677 294 677 261 684 c 0,115,116
 257 685 257 685 248 687 c 128,-1,117
 239 689 239 689 230 691.5 c 128,-1,118
 221 694 221 694 214.5 698 c 128,-1,119
 208 702 208 702 209 708 c 0,120,121
 212 719 212 719 222.5 720.5 c 128,-1,122
 233 722 233 722 240 722 c 0,123,124
 256 722 256 722 270 720 c 128,-1,125
 284 718 284 718 300 718 c 0,126,127
 324 718 324 718 347.5 720 c 128,-1,128
 371 722 371 722 395 722 c 0,129,130
 402 722 402 722 406.5 721.5 c 128,-1,131
 411 721 411 721 414 714 c 0,132,133
 426 688 426 688 429 655.5 c 128,-1,134
 432 623 432 623 437 593 c 0,135,136
 449 523 449 523 461 454 c 128,-1,137
 473 385 473 385 485 313 c 0,138,139
 488 296 488 296 490.5 273 c 128,-1,140
 493 250 493 250 496.5 228.5 c 128,-1,141
 500 207 500 207 503.5 192 c 128,-1,142
 507 177 507 177 512 177 c 256,143,144
 517 177 517 177 522.5 185 c 128,-1,145
 528 193 528 193 532 200 c 0,146,147
 612 318 612 318 686.5 438.5 c 128,-1,148
 761 559 761 559 841 677 c 0,149,150
 858 703 858 703 866.5 710.5 c 128,-1,151
 875 718 875 718 885 718 c 2,152,-1
 905 718 l 2,153,154
 922 718 922 718 929.5 717 c 128,-1,155
 937 716 937 716 951 716 c 0,156,157
 971 716 971 716 991 717 c 128,-1,158
 1011 718 1011 718 1031 718 c 0,159,160
 1038 718 1038 718 1047.5 714.5 c 128,-1,161
 1057 711 1057 711 1053 699 c 0,0,1
EndSplineSet
EndChar

StartChar: N
Encoding: 78 78 63
Width: 837
GlyphClass: 2
Flags: W
LayerCount: 2
Fore
SplineSet
172 -4 m 0,0,1
 141 -4 141 -4 110 -6 c 128,-1,2
 79 -8 79 -8 47 -8 c 0,3,4
 40 -8 40 -8 31 -5 c 128,-1,5
 22 -2 22 -2 24 9 c 0,6,7
 26 18 26 18 34 22 c 128,-1,8
 42 26 42 26 52.5 27.5 c 128,-1,9
 63 29 63 29 74.5 29.5 c 128,-1,10
 86 30 86 30 93 31 c 0,11,12
 110 34 110 34 121 43 c 128,-1,13
 132 52 132 52 139 65 c 128,-1,14
 146 78 146 78 150.5 93 c 128,-1,15
 155 108 155 108 158 122 c 0,16,17
 188 242 188 242 216.5 358.5 c 128,-1,18
 245 475 245 475 273 595 c 0,19,20
 277 611 277 611 278.5 625.5 c 128,-1,21
 280 640 280 640 276.5 651 c 128,-1,22
 273 662 273 662 262.5 670 c 128,-1,23
 252 678 252 678 232 682 c 0,24,25
 227 683 227 683 216.5 683.5 c 128,-1,26
 206 684 206 684 196 686 c 128,-1,27
 186 688 186 688 179.5 692 c 128,-1,28
 173 696 173 696 175 704 c 0,29,30
 177 713 177 713 188 718 c 128,-1,31
 199 723 199 723 206 723 c 0,32,33
 226 723 226 723 245.5 722 c 128,-1,34
 265 721 265 721 285 721 c 0,35,36
 301 721 301 721 315.5 722 c 128,-1,37
 330 723 330 723 346 723 c 0,38,39
 363 723 363 723 370.5 718.5 c 128,-1,40
 378 714 378 714 384 705 c 128,-1,41
 390 696 390 696 396.5 683 c 128,-1,42
 403 670 403 670 416 652 c 0,43,44
 442 604 442 604 469.5 555.5 c 128,-1,45
 497 507 497 507 530.5 448.5 c 128,-1,46
 564 390 564 390 605 316.5 c 128,-1,47
 646 243 646 243 701 144 c 1,48,49
 714 145 714 145 718 166 c 2,50,-1
 746 287 l 2,51,52
 765 365 765 365 782.5 443 c 128,-1,53
 800 521 800 521 818 599 c 0,54,55
 821 613 821 613 823.5 626 c 128,-1,56
 826 639 826 639 826 652 c 0,57,58
 826 674 826 674 810.5 679.5 c 128,-1,59
 795 685 795 685 776 685.5 c 128,-1,60
 757 686 757 686 742 688 c 128,-1,61
 727 690 727 690 731 706 c 0,62,63
 733 716 733 716 740.5 719.5 c 128,-1,64
 748 723 748 723 755 723 c 0,65,66
 785 723 785 723 814.5 721 c 128,-1,67
 844 719 844 719 873 719 c 0,68,69
 897 719 897 719 922.5 720.5 c 128,-1,70
 948 722 948 722 972 722 c 0,71,72
 992 722 992 722 988 705 c 0,73,74
 985 693 985 693 973 689.5 c 128,-1,75
 961 686 961 686 945.5 684.5 c 128,-1,76
 930 683 930 683 914.5 680.5 c 128,-1,77
 899 678 899 678 891 669 c 0,78,79
 884 661 884 661 875.5 641 c 128,-1,80
 867 621 867 621 860 598.5 c 128,-1,81
 853 576 853 576 848 555 c 128,-1,82
 843 534 843 534 841 524 c 2,83,-1
 793 317 l 2,84,85
 780 259 780 259 762.5 186 c 128,-1,86
 745 113 745 113 722 14 c 0,87,88
 718 -3 718 -3 713 -17.5 c 128,-1,89
 708 -32 708 -32 696 -34 c 0,90,91
 691 -35 691 -35 687 -31.5 c 128,-1,92
 683 -28 683 -28 680 -23 c 128,-1,93
 677 -18 677 -18 674 -12.5 c 128,-1,94
 671 -7 671 -7 670 -3 c 0,95,96
 651 31 651 31 632 65 c 128,-1,97
 613 99 613 99 595 134 c 0,98,99
 594 135 594 135 592.5 138 c 128,-1,100
 591 141 591 141 584.5 152.5 c 128,-1,101
 578 164 578 164 564 188.5 c 128,-1,102
 550 213 550 213 525 257 c 128,-1,103
 500 301 500 301 462 368 c 128,-1,104
 424 435 424 435 368 533 c 0,105,106
 357 553 357 553 346 576.5 c 128,-1,107
 335 600 335 600 319 618 c 1,108,109
 312 601 312 601 308 584 c 0,110,111
 296 530 296 530 286 482.5 c 128,-1,112
 276 435 276 435 264.5 384 c 128,-1,113
 253 333 253 333 240.5 273.5 c 128,-1,114
 228 214 228 214 210 136 c 0,115,116
 199 90 199 90 200 69 c 128,-1,117
 201 48 201 48 210.5 40.5 c 128,-1,118
 220 33 220 33 238 32 c 128,-1,119
 256 31 256 31 281 25 c 0,120,121
 288 23 288 23 293.5 17.5 c 128,-1,122
 299 12 299 12 297 2 c 0,123,124
 296 -4 296 -4 289.5 -6 c 128,-1,125
 283 -8 283 -8 279 -8 c 0,126,127
 252 -8 252 -8 225.5 -6 c 128,-1,128
 199 -4 199 -4 172 -4 c 0,0,1
EndSplineSet
EndChar

StartChar: O
Encoding: 79 79 64
Width: 820
GlyphClass: 2
Flags: W
LayerCount: 2
Fore
SplineSet
745 410 m 0,0,1
 749 474 749 474 737.5 532 c 128,-1,2
 726 590 726 590 697 631.5 c 128,-1,3
 668 673 668 673 620 692.5 c 128,-1,4
 572 712 572 712 504 699 c 0,5,6
 431 685 431 685 382 645 c 128,-1,7
 333 605 333 605 302.5 551 c 128,-1,8
 272 497 272 497 257 435.5 c 128,-1,9
 242 374 242 374 239 317 c 0,10,11
 235 258 235 258 244 199 c 128,-1,12
 253 140 253 140 280 95 c 128,-1,13
 307 50 307 50 354.5 27 c 128,-1,14
 402 4 402 4 476 18 c 0,15,16
 548 31 548 31 597.5 72.5 c 128,-1,17
 647 114 647 114 679 170.5 c 128,-1,18
 711 227 711 227 726 290 c 128,-1,19
 741 353 741 353 745 410 c 0,0,1
850 365 m 0,20,21
 832 285 832 285 787 213.5 c 128,-1,22
 742 142 742 142 680 88.5 c 128,-1,23
 618 35 618 35 543.5 3.5 c 128,-1,24
 469 -28 469 -28 393 -28 c 0,25,26
 318 -28 318 -28 261 0.5 c 128,-1,27
 204 29 204 29 170 80 c 128,-1,28
 136 131 136 131 126.5 200.5 c 128,-1,29
 117 270 117 270 136 353 c 256,30,31
 155 436 155 436 197.5 507 c 128,-1,32
 240 578 240 578 299 630 c 128,-1,33
 358 682 358 682 429 711.5 c 128,-1,34
 500 741 500 741 576 741 c 0,35,36
 649 741 649 741 708.5 713.5 c 128,-1,37
 768 686 768 686 806 636.5 c 128,-1,38
 844 587 844 587 856.5 518 c 128,-1,39
 869 449 869 449 850 365 c 0,20,21
EndSplineSet
EndChar

StartChar: P
Encoding: 80 80 65
Width: 572
GlyphClass: 2
Flags: W
LayerCount: 2
Fore
SplineSet
554 514 m 0,0,1
 562 548 562 548 559.5 579.5 c 128,-1,2
 557 611 557 611 542.5 635 c 128,-1,3
 528 659 528 659 501.5 674 c 128,-1,4
 475 689 475 689 437 691 c 0,5,6
 427 691 427 691 414.5 689.5 c 128,-1,7
 402 688 402 688 392 680 c 0,8,9
 382 671 382 671 374 651.5 c 128,-1,10
 366 632 366 632 361 614 c 2,11,-1
 357 594 l 2,12,13
 345 543 345 543 334.5 493 c 128,-1,14
 324 443 324 443 313 392 c 1,15,-1
 312 392 l 1,16,-1
 295 318 l 2,17,18
 292 307 292 307 287 288.5 c 128,-1,19
 282 270 282 270 277 249.5 c 128,-1,20
 272 229 272 229 267 208 c 256,21,22
 262 187 262 187 258 171 c 2,23,-1
 244 110 l 2,24,25
 241 98 241 98 239.5 86 c 128,-1,26
 238 74 238 74 239 63.5 c 128,-1,27
 240 53 240 53 244.5 45 c 128,-1,28
 249 37 249 37 259 34 c 0,29,30
 264 32 264 32 274 30 c 128,-1,31
 284 28 284 28 294 26 c 128,-1,32
 304 24 304 24 312.5 22.5 c 128,-1,33
 321 21 321 21 325 20 c 0,34,35
 332 16 332 16 328 11 c 128,-1,36
 324 6 324 6 321 -1 c 0,37,38
 315 -5 315 -5 308.5 -6 c 128,-1,39
 302 -7 302 -7 295 -7 c 0,40,41
 265 -7 265 -7 235.5 -3.5 c 128,-1,42
 206 0 206 0 175 0 c 0,43,44
 142 0 142 0 110.5 -3.5 c 128,-1,45
 79 -7 79 -7 46 -7 c 0,46,47
 37 -7 37 -7 35.5 -0.5 c 128,-1,48
 34 6 34 6 36 14 c 0,49,50
 37 18 37 18 49.5 21.5 c 128,-1,51
 62 25 62 25 78.5 29.5 c 128,-1,52
 95 34 95 34 110.5 40.5 c 128,-1,53
 126 47 126 47 134 58 c 0,54,55
 145 75 145 75 151 95.5 c 128,-1,56
 157 116 157 116 162 135 c 0,57,58
 176 195 176 195 190.5 255 c 128,-1,59
 205 315 205 315 219 375 c 0,60,61
 234 441 234 441 248.5 506.5 c 128,-1,62
 263 572 263 572 279 638 c 0,63,64
 284 660 284 660 278.5 670 c 128,-1,65
 273 680 273 680 263.5 683.5 c 128,-1,66
 254 687 254 687 240.5 686 c 128,-1,67
 227 685 227 685 216.5 685.5 c 128,-1,68
 206 686 206 686 199.5 690 c 128,-1,69
 193 694 193 694 196 707 c 0,70,71
 198 715 198 715 204 718 c 128,-1,72
 210 721 210 721 217 722 c 0,73,74
 263 727 263 727 307.5 728 c 128,-1,75
 352 729 352 729 396 729 c 2,76,-1
 449 729 l 2,77,78
 499 729 499 729 542 716.5 c 128,-1,79
 585 704 585 704 613.5 678 c 128,-1,80
 642 652 642 652 653 611.5 c 128,-1,81
 664 571 664 571 651 516 c 0,82,83
 640 469 640 469 613.5 430.5 c 128,-1,84
 587 392 587 392 551 364 c 128,-1,85
 515 336 515 336 471 320.5 c 128,-1,86
 427 305 427 305 382 305 c 0,87,88
 366 305 366 305 363.5 307.5 c 128,-1,89
 361 310 361 310 356 315 c 0,90,91
 355 317 355 317 353.5 322.5 c 128,-1,92
 352 328 352 328 353 334 c 128,-1,93
 354 340 354 340 356.5 344.5 c 128,-1,94
 359 349 359 349 364 349 c 0,95,96
 367 348 367 348 368 348 c 0,97,98
 402 349 402 349 431.5 361.5 c 128,-1,99
 461 374 461 374 485.5 395.5 c 128,-1,100
 510 417 510 417 528 447.5 c 128,-1,101
 546 478 546 478 554 514 c 0,0,1
EndSplineSet
EndChar

StartChar: Q
Encoding: 81 81 66
Width: 820
GlyphClass: 2
Flags: W
LayerCount: 2
Fore
SplineSet
745 410 m 0,0,1
 749 474 749 474 737.5 532 c 128,-1,2
 726 590 726 590 697 631.5 c 128,-1,3
 668 673 668 673 620 692.5 c 128,-1,4
 572 712 572 712 504 699 c 0,5,6
 439 686 439 686 390.5 646 c 128,-1,7
 342 606 342 606 309.5 552 c 128,-1,8
 277 498 277 498 259.5 436 c 128,-1,9
 242 374 242 374 239 317 c 0,10,11
 235 258 235 258 244 198.5 c 128,-1,12
 253 139 253 139 280 93.5 c 128,-1,13
 307 48 307 48 354.5 25.5 c 128,-1,14
 402 3 402 3 476 18 c 0,15,16
 532 30 532 30 580 71 c 128,-1,17
 628 112 628 112 663.5 168.5 c 128,-1,18
 699 225 699 225 720 289 c 128,-1,19
 741 353 741 353 745 410 c 0,0,1
850 365 m 0,20,21
 838 312 838 312 812.5 262.5 c 128,-1,22
 787 213 787 213 751.5 170 c 128,-1,23
 716 127 716 127 673 91 c 128,-1,24
 630 55 630 55 582 29 c 1,25,26
 597 -7 597 -7 613.5 -29.5 c 128,-1,27
 630 -52 630 -52 648 -67 c 128,-1,28
 666 -82 666 -82 686 -91.5 c 128,-1,29
 706 -101 706 -101 727 -111 c 0,30,31
 730 -113 730 -113 731 -119 c 128,-1,32
 732 -125 732 -125 730 -131 c 0,33,34
 728 -138 728 -138 724.5 -144 c 128,-1,35
 721 -150 721 -150 717 -150 c 0,36,37
 684 -153 684 -153 649.5 -146 c 128,-1,38
 615 -139 615 -139 582 -122 c 128,-1,39
 549 -105 549 -105 519.5 -78.5 c 128,-1,40
 490 -52 490 -52 467 -16 c 1,41,42
 455 -19 455 -19 446.5 -21.5 c 128,-1,43
 438 -24 438 -24 429.5 -25.5 c 128,-1,44
 421 -27 421 -27 412.5 -27.5 c 128,-1,45
 404 -28 404 -28 393 -28 c 0,46,47
 318 -28 318 -28 261 0.5 c 128,-1,48
 204 29 204 29 170 80 c 128,-1,49
 136 131 136 131 126.5 200.5 c 128,-1,50
 117 270 117 270 136 353 c 256,51,52
 155 436 155 436 197.5 507 c 128,-1,53
 240 578 240 578 299 630 c 128,-1,54
 358 682 358 682 429 711.5 c 128,-1,55
 500 741 500 741 576 741 c 0,56,57
 649 741 649 741 708.5 713.5 c 128,-1,58
 768 686 768 686 806 636.5 c 128,-1,59
 844 587 844 587 856.5 518 c 128,-1,60
 869 449 869 449 850 365 c 0,20,21
EndSplineSet
EndChar

StartChar: R
Encoding: 82 82 67
Width: 667
GlyphClass: 2
Flags: W
LayerCount: 2
Fore
SplineSet
561 531 m 0,0,1
 570 571 570 571 565 601 c 128,-1,2
 560 631 560 631 543.5 651.5 c 128,-1,3
 527 672 527 672 501 682.5 c 128,-1,4
 475 693 475 693 440 693 c 0,5,6
 407 693 407 693 394 680.5 c 128,-1,7
 381 668 381 668 376 644 c 2,8,-1
 368 610 l 2,9,10
 359 570 359 570 346.5 520 c 128,-1,11
 334 470 334 470 325 430 c 0,12,13
 322 415 322 415 318.5 404.5 c 128,-1,14
 315 394 315 394 316 387 c 128,-1,15
 317 380 317 380 324 377 c 128,-1,16
 331 374 331 374 348 374 c 0,17,18
 385 374 385 374 419 380.5 c 128,-1,19
 453 387 453 387 481 404.5 c 128,-1,20
 509 422 509 422 529.5 452.5 c 128,-1,21
 550 483 550 483 561 531 c 0,0,1
476 351 m 1,22,23
 493 343 493 343 503.5 315.5 c 128,-1,24
 514 288 514 288 522.5 250 c 128,-1,25
 531 212 531 212 540.5 169.5 c 128,-1,26
 550 127 550 127 565.5 89 c 128,-1,27
 581 51 581 51 604.5 22.5 c 128,-1,28
 628 -6 628 -6 665 -15 c 0,29,30
 674 -20 674 -20 684 -22.5 c 128,-1,31
 694 -25 694 -25 692 -34 c 0,32,33
 691 -40 691 -40 680 -49 c 0,34,35
 669 -53 669 -53 646 -53 c 0,36,37
 637 -53 637 -53 627.5 -52 c 128,-1,38
 618 -51 618 -51 612 -50 c 0,39,40
 536 -35 536 -35 495 19 c 128,-1,41
 454 73 454 73 444 151 c 0,42,43
 436 183 436 183 430.5 217 c 128,-1,44
 425 251 425 251 414 278.5 c 128,-1,45
 403 306 403 306 384.5 324 c 128,-1,46
 366 342 366 342 332 342 c 0,47,48
 313 342 313 342 307 334 c 128,-1,49
 301 326 301 326 296 302 c 2,50,-1
 248 96 l 2,51,52
 242 70 242 70 245 57 c 128,-1,53
 248 44 248 44 257.5 38 c 128,-1,54
 267 32 267 32 281.5 30 c 128,-1,55
 296 28 296 28 314 24 c 0,56,57
 316 23 316 23 321 23 c 0,58,59
 328 23 328 23 334 21 c 128,-1,60
 340 19 340 19 338 11 c 0,61,62
 335 -3 335 -3 325 -6 c 128,-1,63
 315 -9 315 -9 297 -9 c 0,64,65
 264 -9 264 -9 231 -5.5 c 128,-1,66
 198 -2 198 -2 165 -2 c 0,67,68
 136 -2 136 -2 107 -5 c 128,-1,69
 78 -8 78 -8 50 -8 c 0,70,71
 38 -8 38 -8 34.5 -5.5 c 128,-1,72
 31 -3 31 -3 34 11 c 0,73,74
 36 18 36 18 44 20.5 c 128,-1,75
 52 23 52 23 64 25 c 128,-1,76
 76 27 76 27 89.5 29.5 c 128,-1,77
 103 32 103 32 116.5 39 c 128,-1,78
 130 46 130 46 140 58 c 128,-1,79
 150 70 150 70 155 91 c 2,80,-1
 203 297 l 2,81,82
 223 382 223 382 243.5 466 c 128,-1,83
 264 550 264 550 284 635 c 0,84,85
 289 655 289 655 283.5 666 c 128,-1,86
 278 677 278 677 267.5 681.5 c 128,-1,87
 257 686 257 686 244.5 687 c 128,-1,88
 232 688 232 688 220.5 689 c 128,-1,89
 209 690 209 690 202 693 c 128,-1,90
 195 696 195 696 197 705 c 0,91,92
 200 719 200 719 210.5 721.5 c 128,-1,93
 221 724 221 724 232 724 c 0,94,95
 242 724 242 724 252.5 723 c 128,-1,96
 263 722 263 722 273 722 c 2,97,-1
 354 722 l 2,98,99
 389 722 389 722 425 723.5 c 128,-1,100
 461 725 461 725 497 725 c 0,101,102
 528 725 528 725 561 716.5 c 128,-1,103
 594 708 594 708 619.5 685.5 c 128,-1,104
 645 663 645 663 657 625 c 128,-1,105
 669 587 669 587 655 528 c 0,106,107
 648 496 648 496 629 468.5 c 128,-1,108
 610 441 610 441 585 419 c 128,-1,109
 560 397 560 397 531.5 380 c 128,-1,110
 503 363 503 363 476 351 c 1,22,23
EndSplineSet
EndChar

StartChar: S
Encoding: 83 83 68
Width: 482
GlyphClass: 2
Flags: W
LayerCount: 2
Fore
SplineSet
47 -36 m 0,0,1
 40 -36 40 -36 41 -23.5 c 128,-1,2
 42 -11 42 -11 46 6 c 256,3,4
 50 23 50 23 55.5 41 c 128,-1,5
 61 59 61 59 64 70 c 0,6,7
 70 96 70 96 75 117 c 128,-1,8
 80 138 80 138 88 164 c 0,9,10
 91 173 91 173 95 176 c 128,-1,11
 99 179 99 179 103 179 c 256,12,13
 107 179 107 179 109.5 178 c 128,-1,14
 112 177 112 177 115 177 c 0,15,16
 122 177 122 177 123.5 168.5 c 128,-1,17
 125 160 125 160 125 147.5 c 128,-1,18
 125 135 125 135 125 121 c 128,-1,19
 125 107 125 107 127 97 c 0,20,21
 135 58 135 58 165.5 36.5 c 128,-1,22
 196 15 196 15 234 15 c 0,23,24
 262 15 262 15 288 24.5 c 128,-1,25
 314 34 314 34 335.5 52 c 128,-1,26
 357 70 357 70 373 95 c 128,-1,27
 389 120 389 120 396 152 c 0,28,29
 407 199 407 199 390.5 231 c 128,-1,30
 374 263 374 263 344.5 288 c 128,-1,31
 315 313 315 313 278.5 335 c 128,-1,32
 242 357 242 357 213 384.5 c 128,-1,33
 184 412 184 412 169 448.5 c 128,-1,34
 154 485 154 485 166 539 c 0,35,36
 177 587 177 587 202 624.5 c 128,-1,37
 227 662 227 662 261 687.5 c 128,-1,38
 295 713 295 713 335.5 726.5 c 128,-1,39
 376 740 376 740 418 740 c 0,40,41
 438 740 438 740 459.5 729 c 128,-1,42
 481 718 481 718 495 707 c 0,43,44
 504 701 504 701 510.5 706.5 c 128,-1,45
 517 712 517 712 524 722 c 128,-1,46
 531 732 531 732 540 741 c 128,-1,47
 549 750 549 750 563 750 c 0,48,49
 570 750 570 750 569 740 c 128,-1,50
 568 730 568 730 565 716 c 256,51,52
 562 702 562 702 557 687 c 128,-1,53
 552 672 552 672 550 661 c 0,54,55
 539 609 539 609 523 557 c 0,56,57
 519 548 519 548 515.5 545 c 128,-1,58
 512 542 512 542 508 542 c 256,59,60
 504 542 504 542 501 543 c 128,-1,61
 498 544 498 544 495 544 c 0,62,63
 489 544 489 544 487.5 553 c 128,-1,64
 486 562 486 562 486 574.5 c 128,-1,65
 486 587 486 587 486.5 600.5 c 128,-1,66
 487 614 487 614 484 624 c 0,67,68
 478 662 478 662 453.5 683 c 128,-1,69
 429 704 429 704 400 704 c 0,70,71
 376 704 376 704 352 696 c 128,-1,72
 328 688 328 688 308.5 673 c 128,-1,73
 289 658 289 658 274.5 636 c 128,-1,74
 260 614 260 614 254 587 c 0,75,76
 244 545 244 545 262.5 513.5 c 128,-1,77
 281 482 281 482 312.5 457.5 c 128,-1,78
 344 433 344 433 380.5 412 c 128,-1,79
 417 391 417 391 443 369 c 0,80,81
 476 341 476 341 487.5 296 c 128,-1,82
 499 251 499 251 488 200 c 0,83,84
 475 145 475 145 449.5 103.5 c 128,-1,85
 424 62 424 62 388 34 c 128,-1,86
 352 6 352 6 308 -8.5 c 128,-1,87
 264 -23 264 -23 216 -24 c 0,88,89
 198 -24 198 -24 184 -19 c 128,-1,90
 170 -14 170 -14 157.5 -8.5 c 128,-1,91
 145 -3 145 -3 134.5 2 c 128,-1,92
 124 7 124 7 114 7 c 0,93,94
 103 7 103 7 96.5 0.5 c 128,-1,95
 90 -6 90 -6 83.5 -14.5 c 128,-1,96
 77 -23 77 -23 69 -29.5 c 128,-1,97
 61 -36 61 -36 47 -36 c 0,0,1
EndSplineSet
EndChar

StartChar: T
Encoding: 84 84 69
Width: 656
GlyphClass: 2
Flags: W
LayerCount: 2
Fore
SplineSet
809 723 m 0,0,1
 798 704 798 704 788.5 672.5 c 128,-1,2
 779 641 779 641 769 611 c 128,-1,3
 759 581 759 581 748 559 c 128,-1,4
 737 537 737 537 723 537 c 0,5,6
 712 537 712 537 712 546.5 c 128,-1,7
 712 556 712 556 717 570.5 c 128,-1,8
 722 585 722 585 726.5 602 c 128,-1,9
 731 619 731 619 729 634 c 0,10,11
 727 646 727 646 715.5 653.5 c 128,-1,12
 704 661 704 661 686 664.5 c 128,-1,13
 668 668 668 668 647.5 669.5 c 128,-1,14
 627 671 627 671 609 671 c 0,15,16
 595 671 595 671 583.5 670.5 c 128,-1,17
 572 670 572 670 565 670 c 128,-1,18
 558 670 558 670 552.5 670.5 c 128,-1,19
 547 671 547 671 542 666.5 c 128,-1,20
 537 662 537 662 532 650.5 c 128,-1,21
 527 639 527 639 521 616 c 2,22,-1
 491 494 l 2,23,24
 469 406 469 406 451 318 c 128,-1,25
 433 230 433 230 411 142 c 0,26,27
 407 126 407 126 404 110 c 128,-1,28
 401 94 401 94 400 78 c 0,29,30
 398 50 398 50 414.5 40.5 c 128,-1,31
 431 31 431 31 451 28.5 c 128,-1,32
 471 26 471 26 486.5 24 c 128,-1,33
 502 22 502 22 500 10 c 0,34,35
 496 -6 496 -6 489 -7 c 128,-1,36
 482 -8 482 -8 470 -8 c 0,37,38
 433 -8 433 -8 397 -5.5 c 128,-1,39
 361 -3 361 -3 324 -3 c 0,40,41
 291 -3 291 -3 257 -5.5 c 128,-1,42
 223 -8 223 -8 189 -8 c 0,43,44
 182 -8 182 -8 174.5 -7 c 128,-1,45
 167 -6 167 -6 169 5 c 0,46,47
 172 17 172 17 181 20.5 c 128,-1,48
 190 24 190 24 200 24 c 0,49,50
 208 24 208 24 212 25 c 0,51,52
 240 28 240 28 257.5 35 c 128,-1,53
 275 42 275 42 286.5 54.5 c 128,-1,54
 298 67 298 67 305 86 c 128,-1,55
 312 105 312 105 319 133 c 2,56,-1
 431 617 l 2,57,58
 432 622 432 622 434.5 635.5 c 128,-1,59
 437 649 437 649 437 654 c 0,60,61
 437 663 437 663 418.5 666.5 c 128,-1,62
 400 670 400 670 378 670 c 2,63,-1
 320 670 l 2,64,65
 299 670 299 670 277.5 663.5 c 128,-1,66
 256 657 256 657 233 638 c 0,67,68
 227 633 227 633 216 617 c 128,-1,69
 205 601 205 601 192.5 583.5 c 128,-1,70
 180 566 180 566 168.5 552 c 128,-1,71
 157 538 157 538 154 538 c 0,72,73
 145 538 145 538 141 542 c 128,-1,74
 137 546 137 546 140 557 c 0,75,76
 144 574 144 574 157.5 602.5 c 128,-1,77
 171 631 171 631 188 683 c 0,78,79
 191 694 191 694 195 706.5 c 128,-1,80
 199 719 199 719 204.5 729 c 128,-1,81
 210 739 210 739 218 745.5 c 128,-1,82
 226 752 226 752 238 752 c 0,83,84
 243 752 243 752 245 747 c 128,-1,85
 247 742 247 742 250.5 735.5 c 128,-1,86
 254 729 254 729 260.5 723 c 128,-1,87
 267 717 267 717 280 716 c 0,88,89
 335 713 335 713 393.5 711.5 c 128,-1,90
 452 710 452 710 508 710 c 0,91,92
 553 710 553 710 594.5 711 c 128,-1,93
 636 712 636 712 680 712 c 0,94,95
 694 712 694 712 708.5 712.5 c 128,-1,96
 723 713 723 713 738 715 c 0,97,98
 750 717 750 717 758.5 724 c 128,-1,99
 767 731 767 731 774.5 739 c 128,-1,100
 782 747 782 747 787.5 753.5 c 128,-1,101
 793 760 793 760 797 760 c 0,102,103
 813 760 813 760 814 747 c 128,-1,104
 815 734 815 734 809 723 c 0,0,1
EndSplineSet
EndChar

StartChar: U
Encoding: 85 85 70
Width: 754
GlyphClass: 2
Flags: W
LayerCount: 2
Fore
SplineSet
902 707 m 0,0,1
 899 696 899 696 887 690 c 128,-1,2
 875 684 875 684 859 680.5 c 128,-1,3
 843 677 843 677 829 675 c 128,-1,4
 815 673 815 673 810 670 c 0,5,6
 803 666 803 666 793.5 638.5 c 128,-1,7
 784 611 784 611 775 574 c 128,-1,8
 766 537 766 537 757.5 497 c 128,-1,9
 749 457 749 457 742 427 c 0,10,11
 736 400 736 400 730 373 c 128,-1,12
 724 346 724 346 718 319 c 0,13,14
 708 275 708 275 694.5 227 c 128,-1,15
 681 179 681 179 659 135.5 c 128,-1,16
 637 92 637 92 604.5 57 c 128,-1,17
 572 22 572 22 523 3 c 0,18,19
 480 -13 480 -13 437 -19.5 c 128,-1,20
 394 -26 394 -26 354 -26 c 0,21,22
 307 -26 307 -26 266 -16.5 c 128,-1,23
 225 -7 225 -7 197 16 c 128,-1,24
 169 39 169 39 156 77 c 128,-1,25
 143 115 143 115 151 173 c 0,26,27
 152 182 152 182 154 191 c 128,-1,28
 156 200 156 200 158 209 c 2,29,-1
 166 246 l 2,30,31
 186 331 186 331 207 414 c 128,-1,32
 228 497 228 497 248 582 c 0,33,34
 251 596 251 596 254.5 614 c 128,-1,35
 258 632 258 632 257.5 647.5 c 128,-1,36
 257 663 257 663 249.5 674 c 128,-1,37
 242 685 242 685 224 685 c 2,38,-1
 214 685 l 2,39,40
 209 685 209 685 202 685.5 c 128,-1,41
 195 686 195 686 188.5 687.5 c 128,-1,42
 182 689 182 689 178 693 c 128,-1,43
 174 697 174 697 175 704 c 0,44,45
 179 723 179 723 198 723 c 0,46,47
 228 723 228 723 256.5 720 c 128,-1,48
 285 717 285 717 315 717 c 0,49,50
 348 717 348 717 379.5 720 c 128,-1,51
 411 723 411 723 444 723 c 0,52,53
 451 723 451 723 462 721 c 128,-1,54
 473 719 473 719 470 708 c 0,55,56
 467 694 467 694 453.5 690 c 128,-1,57
 440 686 440 686 423.5 683 c 128,-1,58
 407 680 407 680 390.5 675 c 128,-1,59
 374 670 374 670 364 654 c 0,60,61
 360 647 360 647 355 634 c 128,-1,62
 350 621 350 621 344.5 605 c 128,-1,63
 339 589 339 589 335 572 c 128,-1,64
 331 555 331 555 327 540 c 2,65,-1
 285 356 l 2,66,67
 278 325 278 325 271 294 c 128,-1,68
 264 263 264 263 259 232 c 0,69,70
 248 170 248 170 253.5 130 c 128,-1,71
 259 90 259 90 277 67 c 128,-1,72
 295 44 295 44 325.5 35 c 128,-1,73
 356 26 356 26 396 26 c 0,74,75
 443 26 443 26 479.5 35.5 c 128,-1,76
 516 45 516 45 545 67 c 128,-1,77
 574 89 574 89 596.5 123.5 c 128,-1,78
 619 158 619 158 639 209 c 0,79,80
 651 237 651 237 658 267 c 2,81,-1
 708 481 l 2,82,83
 713 504 713 504 720.5 533 c 128,-1,84
 728 562 728 562 735 589 c 0,85,86
 741 616 741 616 743 637.5 c 128,-1,87
 745 659 745 659 739 667 c 0,88,89
 732 675 732 675 719.5 677 c 128,-1,90
 707 679 707 679 695 681.5 c 128,-1,91
 683 684 683 684 675.5 689.5 c 128,-1,92
 668 695 668 695 671 709 c 0,93,94
 673 719 673 719 680 721 c 128,-1,95
 687 723 687 723 695 723 c 0,96,97
 719 723 719 723 743 721 c 128,-1,98
 767 719 767 719 792 719 c 128,-1,99
 817 719 817 719 842.5 720.5 c 128,-1,100
 868 722 868 722 893 722 c 1,101,102
 904 717 904 717 902 707 c 0,0,1
EndSplineSet
EndChar

StartChar: V
Encoding: 86 86 71
Width: 713
GlyphClass: 2
Flags: W
LayerCount: 2
Fore
SplineSet
868 706 m 0,0,1
 865 693 865 693 856 689 c 128,-1,2
 847 685 847 685 835.5 683 c 128,-1,3
 824 681 824 681 811 676.5 c 128,-1,4
 798 672 798 672 786 659 c 0,5,6
 782 654 782 654 774 641 c 128,-1,7
 766 628 766 628 756.5 613 c 128,-1,8
 747 598 747 598 738.5 583.5 c 128,-1,9
 730 569 730 569 726 562 c 0,10,11
 694 508 694 508 661 455.5 c 128,-1,12
 628 403 628 403 595 349 c 0,13,14
 540 258 540 258 486.5 168 c 128,-1,15
 433 78 433 78 377 -13 c 0,16,17
 374 -19 374 -19 371 -22.5 c 128,-1,18
 368 -26 368 -26 360 -26 c 0,19,20
 353 -26 353 -26 351 -20.5 c 128,-1,21
 349 -15 349 -15 348 -10 c 0,22,23
 340 47 340 47 331 106 c 128,-1,24
 322 165 322 165 314 222 c 0,25,26
 300 330 300 330 286.5 437.5 c 128,-1,27
 273 545 273 545 251 651 c 0,28,29
 247 670 247 670 233 676 c 128,-1,30
 219 682 219 682 204.5 685 c 128,-1,31
 190 688 190 688 180 691.5 c 128,-1,32
 170 695 170 695 173 708 c 0,33,34
 175 717 175 717 185.5 720.5 c 128,-1,35
 196 724 196 724 205 724 c 2,36,-1
 215 724 l 2,37,38
 237 724 237 724 259 721 c 128,-1,39
 281 718 281 718 303 718 c 0,40,41
 336 718 336 718 368.5 721 c 128,-1,42
 401 724 401 724 434 724 c 0,43,44
 442 724 442 724 447 718 c 128,-1,45
 452 712 452 712 450 703 c 0,46,47
 447 692 447 692 434 690 c 128,-1,48
 421 688 421 688 404.5 687 c 128,-1,49
 388 686 388 686 374 681.5 c 128,-1,50
 360 677 360 677 356 661 c 0,51,52
 355 658 355 658 355.5 654.5 c 128,-1,53
 356 651 356 651 356 648 c 0,54,55
 357 633 357 633 361.5 592.5 c 128,-1,56
 366 552 366 552 372.5 500 c 128,-1,57
 379 448 379 448 387 390.5 c 128,-1,58
 395 333 395 333 402 284 c 128,-1,59
 409 235 409 235 415.5 201 c 128,-1,60
 422 167 422 167 426 162 c 0,61,62
 428 159 428 159 432.5 162.5 c 128,-1,63
 437 166 437 166 441.5 171.5 c 128,-1,64
 446 177 446 177 449.5 182.5 c 128,-1,65
 453 188 453 188 455 190 c 0,66,67
 464 204 464 204 486 241.5 c 128,-1,68
 508 279 508 279 536 327 c 128,-1,69
 564 375 564 375 594.5 428.5 c 128,-1,70
 625 482 625 482 651 528 c 128,-1,71
 677 574 677 574 694.5 606.5 c 128,-1,72
 712 639 712 639 713 646 c 0,73,74
 718 667 718 667 704.5 673 c 128,-1,75
 691 679 691 679 673.5 681 c 128,-1,76
 656 683 656 683 642 686.5 c 128,-1,77
 628 690 628 690 631 705 c 0,78,79
 633 713 633 713 640 718.5 c 128,-1,80
 647 724 647 724 654 724 c 0,81,82
 684 724 684 724 714 720.5 c 128,-1,83
 744 717 744 717 774 717 c 0,84,85
 795 717 795 717 816 719.5 c 128,-1,86
 837 722 837 722 858 722 c 0,87,88
 865 722 865 722 867 717 c 128,-1,89
 869 712 869 712 868 706 c 0,0,1
EndSplineSet
EndChar

StartChar: W
Encoding: 87 87 72
Width: 1018
GlyphClass: 2
Flags: W
LayerCount: 2
Fore
SplineSet
600 372 m 1,0,1
 592 444 592 444 581 513 c 128,-1,2
 570 582 570 582 556 651 c 0,3,4
 552 670 552 670 538 676 c 128,-1,5
 524 682 524 682 509.5 685 c 128,-1,6
 495 688 495 688 485 691.5 c 128,-1,7
 475 695 475 695 478 708 c 0,8,9
 480 717 480 717 490.5 720.5 c 128,-1,10
 501 724 501 724 510 724 c 2,11,-1
 520 724 l 2,12,13
 542 724 542 724 564 721 c 128,-1,14
 586 718 586 718 608 718 c 0,15,16
 641 718 641 718 673.5 721 c 128,-1,17
 706 724 706 724 739 724 c 0,18,19
 747 724 747 724 752.5 718 c 128,-1,20
 758 712 758 712 755 703 c 0,21,22
 752 692 752 692 739 690 c 128,-1,23
 726 688 726 688 709.5 687 c 128,-1,24
 693 686 693 686 679 681.5 c 128,-1,25
 665 677 665 677 661 661 c 0,26,27
 660 658 660 658 660.5 654.5 c 128,-1,28
 661 651 661 651 661 648 c 0,29,30
 662 633 662 633 666.5 592.5 c 128,-1,31
 671 552 671 552 677.5 500 c 128,-1,32
 684 448 684 448 692 390.5 c 128,-1,33
 700 333 700 333 707 284 c 128,-1,34
 714 235 714 235 720.5 201 c 128,-1,35
 727 167 727 167 731 162 c 0,36,37
 733 159 733 159 737.5 162.5 c 128,-1,38
 742 166 742 166 746.5 171.5 c 128,-1,39
 751 177 751 177 754.5 182.5 c 128,-1,40
 758 188 758 188 760 190 c 0,41,42
 769 204 769 204 791 241.5 c 128,-1,43
 813 279 813 279 841 327 c 128,-1,44
 869 375 869 375 899.5 428.5 c 128,-1,45
 930 482 930 482 956 528 c 128,-1,46
 982 574 982 574 999.5 606.5 c 128,-1,47
 1017 639 1017 639 1018 646 c 0,48,49
 1023 667 1023 667 1009.5 673 c 128,-1,50
 996 679 996 679 978.5 681 c 128,-1,51
 961 683 961 683 947 686.5 c 128,-1,52
 933 690 933 690 936 705 c 0,53,54
 938 713 938 713 945 718.5 c 128,-1,55
 952 724 952 724 959 724 c 0,56,57
 989 724 989 724 1019 720.5 c 128,-1,58
 1049 717 1049 717 1079 717 c 0,59,60
 1100 717 1100 717 1121 719.5 c 128,-1,61
 1142 722 1142 722 1163 722 c 0,62,63
 1170 722 1170 722 1172 717 c 128,-1,64
 1174 712 1174 712 1173 706 c 0,65,66
 1170 693 1170 693 1161 689 c 128,-1,67
 1152 685 1152 685 1140.5 683 c 128,-1,68
 1129 681 1129 681 1116 676.5 c 128,-1,69
 1103 672 1103 672 1091 659 c 0,70,71
 1087 654 1087 654 1079 641 c 128,-1,72
 1071 628 1071 628 1061.5 613 c 128,-1,73
 1052 598 1052 598 1043.5 583.5 c 128,-1,74
 1035 569 1035 569 1031 562 c 0,75,76
 999 508 999 508 966 455.5 c 128,-1,77
 933 403 933 403 900 349 c 0,78,79
 845 258 845 258 791.5 168 c 128,-1,80
 738 78 738 78 682 -13 c 0,81,82
 679 -19 679 -19 676 -22.5 c 128,-1,83
 673 -26 673 -26 665 -26 c 0,84,85
 658 -26 658 -26 656 -20.5 c 128,-1,86
 654 -15 654 -15 653 -10 c 0,87,88
 645 47 645 47 636.5 106 c 128,-1,89
 628 165 628 165 619 222 c 2,90,-1
 608 306 l 1,91,-1
 583 272 l 2,92,93
 576 264 576 264 555 234.5 c 128,-1,94
 534 205 534 205 510.5 169.5 c 128,-1,95
 487 134 487 134 465 101 c 128,-1,96
 443 68 443 68 434 54 c 0,97,98
 427 43 427 43 418.5 29.5 c 128,-1,99
 410 16 410 16 400.5 4 c 128,-1,100
 391 -8 391 -8 382 -16.5 c 128,-1,101
 373 -25 373 -25 366 -25 c 0,102,103
 354 -25 354 -25 352 -15 c 128,-1,104
 350 -5 350 -5 349 5 c 0,105,106
 322 164 322 164 296 318 c 128,-1,107
 270 472 270 472 239 629 c 0,108,109
 233 660 233 660 220.5 669.5 c 128,-1,110
 208 679 208 679 196 681.5 c 128,-1,111
 184 684 184 684 176.5 688 c 128,-1,112
 169 692 169 692 173 712 c 0,113,114
 174 718 174 718 179.5 720 c 128,-1,115
 185 722 185 722 192 723 c 128,-1,116
 199 724 199 724 204 723.5 c 128,-1,117
 209 723 209 723 211 723 c 0,118,119
 231 723 231 723 251 720.5 c 128,-1,120
 271 718 271 718 291 718 c 0,121,122
 315 718 315 718 340.5 720.5 c 128,-1,123
 366 723 366 723 390 723 c 0,124,125
 397 723 397 723 402 719 c 128,-1,126
 407 715 407 715 405 706 c 0,127,128
 402 695 402 695 392.5 692.5 c 128,-1,129
 383 690 383 690 371.5 688.5 c 128,-1,130
 360 687 360 687 350.5 683.5 c 128,-1,131
 341 680 341 680 338 667 c 0,132,133
 336 660 336 660 340 627.5 c 128,-1,134
 344 595 344 595 351 549.5 c 128,-1,135
 358 504 358 504 367 451.5 c 128,-1,136
 376 399 376 399 385 351.5 c 128,-1,137
 394 304 394 304 401 267 c 128,-1,138
 408 230 408 230 411 215 c 0,139,140
 412 205 412 205 415.5 187 c 128,-1,141
 419 169 419 169 423 152.5 c 128,-1,142
 427 136 427 136 432 126 c 128,-1,143
 437 116 437 116 441 123 c 2,144,-1
 600 372 l 1,0,1
EndSplineSet
EndChar

StartChar: X
Encoding: 88 88 73
Width: 724
GlyphClass: 2
Flags: W
LayerCount: 2
Fore
SplineSet
709 13 m 0,0,1
 705 -6 705 -6 697 -7.5 c 128,-1,2
 689 -9 689 -9 675 -9 c 256,3,4
 661 -9 661 -9 651 -8 c 128,-1,5
 641 -7 641 -7 631.5 -6 c 128,-1,6
 622 -5 622 -5 612 -4 c 128,-1,7
 602 -3 602 -3 589 -3 c 0,8,9
 547 -3 547 -3 508 -5 c 128,-1,10
 469 -7 469 -7 427 -7 c 0,11,12
 417 -7 417 -7 415 2 c 128,-1,13
 413 11 413 11 420 21 c 1,14,15
 429 26 429 26 444 27 c 128,-1,16
 459 28 459 28 473.5 29.5 c 128,-1,17
 488 31 488 31 500.5 36 c 128,-1,18
 513 41 513 41 516 54 c 0,19,20
 517 60 517 60 515.5 65.5 c 128,-1,21
 514 71 514 71 513 76 c 0,22,23
 510 83 510 83 502.5 101.5 c 128,-1,24
 495 120 495 120 485.5 144.5 c 128,-1,25
 476 169 476 169 464.5 195.5 c 128,-1,26
 453 222 453 222 442 244.5 c 128,-1,27
 431 267 431 267 422.5 283 c 128,-1,28
 414 299 414 299 409 301 c 1,29,30
 397 295 397 295 389 285.5 c 128,-1,31
 381 276 381 276 373 267 c 0,32,33
 365 259 365 259 349.5 242 c 128,-1,34
 334 225 334 225 316 204.5 c 128,-1,35
 298 184 298 184 279 161.5 c 128,-1,36
 260 139 260 139 243.5 118.5 c 128,-1,37
 227 98 227 98 216 82 c 128,-1,38
 205 66 205 66 203 58 c 0,39,40
 199 42 199 42 212.5 37 c 128,-1,41
 226 32 226 32 243 29.5 c 128,-1,42
 260 27 260 27 273.5 23 c 128,-1,43
 287 19 287 19 283 4 c 0,44,45
 282 -2 282 -2 274 -4.5 c 128,-1,46
 266 -7 266 -7 258 -7 c 2,47,-1
 251 -7 l 2,48,49
 230 -7 230 -7 210.5 -4.5 c 128,-1,50
 191 -2 191 -2 169 -2 c 0,51,52
 150 -2 150 -2 135 -3 c 128,-1,53
 120 -4 120 -4 105.5 -4.5 c 128,-1,54
 91 -5 91 -5 75.5 -6 c 128,-1,55
 60 -7 60 -7 41 -7 c 0,56,57
 34 -7 34 -7 26 -4 c 128,-1,58
 18 -1 18 -1 21 10 c 0,59,60
 23 20 23 20 29.5 24 c 128,-1,61
 36 28 36 28 46 29.5 c 128,-1,62
 56 31 56 31 68.5 33 c 128,-1,63
 81 35 81 35 97 43 c 0,64,65
 118 54 118 54 139 73 c 128,-1,66
 160 92 160 92 181 114 c 128,-1,67
 202 136 202 136 222 159 c 128,-1,68
 242 182 242 182 262 201 c 0,69,70
 275 214 275 214 296.5 234 c 128,-1,71
 318 254 318 254 339 275 c 128,-1,72
 360 296 360 296 376.5 314.5 c 128,-1,73
 393 333 393 333 395 342 c 0,74,75
 390 364 390 364 379.5 383.5 c 128,-1,76
 369 403 369 403 360 423 c 0,77,78
 338 474 338 474 315.5 522.5 c 128,-1,79
 293 571 293 571 269 620 c 0,80,81
 262 632 262 632 257 644.5 c 128,-1,82
 252 657 252 657 244 668 c 0,83,84
 236 680 236 680 224 683.5 c 128,-1,85
 212 687 212 687 202.5 688 c 128,-1,86
 193 689 193 689 187 692 c 128,-1,87
 181 695 181 695 184 707 c 0,88,89
 187 718 187 718 198.5 721.5 c 128,-1,90
 210 725 210 725 217 725 c 0,91,92
 236 725 236 725 252 724 c 128,-1,93
 268 723 268 723 283 721.5 c 128,-1,94
 298 720 298 720 314 719 c 128,-1,95
 330 718 330 718 349 718 c 0,96,97
 373 718 373 718 398.5 721.5 c 128,-1,98
 424 725 424 725 448 725 c 2,99,-1
 457 725 l 2,100,101
 466 725 466 725 473.5 721.5 c 128,-1,102
 481 718 481 718 479 709 c 0,103,104
 476 694 476 694 460.5 690.5 c 128,-1,105
 445 687 445 687 427 686 c 128,-1,106
 409 685 409 685 394 682 c 128,-1,107
 379 679 379 679 376 666 c 0,108,109
 375 660 375 660 383 635.5 c 128,-1,110
 391 611 391 611 403 582 c 128,-1,111
 415 553 415 553 427.5 524.5 c 128,-1,112
 440 496 440 496 446 481 c 0,113,114
 448 478 448 478 452 469.5 c 128,-1,115
 456 461 456 461 459.5 451.5 c 128,-1,116
 463 442 463 442 467 435 c 128,-1,117
 471 428 471 428 475 428 c 0,118,119
 480 428 480 428 493.5 440.5 c 128,-1,120
 507 453 507 453 524.5 472 c 128,-1,121
 542 491 542 491 561.5 514 c 128,-1,122
 581 537 581 537 598.5 558.5 c 128,-1,123
 616 580 616 580 630 597 c 128,-1,124
 644 614 644 614 651 621 c 0,125,126
 657 627 657 627 666 640 c 128,-1,127
 675 653 675 653 676 660 c 0,128,129
 680 676 680 676 669 681.5 c 128,-1,130
 658 687 658 687 644 689.5 c 128,-1,131
 630 692 630 692 618 694.5 c 128,-1,132
 606 697 606 697 608 707 c 0,133,134
 611 720 611 720 623 722 c 128,-1,135
 635 724 635 724 644 724 c 0,136,137
 673 724 673 724 700 721 c 128,-1,138
 727 718 727 718 756 718 c 0,139,140
 778 718 778 718 798.5 720.5 c 128,-1,141
 819 723 819 723 843 723 c 0,142,143
 850 723 850 723 860.5 722 c 128,-1,144
 871 721 871 721 868 710 c 0,145,146
 867 704 867 704 862 700 c 128,-1,147
 857 696 857 696 852 694 c 0,148,149
 836 688 836 688 822 685.5 c 128,-1,150
 808 683 808 683 795 679 c 128,-1,151
 782 675 782 675 768.5 667.5 c 128,-1,152
 755 660 755 660 739 646 c 0,153,154
 677 589 677 589 619.5 527.5 c 128,-1,155
 562 466 562 466 506 405 c 0,156,157
 496 396 496 396 493 386 c 0,158,159
 494 371 494 371 499.5 358 c 128,-1,160
 505 345 505 345 511 332 c 0,161,162
 540 266 540 266 568.5 202 c 128,-1,163
 597 138 597 138 628 75 c 0,164,165
 632 66 632 66 637.5 58 c 128,-1,166
 643 50 643 50 651 44 c 0,167,168
 659 36 659 36 670 32.5 c 128,-1,169
 681 29 681 29 690 26.5 c 128,-1,170
 699 24 699 24 704.5 21.5 c 128,-1,171
 710 19 710 19 709 13 c 0,0,1
EndSplineSet
EndChar

StartChar: Y
Encoding: 89 89 74
Width: 727
GlyphClass: 2
Flags: W
LayerCount: 2
Fore
SplineSet
197 724 m 0,0,1
 223 724 223 724 247 720 c 128,-1,2
 271 716 271 716 297 716 c 0,3,4
 332 716 332 716 369 719.5 c 128,-1,5
 406 723 406 723 442 723 c 0,6,7
 447 723 447 723 452.5 718 c 128,-1,8
 458 713 458 713 457 708 c 0,9,10
 454 693 454 693 440 690.5 c 128,-1,11
 426 688 426 688 411 687.5 c 128,-1,12
 396 687 396 687 382 684.5 c 128,-1,13
 368 682 368 682 365 668 c 0,14,15
 362 657 362 657 367 640 c 128,-1,16
 372 623 372 623 379.5 604.5 c 128,-1,17
 387 586 387 586 395.5 568.5 c 128,-1,18
 404 551 404 551 410 539 c 0,19,20
 424 504 424 504 438.5 469.5 c 128,-1,21
 453 435 453 435 469 403 c 0,22,23
 471 399 471 399 472.5 395.5 c 128,-1,24
 474 392 474 392 479 390 c 0,25,26
 482 391 482 391 485.5 394 c 128,-1,27
 489 397 489 397 492 399 c 0,28,29
 499 405 499 405 518 425.5 c 128,-1,30
 537 446 537 446 562.5 473.5 c 128,-1,31
 588 501 588 501 615.5 532.5 c 128,-1,32
 643 564 643 564 666.5 591 c 128,-1,33
 690 618 690 618 705.5 637 c 128,-1,34
 721 656 721 656 722 660 c 0,35,36
 726 677 726 677 714 681.5 c 128,-1,37
 702 686 702 686 687 687 c 128,-1,38
 672 688 672 688 659.5 690.5 c 128,-1,39
 647 693 647 693 650 707 c 0,40,41
 653 719 653 719 658.5 720.5 c 128,-1,42
 664 722 664 722 673 722 c 0,43,44
 694 722 694 722 715 719 c 128,-1,45
 736 716 736 716 758 716 c 0,46,47
 782 716 782 716 806.5 719.5 c 128,-1,48
 831 723 831 723 855 723 c 0,49,50
 868 723 868 723 877.5 718 c 128,-1,51
 887 713 887 713 878 700 c 0,52,53
 872 692 872 692 862.5 689.5 c 128,-1,54
 853 687 853 687 841.5 685 c 128,-1,55
 830 683 830 683 816.5 678 c 128,-1,56
 803 673 803 673 790 660 c 0,57,58
 746 617 746 617 703.5 572 c 128,-1,59
 661 527 661 527 618 482 c 0,60,61
 599 462 599 462 575.5 439.5 c 128,-1,62
 552 417 552 417 530 393.5 c 128,-1,63
 508 370 508 370 492 346 c 128,-1,64
 476 322 476 322 471 300 c 2,65,-1
 425 101 l 2,66,67
 419 74 419 74 423 59.5 c 128,-1,68
 427 45 427 45 436.5 39 c 128,-1,69
 446 33 446 33 459.5 32 c 128,-1,70
 473 31 473 31 485.5 30.5 c 128,-1,71
 498 30 498 30 506.5 27.5 c 128,-1,72
 515 25 515 25 517 15 c 0,73,74
 515 6 515 6 509.5 -1 c 128,-1,75
 504 -8 504 -8 494 -8 c 0,76,77
 458 -8 458 -8 422 -4.5 c 128,-1,78
 386 -1 386 -1 349 -1 c 0,79,80
 316 -1 316 -1 282 -4.5 c 128,-1,81
 248 -8 248 -8 215 -8 c 0,82,83
 212 -8 212 -8 208.5 -7 c 128,-1,84
 205 -6 205 -6 206 -1 c 0,85,86
 205 14 205 14 216.5 19.5 c 128,-1,87
 228 25 228 25 245 27.5 c 128,-1,88
 262 30 262 30 279.5 33 c 128,-1,89
 297 36 297 36 310 48 c 0,90,91
 316 54 316 54 322 67.5 c 128,-1,92
 328 81 328 81 333.5 98.5 c 128,-1,93
 339 116 339 116 344 136 c 128,-1,94
 349 156 349 156 353 174 c 2,95,-1
 374 262 l 2,96,97
 381 293 381 293 385 314 c 128,-1,98
 389 335 389 335 381 352 c 0,99,100
 349 430 349 430 316.5 504.5 c 128,-1,101
 284 579 284 579 252 657 c 0,102,103
 245 673 245 673 231 680 c 128,-1,104
 217 687 217 687 203.5 690.5 c 128,-1,105
 190 694 190 694 180.5 697.5 c 128,-1,106
 171 701 171 701 173 712 c 0,107,108
 175 722 175 722 182.5 723 c 128,-1,109
 190 724 190 724 197 724 c 0,0,1
EndSplineSet
EndChar

StartChar: Z
Encoding: 90 90 75
Width: 702
GlyphClass: 2
Flags: W
LayerCount: 2
Fore
SplineSet
252 732 m 0,0,1
 262 732 262 732 266.5 731 c 128,-1,2
 271 730 271 730 274.5 728.5 c 128,-1,3
 278 727 278 727 282.5 725 c 128,-1,4
 287 723 287 723 297 722 c 1,5,6
 304 716 304 716 320.5 714 c 128,-1,7
 337 712 337 712 352 712 c 2,8,-1
 369 712 l 2,9,10
 411 712 411 712 462.5 713 c 128,-1,11
 514 714 514 714 567.5 714.5 c 128,-1,12
 621 715 621 715 673 716 c 128,-1,13
 725 717 725 717 767 717 c 0,14,15
 776 717 776 717 790.5 719.5 c 128,-1,16
 805 722 805 722 817 723 c 128,-1,17
 829 724 829 724 836 720 c 128,-1,18
 843 716 843 716 837 704 c 0,19,20
 837 703 837 703 816.5 682.5 c 128,-1,21
 796 662 796 662 762 629 c 128,-1,22
 728 596 728 596 684 553.5 c 128,-1,23
 640 511 640 511 594 466 c 128,-1,24
 548 421 548 421 502 376.5 c 128,-1,25
 456 332 456 332 418 294.5 c 128,-1,26
 380 257 380 257 353 230.5 c 128,-1,27
 326 204 326 204 317 195 c 0,28,29
 307 184 307 184 287 164.5 c 128,-1,30
 267 145 267 145 246 123.5 c 128,-1,31
 225 102 225 102 208 82.5 c 128,-1,32
 191 63 191 63 186 51 c 0,33,34
 184 43 184 43 189.5 39 c 128,-1,35
 195 35 195 35 203 34 c 128,-1,36
 211 33 211 33 220.5 33.5 c 128,-1,37
 230 34 230 34 237 34 c 0,38,39
 279 34 279 34 328 34.5 c 128,-1,40
 377 35 377 35 419 35 c 0,41,42
 452 35 452 35 490 36.5 c 128,-1,43
 528 38 528 38 563 48 c 0,44,45
 589 58 589 58 605.5 75.5 c 128,-1,46
 622 93 622 93 640 116 c 0,47,48
 648 127 648 127 655 140.5 c 128,-1,49
 662 154 662 154 669.5 164 c 128,-1,50
 677 174 677 174 684.5 176.5 c 128,-1,51
 692 179 692 179 701 169 c 1,52,53
 700 152 700 152 696 137 c 0,54,55
 692 120 692 120 684 102.5 c 128,-1,56
 676 85 676 85 669 68 c 0,57,58
 664 56 664 56 659.5 42.5 c 128,-1,59
 655 29 655 29 649 17.5 c 128,-1,60
 643 6 643 6 633.5 -1 c 128,-1,61
 624 -8 624 -8 610 -8 c 0,62,63
 575 -8 575 -8 540 -6 c 128,-1,64
 505 -4 505 -4 469 -4 c 2,65,-1
 388 -4 l 2,66,67
 303 -4 303 -4 211 -7.5 c 128,-1,68
 119 -11 119 -11 34 -11 c 0,69,70
 19 -11 19 -11 23 4 c 0,71,72
 23 6 23 6 43 26.5 c 128,-1,73
 63 47 63 47 95.5 80.5 c 128,-1,74
 128 114 128 114 170.5 156.5 c 128,-1,75
 213 199 213 199 257.5 244 c 128,-1,76
 302 289 302 289 346.5 333.5 c 128,-1,77
 391 378 391 378 427.5 414.5 c 128,-1,78
 464 451 464 451 490.5 477.5 c 128,-1,79
 517 504 517 504 525 513 c 0,80,81
 534 522 534 522 556.5 543 c 128,-1,82
 579 564 579 564 603 586.5 c 128,-1,83
 627 609 627 609 647 629 c 128,-1,84
 667 649 667 649 672 656 c 0,85,86
 674 658 674 658 678 663.5 c 128,-1,87
 682 669 682 669 684 672 c 0,88,89
 686 676 686 676 679 677.5 c 128,-1,90
 672 679 672 679 662 679 c 0,91,92
 653 679 653 679 643.5 678.5 c 128,-1,93
 634 678 634 678 631 678 c 2,94,-1
 566 678 l 2,95,96
 539 678 539 678 510 677.5 c 128,-1,97
 481 677 481 677 452.5 676.5 c 128,-1,98
 424 676 424 676 397.5 675.5 c 128,-1,99
 371 675 371 675 350 674 c 0,100,101
 320 672 320 672 294 664 c 128,-1,102
 268 656 268 656 241 631 c 0,103,104
 232 623 232 623 222.5 611 c 128,-1,105
 213 599 213 599 204.5 587 c 128,-1,106
 196 575 196 575 187.5 566.5 c 128,-1,107
 179 558 179 558 173 558 c 0,108,109
 168 558 168 558 160 560.5 c 128,-1,110
 152 563 152 563 156 571 c 0,111,112
 168 597 168 597 181.5 623 c 128,-1,113
 195 649 195 649 208 675 c 0,114,115
 221 697 221 697 230 714.5 c 128,-1,116
 239 732 239 732 252 732 c 0,0,1
EndSplineSet
EndChar

StartChar: bracketleft
Encoding: 91 91 76
Width: 308
GlyphClass: 2
Flags: W
LayerCount: 2
Fore
SplineSet
476 717 m 0,0,1
 472 700 472 700 455.5 690.5 c 128,-1,2
 439 681 439 681 420 676 c 128,-1,3
 401 671 401 671 382 669.5 c 128,-1,4
 363 668 363 668 354 668 c 0,5,6
 346 668 346 668 338 669 c 128,-1,7
 330 670 330 670 322 670 c 0,8,9
 309 670 309 670 299 663.5 c 128,-1,10
 289 657 289 657 286 643 c 0,11,12
 269 586 269 586 256 532 c 128,-1,13
 243 478 243 478 230 421 c 0,14,15
 199 288 199 288 168.5 159 c 128,-1,16
 138 30 138 30 110 -103 c 0,17,18
 108 -110 108 -110 106.5 -124 c 128,-1,19
 105 -138 105 -138 109 -143 c 0,20,21
 115 -151 115 -151 130 -150.5 c 128,-1,22
 145 -150 145 -150 155 -150 c 0,23,24
 164 -150 164 -150 183.5 -151.5 c 128,-1,25
 203 -153 203 -153 222 -158.5 c 128,-1,26
 241 -164 241 -164 253 -173.5 c 128,-1,27
 265 -183 265 -183 261 -198 c 0,28,29
 258 -205 258 -205 253 -207 c 128,-1,30
 248 -209 248 -209 243 -209 c 0,31,32
 232 -209 232 -209 222 -204 c 128,-1,33
 212 -199 212 -199 201 -197 c 0,34,35
 176 -192 176 -192 150.5 -191 c 128,-1,36
 125 -190 125 -190 98 -195 c 0,37,38
 81 -198 81 -198 65 -204.5 c 128,-1,39
 49 -211 49 -211 33 -211 c 0,40,41
 24 -211 24 -211 23 -205 c 128,-1,42
 22 -199 22 -199 24 -191 c 2,43,-1
 235 713 l 2,44,45
 236 717 236 717 237.5 721.5 c 128,-1,46
 239 726 239 726 244 728 c 0,47,48
 246 730 246 730 253 730 c 0,49,50
 273 730 273 730 291.5 724.5 c 128,-1,51
 310 719 310 719 329 716 c 0,52,53
 339 714 339 714 350 713 c 128,-1,54
 361 712 361 712 371 712 c 0,55,56
 405 712 405 712 440 721 c 0,57,58
 448 723 448 723 455.5 726 c 128,-1,59
 463 729 463 729 471 729 c 0,60,61
 475 729 475 729 476 725 c 128,-1,62
 477 721 477 721 476 717 c 0,0,1
EndSplineSet
EndChar

StartChar: backslash
Encoding: 92 92 77
Width: 305
GlyphClass: 2
Flags: W
LayerCount: 2
Fore
SplineSet
280 -21 m 1,0,1
 246 175 246 175 211 367 c 128,-1,2
 176 559 176 559 142 755 c 1,3,-1
 195 755 l 1,4,5
 229 559 229 559 263.5 367 c 128,-1,6
 298 175 298 175 333 -21 c 1,7,-1
 280 -21 l 1,0,1
EndSplineSet
EndChar

StartChar: bracketright
Encoding: 93 93 78
Width: 299
GlyphClass: 2
Flags: W
LayerCount: 2
Fore
SplineSet
166 717 m 0,0,1
 167 721 167 721 169.5 725 c 128,-1,2
 172 729 172 729 176 729 c 0,3,4
 183 729 183 729 189.5 726 c 128,-1,5
 196 723 196 723 203 721 c 0,6,7
 233 712 233 712 268 712 c 0,8,9
 278 712 278 712 289.5 713 c 128,-1,10
 301 714 301 714 311 716 c 0,11,12
 332 719 332 719 353 724.5 c 128,-1,13
 374 730 374 730 395 730 c 0,14,15
 402 730 402 730 402 728 c 0,16,17
 406 726 406 726 405.5 721.5 c 128,-1,18
 405 717 405 717 405 713 c 2,19,-1
 198 -191 l 2,20,21
 196 -199 196 -199 192 -205 c 128,-1,22
 188 -211 188 -211 179 -211 c 0,23,24
 163 -211 163 -211 150 -204.5 c 128,-1,25
 137 -198 137 -198 122 -195 c 0,26,27
 97 -190 97 -190 71 -191 c 128,-1,28
 45 -192 45 -192 18 -197 c 0,29,30
 6 -199 6 -199 -6 -204 c 128,-1,31
 -18 -209 -18 -209 -30 -209 c 0,32,33
 -35 -209 -35 -209 -39 -207 c 128,-1,34
 -43 -205 -43 -205 -42 -198 c 0,35,36
 -39 -183 -39 -183 -22.5 -173.5 c 128,-1,37
 -6 -164 -6 -164 15 -158.5 c 128,-1,38
 36 -153 36 -153 56 -151.5 c 128,-1,39
 76 -150 76 -150 85 -150 c 0,40,41
 95 -150 95 -150 110.5 -150.5 c 128,-1,42
 126 -151 126 -151 135 -143 c 0,43,44
 141 -138 141 -138 146 -124 c 128,-1,45
 151 -110 151 -110 153 -103 c 0,46,47
 186 30 186 30 215 159 c 128,-1,48
 244 288 244 288 275 421 c 0,49,50
 288 478 288 478 300 532 c 128,-1,51
 312 586 312 586 321 643 c 0,52,53
 324 657 324 657 317 663.5 c 128,-1,54
 310 670 310 670 297 670 c 0,55,56
 290 670 290 670 281.5 669 c 128,-1,57
 273 668 273 668 265 668 c 0,58,59
 256 668 256 668 237.5 669.5 c 128,-1,60
 219 671 219 671 202 676 c 128,-1,61
 185 681 185 681 173.5 690.5 c 128,-1,62
 162 700 162 700 166 717 c 0,0,1
EndSplineSet
EndChar

StartChar: asciicircum
Encoding: 94 94 79
Width: 358
GlyphClass: 2
Flags: W
LayerCount: 2
Fore
SplineSet
136 490 m 0,0,1
 130 490 130 490 132 497 c 0,2,3
 133 500 133 500 147.5 515 c 128,-1,4
 162 530 162 530 183.5 551.5 c 128,-1,5
 205 573 205 573 231 597.5 c 128,-1,6
 257 622 257 622 280 643.5 c 128,-1,7
 303 665 303 665 320 680 c 128,-1,8
 337 695 337 695 341 698 c 0,9,10
 344 697 344 697 349 690 c 0,11,12
 369 657 369 657 387.5 622.5 c 128,-1,13
 406 588 406 588 427 556 c 0,14,15
 427 554 427 554 432.5 546 c 128,-1,16
 438 538 438 538 443 529 c 128,-1,17
 448 520 448 520 452 512 c 2,18,-1
 457 505 l 2,19,20
 457 499 457 499 457 497 c 0,21,22
 455 490 455 490 447 490 c 0,23,24
 440 490 440 490 422 506 c 128,-1,25
 404 522 404 522 384 542 c 128,-1,26
 364 562 364 562 346 581.5 c 128,-1,27
 328 601 328 601 320 608 c 1,28,29
 308 600 308 600 281.5 580.5 c 128,-1,30
 255 561 255 561 225.5 541 c 128,-1,31
 196 521 196 521 170.5 505.5 c 128,-1,32
 145 490 145 490 136 490 c 0,0,1
EndSplineSet
EndChar

StartChar: underscore
Encoding: 95 95 80
Width: 561
GlyphClass: 2
Flags: W
LayerCount: 2
Fore
SplineSet
-23 -139 m 1,0,-1
 -10 -84 l 1,1,-1
 533 -84 l 1,2,-1
 520 -139 l 1,3,-1
 -23 -139 l 1,0,-1
EndSplineSet
EndChar

StartChar: grave
Encoding: 96 96 81
Width: 400
GlyphClass: 2
Flags: W
LayerCount: 2
Fore
SplineSet
294 697 m 0,0,1
 301 702 301 702 303.5 704 c 128,-1,2
 306 706 306 706 309.5 708 c 128,-1,3
 313 710 313 710 317.5 713 c 128,-1,4
 322 716 322 716 332 723 c 0,5,6
 338 731 338 731 344 727.5 c 128,-1,7
 350 724 350 724 351 719 c 0,8,9
 353 709 353 709 362 684.5 c 128,-1,10
 371 660 371 660 380.5 633.5 c 128,-1,11
 390 607 390 607 397.5 584 c 128,-1,12
 405 561 405 561 404 554 c 0,13,14
 404 544 404 544 396 539 c 128,-1,15
 388 534 388 534 382 543 c 0,16,17
 375 552 375 552 361.5 569.5 c 128,-1,18
 348 587 348 587 333.5 607 c 128,-1,19
 319 627 319 627 306.5 645 c 128,-1,20
 294 663 294 663 288 674 c 0,21,22
 284 681 284 681 284.5 685.5 c 128,-1,23
 285 690 285 690 294 697 c 0,0,1
EndSplineSet
EndChar

StartChar: a
Encoding: 97 97 82
Width: 511
GlyphClass: 2
Flags: W
LayerCount: 2
Fore
SplineSet
384 172 m 0,0,1
 392 207 392 207 401.5 246.5 c 128,-1,2
 411 286 411 286 411.5 320 c 128,-1,3
 412 354 412 354 399 376.5 c 128,-1,4
 386 399 386 399 348 399 c 0,5,6
 313 399 313 399 284 383.5 c 128,-1,7
 255 368 255 368 232.5 343 c 128,-1,8
 210 318 210 318 194 285.5 c 128,-1,9
 178 253 178 253 170 219 c 0,10,11
 162 182 162 182 164 149 c 128,-1,12
 166 116 166 116 178.5 90.5 c 128,-1,13
 191 65 191 65 215.5 50.5 c 128,-1,14
 240 36 240 36 276 36 c 0,15,16
 282 36 282 36 294.5 40.5 c 128,-1,17
 307 45 307 45 320.5 51.5 c 128,-1,18
 334 58 334 58 345.5 65 c 128,-1,19
 357 72 357 72 361 78 c 0,20,21
 367 103 367 103 373 126.5 c 128,-1,22
 379 150 379 150 384 172 c 0,0,1
484 27 m 0,23,24
 483 21 483 21 477 16 c 0,25,26
 474 13 474 13 455.5 7 c 128,-1,27
 437 1 437 1 415.5 -5 c 128,-1,28
 394 -11 394 -11 374 -15.5 c 128,-1,29
 354 -20 354 -20 349 -20 c 256,30,31
 344 -20 344 -20 343 -19 c 0,32,33
 340 -13 340 -13 343 -1 c 0,34,35
 345 7 345 7 347.5 13.5 c 128,-1,36
 350 20 350 20 351 28 c 0,37,38
 352 32 352 32 353 37 c 128,-1,39
 354 42 354 42 350 44 c 0,40,41
 342 40 342 40 334 34 c 128,-1,42
 326 28 326 28 318 23 c 0,43,44
 282 3 282 3 260 -5.5 c 128,-1,45
 238 -14 238 -14 214 -14 c 0,46,47
 177 -14 177 -14 149 2 c 128,-1,48
 121 18 121 18 104 45.5 c 128,-1,49
 87 73 87 73 82 109 c 128,-1,50
 77 145 77 145 86 185 c 0,51,52
 97 235 97 235 123 279 c 128,-1,53
 149 323 149 323 184.5 355.5 c 128,-1,54
 220 388 220 388 263 407.5 c 128,-1,55
 306 427 306 427 352 427 c 0,56,57
 367 427 367 427 376.5 425.5 c 128,-1,58
 386 424 386 424 394 421 c 128,-1,59
 402 418 402 418 410.5 413.5 c 128,-1,60
 419 409 419 409 432 403 c 1,61,62
 438 408 438 408 440 414 c 128,-1,63
 442 420 442 420 443 425 c 1,64,65
 443 425 443 425 514 428 c 1,66,67
 503 381 503 381 491 335 c 0,68,69
 463 220 463 220 436 101 c 1,70,-1
 432 87 l 2,71,72
 429 76 429 76 427 60.5 c 128,-1,73
 425 45 425 45 428 40 c 0,74,75
 432 34 432 34 443 35 c 0,76,77
 451 35 451 35 458.5 36.5 c 128,-1,78
 466 38 466 38 474 39 c 0,79,80
 478 37 478 37 482 36 c 128,-1,81
 486 35 486 35 484 27 c 0,23,24
EndSplineSet
EndChar

StartChar: b
Encoding: 98 98 83
Width: 500
GlyphClass: 2
Flags: W
LayerCount: 2
Fore
SplineSet
419 189 m 0,0,1
 428 228 428 228 427 264 c 128,-1,2
 426 300 426 300 413 328.5 c 128,-1,3
 400 357 400 357 375 373.5 c 128,-1,4
 350 390 350 390 311 390 c 0,5,6
 290 390 290 390 276 384 c 128,-1,7
 262 378 262 378 241 365 c 0,8,9
 230 357 230 357 228 344.5 c 128,-1,10
 226 332 226 332 223 321 c 2,11,-1
 183 145 l 2,12,13
 178 124 178 124 178 105.5 c 128,-1,14
 178 87 178 87 186 71 c 0,15,16
 198 49 198 49 214 35.5 c 128,-1,17
 230 22 230 22 255 22 c 0,18,19
 285 22 285 22 312 36.5 c 128,-1,20
 339 51 339 51 360.5 75 c 128,-1,21
 382 99 382 99 397 129 c 128,-1,22
 412 159 412 159 419 189 c 0,0,1
504 217 m 0,23,24
 492 166 492 166 465 124.5 c 128,-1,25
 438 83 438 83 400 52 c 128,-1,26
 362 21 362 21 318 4 c 128,-1,27
 274 -13 274 -13 230 -13 c 0,28,29
 221 -13 221 -13 215.5 -12.5 c 128,-1,30
 210 -12 210 -12 205 -10.5 c 128,-1,31
 200 -9 200 -9 195 -7 c 128,-1,32
 190 -5 190 -5 183 -2 c 0,33,34
 177 0 177 0 165 8 c 128,-1,35
 153 16 153 16 135 16 c 0,36,37
 125 16 125 16 118.5 12.5 c 128,-1,38
 112 9 112 9 107 4.5 c 128,-1,39
 102 0 102 0 96.5 -5 c 128,-1,40
 91 -10 91 -10 84 -13 c 0,41,42
 72 -20 72 -20 67 -14.5 c 128,-1,43
 62 -9 62 -9 69 2 c 0,44,45
 85 38 85 38 98 85.5 c 128,-1,46
 111 133 111 133 122 184 c 2,47,-1
 138 252 l 2,48,49
 162 349 162 349 180.5 443 c 128,-1,50
 199 537 199 537 222 634 c 2,51,-1
 230 670 l 2,52,53
 236 694 236 694 230 704 c 128,-1,54
 224 714 224 714 215.5 718.5 c 128,-1,55
 207 723 207 723 199.5 725 c 128,-1,56
 192 727 192 727 194 735 c 256,57,58
 196 743 196 743 205 748 c 0,59,60
 230 756 230 756 247.5 764 c 128,-1,61
 265 772 265 772 277 778.5 c 128,-1,62
 289 785 289 785 297.5 789 c 128,-1,63
 306 793 306 793 314 793 c 0,64,65
 326 793 326 793 327 783.5 c 128,-1,66
 328 774 328 774 326 767 c 0,67,68
 323 752 323 752 317 736 c 128,-1,69
 311 720 311 720 308 705 c 0,70,71
 289 626 289 626 273 546.5 c 128,-1,72
 257 467 257 467 236 385 c 1,73,74
 254 397 254 397 270 407.5 c 128,-1,75
 286 418 286 418 301 425.5 c 128,-1,76
 316 433 316 433 332.5 437 c 128,-1,77
 349 441 349 441 368 441 c 0,78,79
 409 441 409 441 439 422 c 128,-1,80
 469 403 469 403 486.5 371.5 c 128,-1,81
 504 340 504 340 509 300 c 128,-1,82
 514 260 514 260 504 217 c 0,23,24
EndSplineSet
EndChar

StartChar: c
Encoding: 99 99 84
Width: 398
GlyphClass: 2
Flags: W
LayerCount: 2
Fore
SplineSet
447 368 m 0,0,1
 444 351 444 351 432.5 341.5 c 128,-1,2
 421 332 421 332 407 332 c 256,3,4
 393 332 393 332 385 344 c 128,-1,5
 377 356 377 356 369.5 370.5 c 128,-1,6
 362 385 362 385 351.5 397 c 128,-1,7
 341 409 341 409 324 409 c 0,8,9
 292 409 292 409 265.5 392 c 128,-1,10
 239 375 239 375 218.5 347.5 c 128,-1,11
 198 320 198 320 184.5 287.5 c 128,-1,12
 171 255 171 255 164 224 c 0,13,14
 156 190 156 190 156.5 157 c 128,-1,15
 157 124 157 124 167 98 c 128,-1,16
 177 72 177 72 198 56 c 128,-1,17
 219 40 219 40 254 40 c 2,18,-1
 272 40 l 2,19,20
 294 40 294 40 316.5 50 c 128,-1,21
 339 60 339 60 359 75 c 0,22,23
 364 79 364 79 368.5 82 c 128,-1,24
 373 85 373 85 378 88 c 1,25,26
 382 83 382 83 381 77 c 0,27,28
 379 68 379 68 371 59.5 c 128,-1,29
 363 51 363 51 357 44 c 0,30,31
 350 36 350 36 339 28 c 128,-1,32
 328 20 328 20 315.5 12 c 128,-1,33
 303 4 303 4 291 -1.5 c 128,-1,34
 279 -7 279 -7 270 -10 c 0,35,36
 237 -21 237 -21 212 -21 c 0,37,38
 171 -21 171 -21 143 -3.5 c 128,-1,39
 115 14 115 14 99.5 44 c 128,-1,40
 84 74 84 74 81 113.5 c 128,-1,41
 78 153 78 153 89 196 c 0,42,43
 99 245 99 245 123 289 c 128,-1,44
 147 333 147 333 181 366.5 c 128,-1,45
 215 400 215 400 256.5 420 c 128,-1,46
 298 440 298 440 342 440 c 0,47,48
 356 440 356 440 376.5 437 c 128,-1,49
 397 434 397 434 414 426 c 128,-1,50
 431 418 431 418 441.5 404 c 128,-1,51
 452 390 452 390 447 368 c 0,0,1
EndSplineSet
EndChar

StartChar: d
Encoding: 100 100 85
Width: 511
GlyphClass: 2
Flags: W
LayerCount: 2
Fore
SplineSet
384 172 m 0,0,1
 392 207 392 207 401.5 246.5 c 128,-1,2
 411 286 411 286 411.5 320 c 128,-1,3
 412 354 412 354 398.5 376 c 128,-1,4
 385 398 385 398 348 398 c 0,5,6
 313 398 313 398 284 383 c 128,-1,7
 255 368 255 368 232.5 343 c 128,-1,8
 210 318 210 318 194 285.5 c 128,-1,9
 178 253 178 253 170 218 c 0,10,11
 162 181 162 181 164 148.5 c 128,-1,12
 166 116 166 116 178.5 90.5 c 128,-1,13
 191 65 191 65 215.5 50.5 c 128,-1,14
 240 36 240 36 276 36 c 0,15,16
 282 36 282 36 294.5 40.5 c 128,-1,17
 307 45 307 45 320.5 51.5 c 128,-1,18
 334 58 334 58 345.5 65 c 128,-1,19
 357 72 357 72 361 78 c 0,20,21
 367 103 367 103 373 126.5 c 128,-1,22
 379 150 379 150 384 172 c 0,0,1
484 27 m 0,23,24
 483 21 483 21 477 16 c 0,25,26
 474 13 474 13 455.5 7 c 128,-1,27
 437 1 437 1 415.5 -5 c 128,-1,28
 394 -11 394 -11 374 -15.5 c 128,-1,29
 354 -20 354 -20 349 -20 c 256,30,31
 344 -20 344 -20 343 -19 c 0,32,33
 340 -13 340 -13 343 -1 c 0,34,35
 345 7 345 7 347.5 13.5 c 128,-1,36
 350 20 350 20 351 28 c 0,37,38
 352 32 352 32 353 37 c 128,-1,39
 354 42 354 42 350 44 c 0,40,41
 342 40 342 40 334 34 c 128,-1,42
 326 28 326 28 318 23 c 0,43,44
 282 3 282 3 260 -5.5 c 128,-1,45
 238 -14 238 -14 214 -14 c 0,46,47
 177 -14 177 -14 149 2 c 128,-1,48
 121 18 121 18 104 45.5 c 128,-1,49
 87 73 87 73 82 109 c 128,-1,50
 77 145 77 145 86 185 c 0,51,52
 97 235 97 235 123 279 c 128,-1,53
 149 323 149 323 184.5 355.5 c 128,-1,54
 220 388 220 388 263 407 c 128,-1,55
 306 426 306 426 352 426 c 0,56,57
 367 426 367 426 376.5 424.5 c 128,-1,58
 386 423 386 423 394 420 c 128,-1,59
 402 417 402 417 410.5 412.5 c 128,-1,60
 419 408 419 408 432 402 c 1,61,62
 438 407 438 407 440 414 c 128,-1,63
 442 421 442 421 443 427 c 0,64,65
 453 468 453 468 464 509.5 c 128,-1,66
 475 551 475 551 484 592 c 0,67,68
 489 613 489 613 494 633 c 128,-1,69
 499 653 499 653 502 675 c 128,-1,70
 505 697 505 697 500 703 c 128,-1,71
 495 709 495 709 481 715 c 0,72,73
 476 717 476 717 467.5 723 c 128,-1,74
 459 729 459 729 461 737 c 0,75,76
 462 742 462 742 469 748 c 128,-1,77
 476 754 476 754 482 755 c 0,78,79
 500 757 500 757 518 761.5 c 128,-1,80
 536 766 536 766 551 771 c 128,-1,81
 566 776 566 776 576.5 779 c 128,-1,82
 587 782 587 782 590 782 c 128,-1,83
 593 782 593 782 594 778.5 c 128,-1,84
 595 775 595 775 595 772 c 2,85,-1
 573 680 l 2,86,87
 568 660 568 660 562.5 639.5 c 128,-1,88
 557 619 557 619 553 599 c 0,89,90
 524 473 524 473 494 352 c 128,-1,91
 464 231 464 231 435 105 c 2,92,-1
 432 90 l 2,93,94
 429 78 429 78 426.5 62 c 128,-1,95
 424 46 424 46 427 41 c 0,96,97
 431 35 431 35 443 35 c 0,98,99
 451 35 451 35 458.5 36.5 c 128,-1,100
 466 38 466 38 474 39 c 0,101,102
 478 37 478 37 482 36 c 128,-1,103
 486 35 486 35 484 27 c 0,23,24
EndSplineSet
EndChar

StartChar: e
Encoding: 101 101 86
Width: 399
GlyphClass: 2
Flags: W
LayerCount: 2
Fore
SplineSet
366 333 m 0,0,1
 370 349 370 349 366.5 364 c 128,-1,2
 363 379 363 379 355.5 390 c 128,-1,3
 348 401 348 401 336.5 407.5 c 128,-1,4
 325 414 325 414 311 414 c 0,5,6
 293 414 293 414 273.5 404.5 c 128,-1,7
 254 395 254 395 237 379 c 128,-1,8
 220 363 220 363 208 343 c 128,-1,9
 196 323 196 323 191 303 c 0,10,11
 190 299 190 299 195.5 297.5 c 128,-1,12
 201 296 201 296 208 296 c 128,-1,13
 215 296 215 296 222 296 c 128,-1,14
 229 296 229 296 231 296 c 0,15,16
 255 296 255 296 270.5 295.5 c 128,-1,17
 286 295 286 295 309 297 c 0,18,19
 319 298 319 298 328 299 c 128,-1,20
 337 300 337 300 344.5 303 c 128,-1,21
 352 306 352 306 357.5 313 c 128,-1,22
 363 320 363 320 366 333 c 0,0,1
426 285 m 0,23,24
 423 273 423 273 418 266 c 0,25,26
 414 265 414 265 409 264.5 c 128,-1,27
 404 264 404 264 399 264 c 2,28,-1
 186 264 l 2,29,30
 183 264 183 264 177 262 c 0,31,32
 174 262 174 262 172 254.5 c 128,-1,33
 170 247 170 247 168 240 c 2,34,-1
 166 232 l 2,35,36
 158 194 158 194 157.5 159 c 128,-1,37
 157 124 157 124 167 98 c 128,-1,38
 177 72 177 72 200 56.5 c 128,-1,39
 223 41 223 41 262 41 c 0,40,41
 278 41 278 41 291.5 44 c 128,-1,42
 305 47 305 47 317 52.5 c 128,-1,43
 329 58 329 58 341.5 66.5 c 128,-1,44
 354 75 354 75 369 85 c 0,45,46
 370 86 370 86 376 86 c 256,47,48
 382 86 382 86 381 80 c 0,49,50
 380 75 380 75 373.5 67.5 c 128,-1,51
 367 60 367 60 359 52 c 128,-1,52
 351 44 351 44 343 37.5 c 128,-1,53
 335 31 335 31 331 28 c 0,54,55
 298 3 298 3 270.5 -8.5 c 128,-1,56
 243 -20 243 -20 209 -20 c 0,57,58
 168 -20 168 -20 140.5 -4.5 c 128,-1,59
 113 11 113 11 98 39.5 c 128,-1,60
 83 68 83 68 80.5 105 c 128,-1,61
 78 142 78 142 87 185 c 0,62,63
 96 230 96 230 115.5 275.5 c 128,-1,64
 135 321 135 321 163 358 c 128,-1,65
 191 395 191 395 229 418 c 128,-1,66
 267 441 267 441 312 441 c 0,67,68
 364 441 364 441 395 417 c 128,-1,69
 426 393 426 393 428 335 c 0,70,71
 429 323 429 323 428.5 310 c 128,-1,72
 428 297 428 297 426 285 c 0,23,24
EndSplineSet
EndChar

StartChar: f
Encoding: 102 102 87
Width: 275
GlyphClass: 2
Flags: W
LayerCount: 2
Fore
SplineSet
547 721 m 0,0,1
 547 709 547 709 539 698 c 128,-1,2
 531 687 531 687 520 680.5 c 128,-1,3
 509 674 509 674 498 673 c 128,-1,4
 487 672 487 672 482 679 c 0,5,6
 478 683 478 683 477.5 694 c 128,-1,7
 477 705 477 705 471 715.5 c 128,-1,8
 465 726 465 726 450 734.5 c 128,-1,9
 435 743 435 743 402 743 c 0,10,11
 384 743 384 743 368 730 c 128,-1,12
 352 717 352 717 339 696.5 c 128,-1,13
 326 676 326 676 314.5 650 c 128,-1,14
 303 624 303 624 294.5 597.5 c 128,-1,15
 286 571 286 571 279.5 547 c 128,-1,16
 273 523 273 523 269 506 c 2,17,-1
 266 492 l 2,18,19
 263 480 263 480 260 465 c 128,-1,20
 257 450 257 450 260 445 c 1,21,-1
 356 445 l 2,22,23
 367 445 367 445 371 439 c 0,24,25
 370 434 370 434 369.5 430 c 128,-1,26
 369 426 369 426 368 421 c 0,27,28
 365 410 365 410 359 402 c 0,29,30
 354 401 354 401 349 400.5 c 128,-1,31
 344 400 344 400 339 400 c 2,32,-1
 286 400 l 2,33,34
 277 400 277 400 269 400 c 128,-1,35
 261 400 261 400 252 399 c 1,36,37
 244 392 244 392 241.5 377 c 128,-1,38
 239 362 239 362 237 353 c 0,39,40
 221 284 221 284 205 216.5 c 132,-1,41
 189 149 189 149 173 80 c 2,42,-1
 155 2 l 2,43,44
 146 -37 146 -37 128 -75 c 0,45,46
 111 -113 111 -113 87 -147.5 c 128,-1,47
 63 -182 63 -182 34.5 -208 c 128,-1,48
 6 -234 6 -234 -27.5 -249 c 128,-1,49
 -61 -264 -61 -264 -96 -263 c 0,50,51
 -114 -263 -114 -263 -132 -260 c 128,-1,52
 -150 -257 -150 -257 -162.5 -248.5 c 128,-1,53
 -175 -240 -175 -240 -181.5 -226 c 128,-1,54
 -188 -212 -188 -212 -184 -191 c 0,55,56
 -184 -179 -184 -179 -175.5 -168 c 128,-1,57
 -167 -157 -167 -157 -156 -150.5 c 128,-1,58
 -145 -144 -145 -144 -134.5 -143 c 128,-1,59
 -124 -142 -124 -142 -118 -149 c 0,60,61
 -114 -153 -114 -153 -113.5 -164 c 128,-1,62
 -113 -175 -113 -175 -107.5 -185.5 c 128,-1,63
 -102 -196 -102 -196 -87 -204.5 c 128,-1,64
 -72 -213 -72 -213 -38 -213 c 0,65,66
 -20 -213 -20 -213 -4.5 -200 c 128,-1,67
 11 -187 11 -187 24.5 -166.5 c 128,-1,68
 38 -146 38 -146 49 -120 c 128,-1,69
 60 -94 60 -94 69 -67 c 0,70,71
 76 -41 76 -41 81 -17 c 2,72,-1
 170 369 l 2,73,74
 173 382 173 382 174 396 c 1,75,76
 154 399 154 399 134 399 c 0,77,78
 127 399 127 399 119 401 c 128,-1,79
 111 403 111 403 114 414 c 0,80,81
 115 418 115 418 116.5 423.5 c 128,-1,82
 118 429 118 429 121 433 c 0,83,84
 125 438 125 438 133.5 440 c 128,-1,85
 142 442 142 442 152 443.5 c 128,-1,86
 162 445 162 445 172 446 c 128,-1,87
 182 447 182 447 188 450 c 1,88,89
 200 489 200 489 209 528 c 128,-1,90
 218 567 218 567 235 605 c 128,-1,91
 252 643 252 643 276 677.5 c 128,-1,92
 300 712 300 712 329 738 c 128,-1,93
 358 764 358 764 391 779 c 128,-1,94
 424 794 424 794 459 793 c 0,95,96
 477 793 477 793 495 790 c 128,-1,97
 513 787 513 787 526 778.5 c 128,-1,98
 539 770 539 770 545 756 c 128,-1,99
 551 742 551 742 547 721 c 0,0,1
EndSplineSet
EndChar

StartChar: g
Encoding: 103 103 88
Width: 450
GlyphClass: 2
Flags: W
LayerCount: 2
Fore
SplineSet
363 294 m 0,0,1
 366 318 366 318 365 339 c 128,-1,2
 364 360 364 360 356.5 374.5 c 128,-1,3
 349 389 349 389 333.5 395.5 c 128,-1,4
 318 402 318 402 291 399 c 0,5,6
 268 396 268 396 251 383.5 c 128,-1,7
 234 371 234 371 221.5 354 c 128,-1,8
 209 337 209 337 202 318.5 c 128,-1,9
 195 300 195 300 192 287 c 0,10,11
 189 265 189 265 189.5 242.5 c 128,-1,12
 190 220 190 220 196.5 203 c 128,-1,13
 203 186 203 186 218 176.5 c 128,-1,14
 233 167 233 167 258 170 c 128,-1,15
 283 173 283 173 301.5 183 c 128,-1,16
 320 193 320 193 331.5 209 c 128,-1,17
 343 225 343 225 351 246.5 c 128,-1,18
 359 268 359 268 363 294 c 0,0,1
355 -128 m 0,19,20
 368 -70 368 -70 339 -44 c 128,-1,21
 310 -18 310 -18 239 -18 c 0,22,23
 174 -18 174 -18 131 -49.5 c 128,-1,24
 88 -81 88 -81 73 -145 c 0,25,26
 68 -165 68 -165 75.5 -183 c 128,-1,27
 83 -201 83 -201 98 -214.5 c 128,-1,28
 113 -228 113 -228 134 -235.5 c 128,-1,29
 155 -243 155 -243 178 -243 c 0,30,31
 205 -243 205 -243 233.5 -234.5 c 128,-1,32
 262 -226 262 -226 287.5 -210.5 c 128,-1,33
 313 -195 313 -195 331 -174 c 128,-1,34
 349 -153 349 -153 355 -128 c 0,19,20
5 -138 m 0,35,36
 7 -127 7 -127 16 -111.5 c 128,-1,37
 25 -96 25 -96 41.5 -78.5 c 128,-1,38
 58 -61 58 -61 82 -43 c 128,-1,39
 106 -25 106 -25 140 -9 c 1,40,41
 88 -14 88 -14 66.5 6.5 c 128,-1,42
 45 27 45 27 53 59 c 0,43,44
 55 72 55 72 70.5 86 c 128,-1,45
 86 100 86 100 107 111.5 c 128,-1,46
 128 123 128 123 151.5 132 c 128,-1,47
 175 141 175 141 192 145 c 1,48,49
 175 157 175 157 159.5 170 c 128,-1,50
 144 183 144 183 133.5 199.5 c 128,-1,51
 123 216 123 216 120 237 c 128,-1,52
 117 258 117 258 123 285 c 0,53,54
 131 321 131 321 150.5 349 c 128,-1,55
 170 377 170 377 195.5 396 c 128,-1,56
 221 415 221 415 250.5 425 c 128,-1,57
 280 435 280 435 311 435 c 0,58,59
 335 435 335 435 353.5 427.5 c 128,-1,60
 372 420 372 420 391 409 c 0,61,62
 400 404 400 404 407.5 397 c 128,-1,63
 415 390 415 390 428 382 c 0,64,65
 443 372 443 372 462 376 c 128,-1,66
 481 380 481 380 501 380 c 0,67,68
 511 380 511 380 511.5 370.5 c 128,-1,69
 512 361 512 361 510 353 c 0,70,71
 508 343 508 343 500 338.5 c 128,-1,72
 492 334 492 334 482.5 333 c 128,-1,73
 473 332 473 332 462.5 332.5 c 128,-1,74
 452 333 452 333 445 333 c 128,-1,75
 438 333 438 333 439 332 c 128,-1,76
 440 331 440 331 433 326 c 1,77,78
 432 315 432 315 431.5 308.5 c 128,-1,79
 431 302 431 302 429 291 c 128,-1,80
 427 280 427 280 424 274 c 128,-1,81
 421 268 421 268 416 257 c 0,82,83
 393 211 393 211 354.5 179.5 c 128,-1,84
 316 148 316 148 270 141 c 0,85,86
 256 139 256 139 234 135 c 128,-1,87
 212 131 212 131 190.5 123.5 c 128,-1,88
 169 116 169 116 152.5 104.5 c 128,-1,89
 136 93 136 93 133 78 c 0,90,91
 129 59 129 59 141.5 51.5 c 128,-1,92
 154 44 154 44 176 43.5 c 128,-1,93
 198 43 198 43 223.5 46.5 c 128,-1,94
 249 50 249 50 270 52 c 0,95,96
 303 55 303 55 333.5 46.5 c 128,-1,97
 364 38 364 38 385.5 19 c 128,-1,98
 407 0 407 0 416 -30.5 c 128,-1,99
 425 -61 425 -61 415 -102 c 0,100,101
 402 -161 402 -161 372.5 -197.5 c 128,-1,102
 343 -234 343 -234 305 -253.5 c 128,-1,103
 267 -273 267 -273 225.5 -280 c 128,-1,104
 184 -287 184 -287 147 -287 c 0,105,106
 111 -287 111 -287 81 -275.5 c 128,-1,107
 51 -264 51 -264 31.5 -244 c 128,-1,108
 12 -224 12 -224 4.5 -197 c 128,-1,109
 -3 -170 -3 -170 5 -138 c 0,35,36
EndSplineSet
EndChar

StartChar: h
Encoding: 104 104 89
Width: 502
GlyphClass: 2
Flags: W
LayerCount: 2
Fore
SplineSet
433 67 m 0,0,1
 430 51 430 51 430 49 c 0,2,3
 431 37 431 37 445 35 c 0,4,5
 456 34 456 34 477 55 c 0,6,7
 479 57 479 57 480 58 c 2,8,-1
 517 108 l 1,9,-1
 529 98 l 1,10,11
 474 9 474 9 435 -5 c 0,12,13
 418 -11 418 -11 406 -11 c 0,14,15
 345 -11 345 -11 370 100 c 0,16,17
 372 109 372 109 374 118 c 1,18,19
 398 146 398 146 421 174 c 1,20,21
 414.363425371 174 414.363425371 174 403.5 126 c 0,22,23
 397 98 397 98 396 90 c 0,24,25
 394 77 394 77 388 66 c 4,26,27
 371 36 371 36 382 42 c 0,28,29
 401 53 401 53 393 56 c 0,30,31
 362.642857143 66.119047619 362.642857143 66.119047619 364 72 c 2,32,-1
 418 306 l 2,33,34
 427 346 427 346 406 364 c 128,-1,35
 385 382 385 382 351 382 c 0,36,37
 283 382 283 382 239 311 c 1,38,39
 225 249 225 249 210 187.5 c 0,40,41
 181 67 181 67 180 63 c 2,42,-1
 166 0 l 1,43,-1
 96 0 l 1,44,-1
 250 664 l 2,45,46
 253 679 253 679 246 688 c 128,-1,47
 239 697 239 697 230 703 c 128,-1,48
 221 709 221 709 213.5 713.5 c 128,-1,49
 206 718 206 718 207 724 c 0,50,51
 208 729 208 729 213 733 c 128,-1,52
 218 737 218 737 222 738 c 0,53,54
 247 741 247 741 268 751.5 c 0,55,56
 310 772 310 772 337 779 c 0,57,58
 341 780 341 780 342 774 c 0,59,60
 342 766 342 766 338.5 754 c 0,61,62
 333 736 333 736 329 709 c 0,63,64
 325 683 325 683 316.5 651.5 c 0,65,66
 315 646 315 646 303 592 c 2,67,-1
 252 370 l 2,68,69
 251 366 251 366 251 360 c 1,70,71
 269 375 269 375 286.5 389.5 c 128,-1,72
 304 404 304 404 322.5 415.5 c 128,-1,73
 341 427 341 427 360 433.5 c 128,-1,74
 379 440 379 440 400 440 c 0,75,76
 439 440 439 440 459 426 c 128,-1,77
 479 412 479 412 486 388 c 0,78,79
 494 361 494 361 489 331.5 c 0,80,81
 482.984924623 294.908291457 482.984924623 294.908291457 476 264 c 2,82,-1
 436 87 l 2,83,84
 435 83 435 83 434.5 77 c 0,85,86
 434 72 434 72 433 67 c 0,0,1
EndSplineSet
EndChar

StartChar: i
Encoding: 105 105 90
Width: 272
GlyphClass: 2
Flags: W
LayerCount: 2
Fore
SplineSet
346 694 m 0,0,1
 341 672 341 672 322 656.5 c 128,-1,2
 303 641 303 641 284 641 c 0,3,4
 264 641 264 641 253.5 656.5 c 128,-1,5
 243 672 243 672 249 695 c 0,6,7
 254 716 254 716 272.5 732 c 128,-1,8
 291 748 291 748 310 748 c 0,9,10
 330 748 330 748 340.5 732.5 c 128,-1,11
 351 717 351 717 346 694 c 0,0,1
189 60 m 0,12,13
 188 53 188 53 187 47 c 0,14,15
 190 36 190 36 202 33 c 0,16,17
 215 33 215 33 232 50 c 0,18,19
 234 53 234 53 235 55 c 2,20,-1
 274 106 l 1,21,-1
 284 96 l 1,22,23
 230 7 230 7 187 -7 c 0,24,25
 175 -11 175 -11 163 -11 c 0,26,27
 113 -12 113 -12 105 -6 c 1,28,29
 81 -8 81 -8 59 -8 c 2,30,-1
 49 -8 l 2,31,32
 42 -8 42 -8 36.5 -6 c 128,-1,33
 31 -4 31 -4 33 7 c 0,34,35
 34 10 34 10 36.5 12 c 128,-1,36
 39 14 39 14 41 16 c 0,37,38
 50 23 50 23 60.5 24.5 c 128,-1,39
 71 26 71 26 80.5 27.5 c 128,-1,40
 90 29 90 29 99 34.5 c 128,-1,41
 108 40 108 40 114 55 c 0,42,43
 118 64 118 64 118 68 c 2,44,-1
 122 82 l 2,45,46
 130 112 130 112 136 141 c 128,-1,47
 142 170 142 170 150 200 c 0,48,49
 156 223 156 223 162.5 245 c 128,-1,50
 169 267 169 267 174 289 c 0,51,52
 177 300 177 300 179 316 c 2,53,-1
 179 319 l 1,54,55
 191 371 191 371 193 382 c 1,56,57
 190 393 190 393 178 396 c 0,58,59
 165 396 165 396 149 380 c 0,60,61
 147 377 147 377 145 375 c 2,62,-1
 106 323 l 1,63,-1
 95 333 l 1,64,65
 148 420 148 420 190 435 c 0,66,67
 202 439 202 439 215 439 c 0,68,69
 273 437 273 437 244 312 c 0,70,71
 237 283 237 283 233 265 c 0,72,73
 225 230 225 230 217.5 195.5 c 128,-1,74
 210 161 210 161 203 126 c 0,75,76
 199 110 199 110 195 93 c 128,-1,77
 191 76 191 76 189 60 c 0,12,13
EndSplineSet
EndChar

StartChar: j
Encoding: 106 106 91
Width: 238
GlyphClass: 2
Flags: W
LayerCount: 2
Fore
SplineSet
331 697 m 256,0,1
 326 674 326 674 308 658 c 128,-1,2
 290 642 290 642 270 642 c 0,3,4
 251 642 251 642 240.5 658 c 128,-1,5
 230 674 230 674 235 695 c 0,6,7
 240 718 240 718 257 734 c 128,-1,8
 274 750 274 750 295 750 c 0,9,10
 315 750 315 750 325.5 735 c 128,-1,11
 336 720 336 720 331 697 c 256,0,1
256 410 m 0,12,13
 236 323 236 323 216 238.5 c 128,-1,14
 196 154 196 154 176 66 c 0,15,16
 169 35 169 35 160 2.5 c 128,-1,17
 151 -30 151 -30 140 -61 c 0,18,19
 119 -122 119 -122 76.5 -167.5 c 128,-1,20
 34 -213 34 -213 -17 -247 c 0,21,22
 -22 -251 -22 -251 -32.5 -257 c 128,-1,23
 -43 -263 -43 -263 -50 -263 c 2,24,-1
 -51 -263 l 1,25,26
 -52 -259 -52 -259 -52.5 -255.5 c 128,-1,27
 -53 -252 -53 -252 -55 -249 c 0,28,29
 -52 -245 -52 -245 -49 -242 c 128,-1,30
 -46 -239 -46 -239 -42 -235 c 0,31,32
 -23 -216 -23 -216 -4.5 -198 c 128,-1,33
 14 -180 14 -180 30 -157 c 0,34,35
 48 -131 48 -131 59.5 -103.5 c 128,-1,36
 71 -76 71 -76 79.5 -47.5 c 128,-1,37
 88 -19 88 -19 94 9.5 c 128,-1,38
 100 38 100 38 107 66 c 0,39,40
 119 118 119 118 131.5 170.5 c 128,-1,41
 144 223 144 223 156 276 c 0,42,43
 158 287 158 287 162 303 c 2,44,-1
 165 316 l 2,45,46
 177 370 177 370 178 380 c 0,47,48
 175 391 175 391 164 395 c 1,49,50
 149 395 149 395 133 376 c 0,51,52
 131 374 131 374 130 373 c 2,53,-1
 91 320 l 1,54,-1
 81 330 l 1,55,56
 134 417 134 417 174 434 c 0,57,58
 188 439 188 439 202 439 c 0,59,60
 257 438 257 438 262 437 c 1,61,62
 260 430 260 430 259 423.5 c 128,-1,63
 258 417 258 417 256 410 c 0,12,13
EndSplineSet
EndChar

StartChar: k
Encoding: 107 107 92
Width: 502
GlyphClass: 2
Flags: W
LayerCount: 2
Fore
SplineSet
418 83 m 2,0,-1
 441 44 l 2,1,2
 447 33 447 33 451 33 c 0,3,4
 464 33 464 33 480 50 c 0,5,6
 482 53 482 53 484 55 c 2,7,-1
 523 106 l 1,8,-1
 534 96 l 1,9,10
 481 7 481 7 438 -7 c 0,11,12
 426 -11 426 -11 414 -11 c 0,13,14
 384 -10 384 -10 379 0 c 2,15,-1
 330 85 l 2,16,17
 323 97 323 97 314 108.5 c 128,-1,18
 305 120 305 120 300 130 c 0,19,20
 296 137 296 137 288 152 c 128,-1,21
 280 167 280 167 271.5 183 c 128,-1,22
 263 199 263 199 254.5 212 c 128,-1,23
 246 225 246 225 241 227 c 0,24,25
 229 224 229 224 225 226 c 128,-1,26
 221 228 221 228 218 215 c 2,27,-1
 188 88 l 2,28,29
 187 83 187 83 186 75.5 c 128,-1,30
 185 68 185 68 183 60 c 2,31,-1
 169 0 l 1,32,-1
 99 0 l 1,33,34
 79 -4 79 -4 58 -9 c 1,35,-1
 55 -9 l 2,36,37
 46 -9 46 -9 37.5 -6.5 c 128,-1,38
 29 -4 29 -4 32 7 c 0,39,40
 34 14 34 14 40.5 16.5 c 128,-1,41
 47 19 47 19 56 21 c 128,-1,42
 65 23 65 23 75 27 c 128,-1,43
 85 31 85 31 94 40 c 0,44,45
 104 50 104 50 112.5 71 c 128,-1,46
 121 92 121 92 127 117 c 128,-1,47
 133 142 133 142 138.5 166.5 c 128,-1,48
 144 191 144 191 148 208 c 2,49,-1
 252 660 l 2,50,51
 257 680 257 680 249.5 693.5 c 128,-1,52
 242 707 242 707 232.5 714.5 c 128,-1,53
 223 722 223 722 215.5 726 c 128,-1,54
 208 730 208 730 214 732 c 0,55,56
 229 738 229 738 241 743 c 128,-1,57
 253 748 253 748 266.5 755 c 128,-1,58
 280 762 280 762 297 771 c 128,-1,59
 314 780 314 780 341 795 c 0,60,61
 344 795 344 795 346.5 794 c 128,-1,62
 349 793 349 793 349 788 c 128,-1,63
 349 783 349 783 348 778 c 128,-1,64
 347 773 347 773 347 769 c 0,65,66
 315 632 315 632 285.5 506.5 c 128,-1,67
 256 381 256 381 227 255 c 0,68,69
 225 248 225 248 231 248 c 0,70,71
 238 248 238 248 254 257 c 128,-1,72
 270 266 270 266 289 278.5 c 128,-1,73
 308 291 308 291 328 307 c 2,74,-1
 490 430 l 2,75,76
 502 438 502 438 516 438 c 0,77,78
 553 438 553 438 555 405 c 0,79,80
 555 403 555 403 555 401 c 0,81,82
 554 377 554 377 536 372 c 0,83,84
 533 371 533 371 531 372 c 0,85,86
 519 373 519 373 505 381 c 0,87,88
 492 389 492 389 481 389 c 0,89,90
 476 388 476 388 471 386 c 2,91,-1
 378 316 l 2,92,93
 354 298 354 298 330 279 c 0,94,95
 327 277 327 277 321.5 273 c 128,-1,96
 316 269 316 269 314 265 c 0,97,98
 315 261 315 261 316.5 258 c 128,-1,99
 318 255 318 255 319 252 c 2,100,-1
 319 251 l 1,101,102
 332 232 332 232 343.5 213 c 128,-1,103
 355 194 355 194 366 174 c 0,104,105
 378 153 378 153 391 129 c 128,-1,106
 404 105 404 105 418 83 c 2,0,-1
EndSplineSet
EndChar

StartChar: l
Encoding: 108 108 93
Width: 275
GlyphClass: 2
Flags: W
LayerCount: 2
Fore
SplineSet
201 116 m 0,0,1
 191 71 191 71 187 50 c 1,2,3
 190 36 190 36 202 35 c 0,4,5
 212 34 212 34 234 56 c 0,6,7
 235.533333333 57.5333333333 235.533333333 57.5333333333 238 61 c 2,8,-1
 275 113 l 1,9,-1
 287 102 l 1,10,11
 232 12 232 12 191 -5 c 0,12,13
 177 -11 177 -11 161 -11 c 0,14,15
 100.333333333 -11 100.333333333 -11 127 109 c 0,16,17
 129 118 129 118 164 127 c 5,18,19
 182 109 182 109 167 40 c 4,20,21
 158 -0 158 -0 139 23 c 0,22,23
 113 54 113 54 150.5 72.5 c 0,24,25
 170 82 170 82 144 83.5 c 0,26,27
 136 84 136 84 148 88 c 0,28,29
 164 93 164 93 149 84.5 c 128,-1,30
 134 76 134 76 144 94 c 0,31,32
 148 102 148 102 136 96.5 c 128,-1,33
 124 91 124 91 126 100 c 0,34,35
 157 235 157 235 188 365.5 c 0,36,37
 244 603 244 603 250 631 c 0,38,39
 253 646 253 646 256 663.5 c 128,-1,40
 259 681 259 681 253 693 c 0,41,42
 251 697 251 697 245 701 c 128,-1,43
 239 705 239 705 233.5 709 c 128,-1,44
 228 713 228 713 224 717 c 128,-1,45
 220 721 220 721 221 726 c 0,46,47
 221 728 221 728 222 730 c 0,48,49
 222 732 222 732 224 733 c 0,50,51
 238 737 238 737 259 744.5 c 128,-1,52
 280 752 280 752 300.5 760.5 c 128,-1,53
 321 769 321 769 335 775.5 c 128,-1,54
 349 782 349 782 350 783 c 2,55,-1
 354 779 l 1,56,57
 351 765 351 765 348.5 752 c 128,-1,58
 346 739 346 739 342 725 c 0,59,60
 306 561 306 561 267 401 c 0,61,62
 238 280 238 280 201 116 c 0,0,1
EndSplineSet
EndChar

